G04*
G04 #@! TF.GenerationSoftware,Altium Limited,Altium Designer,22.9.1 (49)*
G04*
G04 Layer_Color=8388736*
%FSLAX44Y44*%
%MOMM*%
G71*
G04*
G04 #@! TF.SameCoordinates,0914E3C7-33D6-4C2E-B1A8-6EB065383EFC*
G04*
G04*
G04 #@! TF.FilePolarity,Negative*
G04*
G01*
G75*
G04:AMPARAMS|DCode=76|XSize=0.6032mm|YSize=1.5532mm|CornerRadius=0.2016mm|HoleSize=0mm|Usage=FLASHONLY|Rotation=270.000|XOffset=0mm|YOffset=0mm|HoleType=Round|Shape=RoundedRectangle|*
%AMROUNDEDRECTD76*
21,1,0.6032,1.1500,0,0,270.0*
21,1,0.2000,1.5532,0,0,270.0*
1,1,0.4032,-0.5750,-0.1000*
1,1,0.4032,-0.5750,0.1000*
1,1,0.4032,0.5750,0.1000*
1,1,0.4032,0.5750,-0.1000*
%
%ADD76ROUNDEDRECTD76*%
G04:AMPARAMS|DCode=77|XSize=1.7032mm|YSize=1.7532mm|CornerRadius=0.4766mm|HoleSize=0mm|Usage=FLASHONLY|Rotation=270.000|XOffset=0mm|YOffset=0mm|HoleType=Round|Shape=RoundedRectangle|*
%AMROUNDEDRECTD77*
21,1,1.7032,0.8000,0,0,270.0*
21,1,0.7500,1.7532,0,0,270.0*
1,1,0.9532,-0.4000,-0.3750*
1,1,0.9532,-0.4000,0.3750*
1,1,0.9532,0.4000,0.3750*
1,1,0.9532,0.4000,-0.3750*
%
%ADD77ROUNDEDRECTD77*%
G04:AMPARAMS|DCode=78|XSize=1.4032mm|YSize=1.2032mm|CornerRadius=0.3516mm|HoleSize=0mm|Usage=FLASHONLY|Rotation=180.000|XOffset=0mm|YOffset=0mm|HoleType=Round|Shape=RoundedRectangle|*
%AMROUNDEDRECTD78*
21,1,1.4032,0.5000,0,0,180.0*
21,1,0.7000,1.2032,0,0,180.0*
1,1,0.7032,-0.3500,0.2500*
1,1,0.7032,0.3500,0.2500*
1,1,0.7032,0.3500,-0.2500*
1,1,0.7032,-0.3500,-0.2500*
%
%ADD78ROUNDEDRECTD78*%
G04:AMPARAMS|DCode=79|XSize=0.56mm|YSize=0.96mm|CornerRadius=0.18mm|HoleSize=0mm|Usage=FLASHONLY|Rotation=0.000|XOffset=0mm|YOffset=0mm|HoleType=Round|Shape=RoundedRectangle|*
%AMROUNDEDRECTD79*
21,1,0.5600,0.6000,0,0,0.0*
21,1,0.2000,0.9600,0,0,0.0*
1,1,0.3600,0.1000,-0.3000*
1,1,0.3600,-0.1000,-0.3000*
1,1,0.3600,-0.1000,0.3000*
1,1,0.3600,0.1000,0.3000*
%
%ADD79ROUNDEDRECTD79*%
G04:AMPARAMS|DCode=80|XSize=0.46mm|YSize=0.96mm|CornerRadius=0.155mm|HoleSize=0mm|Usage=FLASHONLY|Rotation=0.000|XOffset=0mm|YOffset=0mm|HoleType=Round|Shape=RoundedRectangle|*
%AMROUNDEDRECTD80*
21,1,0.4600,0.6500,0,0,0.0*
21,1,0.1500,0.9600,0,0,0.0*
1,1,0.3100,0.0750,-0.3250*
1,1,0.3100,-0.0750,-0.3250*
1,1,0.3100,-0.0750,0.3250*
1,1,0.3100,0.0750,0.3250*
%
%ADD80ROUNDEDRECTD80*%
%ADD81R,0.4600X0.9600*%
G04:AMPARAMS|DCode=82|XSize=1.6032mm|YSize=1.0032mm|CornerRadius=0.3016mm|HoleSize=0mm|Usage=FLASHONLY|Rotation=0.000|XOffset=0mm|YOffset=0mm|HoleType=Round|Shape=RoundedRectangle|*
%AMROUNDEDRECTD82*
21,1,1.6032,0.4000,0,0,0.0*
21,1,1.0000,1.0032,0,0,0.0*
1,1,0.6032,0.5000,-0.2000*
1,1,0.6032,-0.5000,-0.2000*
1,1,0.6032,-0.5000,0.2000*
1,1,0.6032,0.5000,0.2000*
%
%ADD82ROUNDEDRECTD82*%
G04:AMPARAMS|DCode=83|XSize=1.1032mm|YSize=1.1032mm|CornerRadius=0.3266mm|HoleSize=0mm|Usage=FLASHONLY|Rotation=180.000|XOffset=0mm|YOffset=0mm|HoleType=Round|Shape=RoundedRectangle|*
%AMROUNDEDRECTD83*
21,1,1.1032,0.4500,0,0,180.0*
21,1,0.4500,1.1032,0,0,180.0*
1,1,0.6532,-0.2250,0.2250*
1,1,0.6532,0.2250,0.2250*
1,1,0.6532,0.2250,-0.2250*
1,1,0.6532,-0.2250,-0.2250*
%
%ADD83ROUNDEDRECTD83*%
%ADD84R,4.9032X4.9032*%
G04:AMPARAMS|DCode=85|XSize=0.4124mm|YSize=1.0124mm|CornerRadius=0.1412mm|HoleSize=0mm|Usage=FLASHONLY|Rotation=180.000|XOffset=0mm|YOffset=0mm|HoleType=Round|Shape=RoundedRectangle|*
%AMROUNDEDRECTD85*
21,1,0.4124,0.7300,0,0,180.0*
21,1,0.1300,1.0124,0,0,180.0*
1,1,0.2824,-0.0650,0.3650*
1,1,0.2824,0.0650,0.3650*
1,1,0.2824,0.0650,-0.3650*
1,1,0.2824,-0.0650,-0.3650*
%
%ADD85ROUNDEDRECTD85*%
G04:AMPARAMS|DCode=86|XSize=0.4124mm|YSize=1.0124mm|CornerRadius=0.1412mm|HoleSize=0mm|Usage=FLASHONLY|Rotation=270.000|XOffset=0mm|YOffset=0mm|HoleType=Round|Shape=RoundedRectangle|*
%AMROUNDEDRECTD86*
21,1,0.4124,0.7300,0,0,270.0*
21,1,0.1300,1.0124,0,0,270.0*
1,1,0.2824,-0.3650,-0.0650*
1,1,0.2824,-0.3650,0.0650*
1,1,0.2824,0.3650,0.0650*
1,1,0.2824,0.3650,-0.0650*
%
%ADD86ROUNDEDRECTD86*%
%ADD87R,1.0124X0.4124*%
%ADD88R,2.2532X2.2532*%
G04:AMPARAMS|DCode=89|XSize=0.4432mm|YSize=0.8032mm|CornerRadius=0.1616mm|HoleSize=0mm|Usage=FLASHONLY|Rotation=90.000|XOffset=0mm|YOffset=0mm|HoleType=Round|Shape=RoundedRectangle|*
%AMROUNDEDRECTD89*
21,1,0.4432,0.4800,0,0,90.0*
21,1,0.1200,0.8032,0,0,90.0*
1,1,0.3232,0.2400,0.0600*
1,1,0.3232,0.2400,-0.0600*
1,1,0.3232,-0.2400,-0.0600*
1,1,0.3232,-0.2400,0.0600*
%
%ADD89ROUNDEDRECTD89*%
G04:AMPARAMS|DCode=90|XSize=0.4432mm|YSize=0.8032mm|CornerRadius=0.1616mm|HoleSize=0mm|Usage=FLASHONLY|Rotation=180.000|XOffset=0mm|YOffset=0mm|HoleType=Round|Shape=RoundedRectangle|*
%AMROUNDEDRECTD90*
21,1,0.4432,0.4800,0,0,180.0*
21,1,0.1200,0.8032,0,0,180.0*
1,1,0.3232,-0.0600,0.2400*
1,1,0.3232,0.0600,0.2400*
1,1,0.3232,0.0600,-0.2400*
1,1,0.3232,-0.0600,-0.2400*
%
%ADD90ROUNDEDRECTD90*%
%ADD91R,0.4432X0.8032*%
G04:AMPARAMS|DCode=92|XSize=1.2192mm|YSize=1.2192mm|CornerRadius=0.3556mm|HoleSize=0mm|Usage=FLASHONLY|Rotation=0.000|XOffset=0mm|YOffset=0mm|HoleType=Round|Shape=RoundedRectangle|*
%AMROUNDEDRECTD92*
21,1,1.2192,0.5080,0,0,0.0*
21,1,0.5080,1.2192,0,0,0.0*
1,1,0.7112,0.2540,-0.2540*
1,1,0.7112,-0.2540,-0.2540*
1,1,0.7112,-0.2540,0.2540*
1,1,0.7112,0.2540,0.2540*
%
%ADD92ROUNDEDRECTD92*%
G04:AMPARAMS|DCode=93|XSize=2.2032mm|YSize=0.9032mm|CornerRadius=0.2766mm|HoleSize=0mm|Usage=FLASHONLY|Rotation=90.000|XOffset=0mm|YOffset=0mm|HoleType=Round|Shape=RoundedRectangle|*
%AMROUNDEDRECTD93*
21,1,2.2032,0.3500,0,0,90.0*
21,1,1.6500,0.9032,0,0,90.0*
1,1,0.5532,0.1750,0.8250*
1,1,0.5532,0.1750,-0.8250*
1,1,0.5532,-0.1750,-0.8250*
1,1,0.5532,-0.1750,0.8250*
%
%ADD93ROUNDEDRECTD93*%
%ADD94R,0.9032X2.2032*%
%ADD95R,2.1032X1.3032*%
G04:AMPARAMS|DCode=96|XSize=1.1032mm|YSize=1.1032mm|CornerRadius=0.3266mm|HoleSize=0mm|Usage=FLASHONLY|Rotation=90.000|XOffset=0mm|YOffset=0mm|HoleType=Round|Shape=RoundedRectangle|*
%AMROUNDEDRECTD96*
21,1,1.1032,0.4500,0,0,90.0*
21,1,0.4500,1.1032,0,0,90.0*
1,1,0.6532,0.2250,0.2250*
1,1,0.6532,0.2250,-0.2250*
1,1,0.6532,-0.2250,-0.2250*
1,1,0.6532,-0.2250,0.2250*
%
%ADD96ROUNDEDRECTD96*%
%ADD97R,1.0032X1.0032*%
G04:AMPARAMS|DCode=98|XSize=1.0032mm|YSize=1.0032mm|CornerRadius=0.3016mm|HoleSize=0mm|Usage=FLASHONLY|Rotation=180.000|XOffset=0mm|YOffset=0mm|HoleType=Round|Shape=RoundedRectangle|*
%AMROUNDEDRECTD98*
21,1,1.0032,0.4000,0,0,180.0*
21,1,0.4000,1.0032,0,0,180.0*
1,1,0.6032,-0.2000,0.2000*
1,1,0.6032,0.2000,0.2000*
1,1,0.6032,0.2000,-0.2000*
1,1,0.6032,-0.2000,-0.2000*
%
%ADD98ROUNDEDRECTD98*%
G04:AMPARAMS|DCode=99|XSize=0.8616mm|YSize=2.5016mm|CornerRadius=0.2408mm|HoleSize=0mm|Usage=FLASHONLY|Rotation=0.000|XOffset=0mm|YOffset=0mm|HoleType=Round|Shape=RoundedRectangle|*
%AMROUNDEDRECTD99*
21,1,0.8616,2.0200,0,0,0.0*
21,1,0.3800,2.5016,0,0,0.0*
1,1,0.4816,0.1900,-1.0100*
1,1,0.4816,-0.1900,-1.0100*
1,1,0.4816,-0.1900,1.0100*
1,1,0.4816,0.1900,1.0100*
%
%ADD99ROUNDEDRECTD99*%
%ADD100R,0.8616X2.5016*%
G04:AMPARAMS|DCode=101|XSize=1.6032mm|YSize=1.0032mm|CornerRadius=0.3016mm|HoleSize=0mm|Usage=FLASHONLY|Rotation=270.000|XOffset=0mm|YOffset=0mm|HoleType=Round|Shape=RoundedRectangle|*
%AMROUNDEDRECTD101*
21,1,1.6032,0.4000,0,0,270.0*
21,1,1.0000,1.0032,0,0,270.0*
1,1,0.6032,-0.2000,-0.5000*
1,1,0.6032,-0.2000,0.5000*
1,1,0.6032,0.2000,0.5000*
1,1,0.6032,0.2000,-0.5000*
%
%ADD101ROUNDEDRECTD101*%
G04:AMPARAMS|DCode=102|XSize=0.78mm|YSize=0.82mm|CornerRadius=0.235mm|HoleSize=0mm|Usage=FLASHONLY|Rotation=180.000|XOffset=0mm|YOffset=0mm|HoleType=Round|Shape=RoundedRectangle|*
%AMROUNDEDRECTD102*
21,1,0.7800,0.3500,0,0,180.0*
21,1,0.3100,0.8200,0,0,180.0*
1,1,0.4700,-0.1550,0.1750*
1,1,0.4700,0.1550,0.1750*
1,1,0.4700,0.1550,-0.1750*
1,1,0.4700,-0.1550,-0.1750*
%
%ADD102ROUNDEDRECTD102*%
G04:AMPARAMS|DCode=103|XSize=0.78mm|YSize=0.82mm|CornerRadius=0.235mm|HoleSize=0mm|Usage=FLASHONLY|Rotation=90.000|XOffset=0mm|YOffset=0mm|HoleType=Round|Shape=RoundedRectangle|*
%AMROUNDEDRECTD103*
21,1,0.7800,0.3500,0,0,90.0*
21,1,0.3100,0.8200,0,0,90.0*
1,1,0.4700,0.1750,0.1550*
1,1,0.4700,0.1750,-0.1550*
1,1,0.4700,-0.1750,-0.1550*
1,1,0.4700,-0.1750,0.1550*
%
%ADD103ROUNDEDRECTD103*%
G04:AMPARAMS|DCode=104|XSize=1.4032mm|YSize=1.2032mm|CornerRadius=0.3516mm|HoleSize=0mm|Usage=FLASHONLY|Rotation=270.000|XOffset=0mm|YOffset=0mm|HoleType=Round|Shape=RoundedRectangle|*
%AMROUNDEDRECTD104*
21,1,1.4032,0.5000,0,0,270.0*
21,1,0.7000,1.2032,0,0,270.0*
1,1,0.7032,-0.2500,-0.3500*
1,1,0.7032,-0.2500,0.3500*
1,1,0.7032,0.2500,0.3500*
1,1,0.7032,0.2500,-0.3500*
%
%ADD104ROUNDEDRECTD104*%
%ADD105R,1.6532X4.0932*%
G04:AMPARAMS|DCode=106|XSize=1.7732mm|YSize=0.6132mm|CornerRadius=0.1529mm|HoleSize=0mm|Usage=FLASHONLY|Rotation=180.000|XOffset=0mm|YOffset=0mm|HoleType=Round|Shape=RoundedRectangle|*
%AMROUNDEDRECTD106*
21,1,1.7732,0.3075,0,0,180.0*
21,1,1.4675,0.6132,0,0,180.0*
1,1,0.3057,-0.7338,0.1538*
1,1,0.3057,0.7338,0.1538*
1,1,0.3057,0.7338,-0.1538*
1,1,0.3057,-0.7338,-0.1538*
%
%ADD106ROUNDEDRECTD106*%
%ADD107R,1.7732X0.6132*%
G04:AMPARAMS|DCode=108|XSize=1.6032mm|YSize=1.3032mm|CornerRadius=0.3766mm|HoleSize=0mm|Usage=FLASHONLY|Rotation=0.000|XOffset=0mm|YOffset=0mm|HoleType=Round|Shape=RoundedRectangle|*
%AMROUNDEDRECTD108*
21,1,1.6032,0.5500,0,0,0.0*
21,1,0.8500,1.3032,0,0,0.0*
1,1,0.7532,0.4250,-0.2750*
1,1,0.7532,-0.4250,-0.2750*
1,1,0.7532,-0.4250,0.2750*
1,1,0.7532,0.4250,0.2750*
%
%ADD108ROUNDEDRECTD108*%
%ADD109R,1.6032X1.3032*%
%ADD110R,0.8532X1.8032*%
%ADD111R,0.9532X0.5532*%
G04:AMPARAMS|DCode=112|XSize=0.5532mm|YSize=0.9532mm|CornerRadius=0.1891mm|HoleSize=0mm|Usage=FLASHONLY|Rotation=90.000|XOffset=0mm|YOffset=0mm|HoleType=Round|Shape=RoundedRectangle|*
%AMROUNDEDRECTD112*
21,1,0.5532,0.5750,0,0,90.0*
21,1,0.1750,0.9532,0,0,90.0*
1,1,0.3782,0.2875,0.0875*
1,1,0.3782,0.2875,-0.0875*
1,1,0.3782,-0.2875,-0.0875*
1,1,0.3782,-0.2875,0.0875*
%
%ADD112ROUNDEDRECTD112*%
%ADD113R,0.9032X1.8032*%
G04:AMPARAMS|DCode=114|XSize=2.2032mm|YSize=0.9032mm|CornerRadius=0.2766mm|HoleSize=0mm|Usage=FLASHONLY|Rotation=0.000|XOffset=0mm|YOffset=0mm|HoleType=Round|Shape=RoundedRectangle|*
%AMROUNDEDRECTD114*
21,1,2.2032,0.3500,0,0,0.0*
21,1,1.6500,0.9032,0,0,0.0*
1,1,0.5532,0.8250,-0.1750*
1,1,0.5532,-0.8250,-0.1750*
1,1,0.5532,-0.8250,0.1750*
1,1,0.5532,0.8250,0.1750*
%
%ADD114ROUNDEDRECTD114*%
%ADD115R,2.2032X0.9032*%
%ADD116R,1.7032X2.0032*%
%ADD117R,2.0032X1.7032*%
%ADD118R,1.7032X2.4032*%
%ADD119R,2.4032X1.7032*%
G04:AMPARAMS|DCode=120|XSize=1.0032mm|YSize=1.0032mm|CornerRadius=0.3016mm|HoleSize=0mm|Usage=FLASHONLY|Rotation=270.000|XOffset=0mm|YOffset=0mm|HoleType=Round|Shape=RoundedRectangle|*
%AMROUNDEDRECTD120*
21,1,1.0032,0.4000,0,0,270.0*
21,1,0.4000,1.0032,0,0,270.0*
1,1,0.6032,-0.2000,-0.2000*
1,1,0.6032,-0.2000,0.2000*
1,1,0.6032,0.2000,0.2000*
1,1,0.6032,0.2000,-0.2000*
%
%ADD120ROUNDEDRECTD120*%
%ADD121R,1.0032X1.0032*%
%ADD122R,0.4600X0.6850*%
%ADD123R,0.5850X0.4600*%
%ADD124C,1.7272*%
%ADD125O,1.0160X1.5032*%
%ADD126O,1.7532X1.0160*%
%ADD127R,1.7272X1.7272*%
%ADD128C,1.8032*%
%ADD129R,1.8032X1.8032*%
D76*
X41986Y516014D02*
D03*
Y509514D02*
D03*
Y503014D02*
D03*
Y496514D02*
D03*
Y490014D02*
D03*
D77*
X14986Y513014D02*
D03*
Y493014D02*
D03*
D78*
X294000Y936250D02*
D03*
Y916250D02*
D03*
X266000Y936500D02*
D03*
Y956500D02*
D03*
X249250Y936500D02*
D03*
Y956500D02*
D03*
X546500Y665250D02*
D03*
Y685250D02*
D03*
X586750Y737000D02*
D03*
Y757000D02*
D03*
X495300Y685640D02*
D03*
Y665640D02*
D03*
X403860Y584040D02*
D03*
Y564040D02*
D03*
X235272Y115476D02*
D03*
Y135476D02*
D03*
X214952Y115316D02*
D03*
Y135316D02*
D03*
X121920Y749460D02*
D03*
Y769460D02*
D03*
X48260Y599280D02*
D03*
Y579280D02*
D03*
X170180Y642620D02*
D03*
Y662620D02*
D03*
X601750Y757000D02*
D03*
Y737000D02*
D03*
X532130Y685640D02*
D03*
Y665640D02*
D03*
X567250Y680500D02*
D03*
Y660500D02*
D03*
X454750Y743000D02*
D03*
Y763000D02*
D03*
X668020Y787240D02*
D03*
Y767240D02*
D03*
D79*
X275070Y884120D02*
D03*
X210070D02*
D03*
D80*
X265070Y909120D02*
D03*
X245070D02*
D03*
X250070D02*
D03*
X255070D02*
D03*
X260070D02*
D03*
X240070D02*
D03*
X225070D02*
D03*
X230070D02*
D03*
X235070D02*
D03*
D81*
X220070D02*
D03*
D82*
X437500Y742000D02*
D03*
Y762000D02*
D03*
X510540Y666640D02*
D03*
Y686640D02*
D03*
X136212Y221996D02*
D03*
Y241996D02*
D03*
X101600Y749460D02*
D03*
Y769460D02*
D03*
X45720D02*
D03*
Y749460D02*
D03*
X449580Y688180D02*
D03*
Y668180D02*
D03*
D83*
X408750Y758750D02*
D03*
Y742750D02*
D03*
X421500Y758750D02*
D03*
Y742750D02*
D03*
X693420Y709040D02*
D03*
Y693040D02*
D03*
X586740Y620140D02*
D03*
Y604140D02*
D03*
X558800Y627760D02*
D03*
Y611760D02*
D03*
X25146Y607314D02*
D03*
Y591314D02*
D03*
X227260Y487596D02*
D03*
Y471596D02*
D03*
X283140Y487596D02*
D03*
Y471596D02*
D03*
X668020Y804800D02*
D03*
Y820800D02*
D03*
X232732Y315436D02*
D03*
X232732Y331436D02*
D03*
X214952D02*
D03*
Y315436D02*
D03*
X149860Y668400D02*
D03*
Y652400D02*
D03*
X91440Y559560D02*
D03*
Y543560D02*
D03*
X210820Y658240D02*
D03*
Y642240D02*
D03*
X226060Y657860D02*
D03*
Y641860D02*
D03*
X193040Y658240D02*
D03*
Y642240D02*
D03*
X617000Y741500D02*
D03*
Y757500D02*
D03*
D84*
X512750Y754250D02*
D03*
D85*
X540250Y719900D02*
D03*
X535250D02*
D03*
X530250D02*
D03*
X525250D02*
D03*
X520250D02*
D03*
X515250D02*
D03*
X510250D02*
D03*
X505250D02*
D03*
X500250D02*
D03*
X495250D02*
D03*
X490250D02*
D03*
X485250D02*
D03*
Y788600D02*
D03*
X490250D02*
D03*
X495250D02*
D03*
X500250D02*
D03*
X505250D02*
D03*
X510250D02*
D03*
X515250D02*
D03*
X520250D02*
D03*
X525250D02*
D03*
X530250D02*
D03*
X535250D02*
D03*
X540250D02*
D03*
D86*
X478400Y726750D02*
D03*
Y731750D02*
D03*
Y736750D02*
D03*
Y741750D02*
D03*
Y746750D02*
D03*
Y751750D02*
D03*
Y756750D02*
D03*
Y761750D02*
D03*
Y766750D02*
D03*
Y771750D02*
D03*
Y776750D02*
D03*
Y781750D02*
D03*
X547100D02*
D03*
Y776750D02*
D03*
Y771750D02*
D03*
Y766750D02*
D03*
Y761750D02*
D03*
Y756750D02*
D03*
Y751750D02*
D03*
Y746750D02*
D03*
Y741750D02*
D03*
Y736750D02*
D03*
Y731750D02*
D03*
D87*
Y726750D02*
D03*
D88*
X121920Y810260D02*
D03*
D89*
X105420Y800260D02*
D03*
Y805260D02*
D03*
Y810260D02*
D03*
Y815260D02*
D03*
Y820260D02*
D03*
X138420D02*
D03*
Y815260D02*
D03*
Y810260D02*
D03*
Y805260D02*
D03*
Y800260D02*
D03*
D90*
X111920Y826760D02*
D03*
X116920D02*
D03*
X121920D02*
D03*
X131920D02*
D03*
Y793760D02*
D03*
X126920D02*
D03*
X121920D02*
D03*
X116920D02*
D03*
X126920Y826760D02*
D03*
D91*
X111920Y793760D02*
D03*
D92*
X440000Y784250D02*
D03*
X417250Y784500D02*
D03*
X157480Y726440D02*
D03*
X25400Y858520D02*
D03*
X137160Y909320D02*
D03*
X180340Y843280D02*
D03*
D93*
X673690Y710840D02*
D03*
X652190D02*
D03*
X673690Y665840D02*
D03*
X687160Y770340D02*
D03*
X708660D02*
D03*
X687160Y815340D02*
D03*
D94*
X652190Y665840D02*
D03*
X708660Y815340D02*
D03*
D95*
X447040Y703780D02*
D03*
Y728780D02*
D03*
D96*
X625600Y708660D02*
D03*
X609600D02*
D03*
X695960Y739140D02*
D03*
X679960D02*
D03*
X491721Y849213D02*
D03*
X475721D02*
D03*
X173100Y591820D02*
D03*
X157100D02*
D03*
X455550Y550926D02*
D03*
X471550D02*
D03*
X514842Y489528D02*
D03*
X498842D02*
D03*
X361682Y527628D02*
D03*
X377682D02*
D03*
X451342Y568268D02*
D03*
X435342D02*
D03*
X258700Y683260D02*
D03*
X274700D02*
D03*
X261492Y826516D02*
D03*
X245492D02*
D03*
X226060Y817880D02*
D03*
X210060D02*
D03*
X210186Y831088D02*
D03*
X226186D02*
D03*
X264160Y754380D02*
D03*
X248160D02*
D03*
X210060D02*
D03*
X226060D02*
D03*
X173480Y749300D02*
D03*
X157480D02*
D03*
X210060Y774700D02*
D03*
X226060D02*
D03*
Y797560D02*
D03*
X210060D02*
D03*
X145992Y381856D02*
D03*
X161992D02*
D03*
D97*
X624840Y667640D02*
D03*
D98*
Y683640D02*
D03*
D99*
X678180Y616400D02*
D03*
Y577400D02*
D03*
X665480Y616400D02*
D03*
Y577400D02*
D03*
X652780Y616400D02*
D03*
Y577400D02*
D03*
X640080Y616400D02*
D03*
Y577400D02*
D03*
X627380Y616400D02*
D03*
D100*
Y577400D02*
D03*
D101*
X73500Y934720D02*
D03*
X53500D02*
D03*
X174940Y861060D02*
D03*
X154940D02*
D03*
D102*
X520618Y831260D02*
D03*
Y840060D02*
D03*
Y870040D02*
D03*
Y878840D02*
D03*
D103*
X529418Y855980D02*
D03*
X520618D02*
D03*
D104*
X471500Y830500D02*
D03*
X491500D02*
D03*
X471750Y814250D02*
D03*
X491750D02*
D03*
X245200Y499916D02*
D03*
X265200D02*
D03*
X361000Y543560D02*
D03*
X381000D02*
D03*
X167480Y769620D02*
D03*
X147480D02*
D03*
X111600Y581660D02*
D03*
X91600D02*
D03*
X496522Y522548D02*
D03*
X476522D02*
D03*
X105892Y381856D02*
D03*
X125892D02*
D03*
X394922Y502228D02*
D03*
X374922D02*
D03*
D105*
X135890Y861060D02*
D03*
X103090D02*
D03*
X79080Y800440D02*
D03*
X46280D02*
D03*
D106*
X157990Y607470D02*
D03*
Y613970D02*
D03*
Y620470D02*
D03*
Y626970D02*
D03*
X215390D02*
D03*
Y620470D02*
D03*
Y613970D02*
D03*
D107*
Y607470D02*
D03*
D108*
X595200Y771780D02*
D03*
X573200Y787780D02*
D03*
Y771780D02*
D03*
D109*
X595200Y787780D02*
D03*
D110*
X476899Y697771D02*
D03*
X463399D02*
D03*
D111*
X242810Y482056D02*
D03*
D112*
Y472056D02*
D03*
X262510Y482056D02*
D03*
Y472056D02*
D03*
D113*
X252660Y477056D02*
D03*
D114*
X431002Y478778D02*
D03*
X476002Y500278D02*
D03*
Y478778D02*
D03*
X105372Y359586D02*
D03*
X60372Y338086D02*
D03*
Y359586D02*
D03*
D115*
X431002Y500278D02*
D03*
X105372Y338086D02*
D03*
D116*
X270732Y290376D02*
D03*
X251732D02*
D03*
X232732D02*
D03*
X213732D02*
D03*
X194732D02*
D03*
Y158376D02*
D03*
X213732D02*
D03*
X232732D02*
D03*
X251732D02*
D03*
X270732D02*
D03*
D117*
X298732Y262376D02*
D03*
X166732D02*
D03*
X298732Y243376D02*
D03*
X166732D02*
D03*
X298732Y224376D02*
D03*
X166732D02*
D03*
X298732Y205376D02*
D03*
X166732D02*
D03*
X298732Y186376D02*
D03*
X166732D02*
D03*
D118*
X65000Y894080D02*
D03*
X25400D02*
D03*
D119*
X78740Y645680D02*
D03*
Y685280D02*
D03*
X91440Y475500D02*
D03*
Y515100D02*
D03*
D120*
X292100Y683260D02*
D03*
D121*
X308100D02*
D03*
D122*
X402982Y550873D02*
D03*
X407982D02*
D03*
X412982D02*
D03*
X417982D02*
D03*
X422982D02*
D03*
X427982D02*
D03*
X432982D02*
D03*
X437982D02*
D03*
X442982D02*
D03*
Y519623D02*
D03*
X437982D02*
D03*
X432982D02*
D03*
X427982D02*
D03*
X422982D02*
D03*
X417982D02*
D03*
X412982D02*
D03*
X407982D02*
D03*
X402982D02*
D03*
X397982D02*
D03*
Y550873D02*
D03*
D123*
X443607Y542748D02*
D03*
Y537748D02*
D03*
Y532748D02*
D03*
Y527748D02*
D03*
X397357D02*
D03*
Y532748D02*
D03*
Y537748D02*
D03*
Y542748D02*
D03*
D124*
X361950Y971550D02*
D03*
Y946150D02*
D03*
Y920750D02*
D03*
Y895350D02*
D03*
Y844550D02*
D03*
Y869950D02*
D03*
X25400Y960120D02*
D03*
X262636Y399034D02*
D03*
X237236D02*
D03*
X211836D02*
D03*
X186436D02*
D03*
X255016Y658368D02*
D03*
Y632968D02*
D03*
X164592Y542036D02*
D03*
Y516636D02*
D03*
Y491236D02*
D03*
Y465836D02*
D03*
X229800Y552054D02*
D03*
X255200D02*
D03*
X280600D02*
D03*
X306000D02*
D03*
X459740Y607060D02*
D03*
X434340D02*
D03*
X408940D02*
D03*
X383540D02*
D03*
X266700Y708660D02*
D03*
X292100D02*
D03*
X25400Y670560D02*
D03*
D125*
X41986Y528014D02*
D03*
Y478014D02*
D03*
D126*
X14986Y538014D02*
D03*
Y468014D02*
D03*
D127*
X25400Y934720D02*
D03*
Y645160D02*
D03*
D128*
X123308Y678560D02*
D03*
Y653160D02*
D03*
D129*
Y627760D02*
D03*
M02*
