G04*
G04 #@! TF.GenerationSoftware,Altium Limited,Altium Designer,22.9.1 (49)*
G04*
G04 Layer_Physical_Order=1*
G04 Layer_Color=255*
%FSLAX44Y44*%
%MOMM*%
G71*
G04*
G04 #@! TF.SameCoordinates,0914E3C7-33D6-4C2E-B1A8-6EB065383EFC*
G04*
G04*
G04 #@! TF.FilePolarity,Positive*
G04*
G01*
G75*
%ADD10C,0.1524*%
%ADD11C,0.2540*%
%ADD14C,0.5080*%
%ADD23C,0.2032*%
%ADD27R,0.8000X0.8000*%
G04:AMPARAMS|DCode=33|XSize=0.4mm|YSize=1.35mm|CornerRadius=0.1mm|HoleSize=0mm|Usage=FLASHONLY|Rotation=270.000|XOffset=0mm|YOffset=0mm|HoleType=Round|Shape=RoundedRectangle|*
%AMROUNDEDRECTD33*
21,1,0.4000,1.1500,0,0,270.0*
21,1,0.2000,1.3500,0,0,270.0*
1,1,0.2000,-0.5750,-0.1000*
1,1,0.2000,-0.5750,0.1000*
1,1,0.2000,0.5750,0.1000*
1,1,0.2000,0.5750,-0.1000*
%
%ADD33ROUNDEDRECTD33*%
G04:AMPARAMS|DCode=34|XSize=1.5mm|YSize=1.55mm|CornerRadius=0.375mm|HoleSize=0mm|Usage=FLASHONLY|Rotation=270.000|XOffset=0mm|YOffset=0mm|HoleType=Round|Shape=RoundedRectangle|*
%AMROUNDEDRECTD34*
21,1,1.5000,0.8000,0,0,270.0*
21,1,0.7500,1.5500,0,0,270.0*
1,1,0.7500,-0.4000,-0.3750*
1,1,0.7500,-0.4000,0.3750*
1,1,0.7500,0.4000,0.3750*
1,1,0.7500,0.4000,-0.3750*
%
%ADD34ROUNDEDRECTD34*%
G04:AMPARAMS|DCode=35|XSize=1.2mm|YSize=1mm|CornerRadius=0.25mm|HoleSize=0mm|Usage=FLASHONLY|Rotation=180.000|XOffset=0mm|YOffset=0mm|HoleType=Round|Shape=RoundedRectangle|*
%AMROUNDEDRECTD35*
21,1,1.2000,0.5000,0,0,180.0*
21,1,0.7000,1.0000,0,0,180.0*
1,1,0.5000,-0.3500,0.2500*
1,1,0.5000,0.3500,0.2500*
1,1,0.5000,0.3500,-0.2500*
1,1,0.5000,-0.3500,-0.2500*
%
%ADD35ROUNDEDRECTD35*%
G04:AMPARAMS|DCode=36|XSize=0.4mm|YSize=0.8mm|CornerRadius=0.1mm|HoleSize=0mm|Usage=FLASHONLY|Rotation=0.000|XOffset=0mm|YOffset=0mm|HoleType=Round|Shape=RoundedRectangle|*
%AMROUNDEDRECTD36*
21,1,0.4000,0.6000,0,0,0.0*
21,1,0.2000,0.8000,0,0,0.0*
1,1,0.2000,0.1000,-0.3000*
1,1,0.2000,-0.1000,-0.3000*
1,1,0.2000,-0.1000,0.3000*
1,1,0.2000,0.1000,0.3000*
%
%ADD36ROUNDEDRECTD36*%
G04:AMPARAMS|DCode=37|XSize=0.3mm|YSize=0.8mm|CornerRadius=0.075mm|HoleSize=0mm|Usage=FLASHONLY|Rotation=0.000|XOffset=0mm|YOffset=0mm|HoleType=Round|Shape=RoundedRectangle|*
%AMROUNDEDRECTD37*
21,1,0.3000,0.6500,0,0,0.0*
21,1,0.1500,0.8000,0,0,0.0*
1,1,0.1500,0.0750,-0.3250*
1,1,0.1500,-0.0750,-0.3250*
1,1,0.1500,-0.0750,0.3250*
1,1,0.1500,0.0750,0.3250*
%
%ADD37ROUNDEDRECTD37*%
%ADD38R,0.3000X0.8000*%
G04:AMPARAMS|DCode=39|XSize=1.4mm|YSize=0.8mm|CornerRadius=0.2mm|HoleSize=0mm|Usage=FLASHONLY|Rotation=0.000|XOffset=0mm|YOffset=0mm|HoleType=Round|Shape=RoundedRectangle|*
%AMROUNDEDRECTD39*
21,1,1.4000,0.4000,0,0,0.0*
21,1,1.0000,0.8000,0,0,0.0*
1,1,0.4000,0.5000,-0.2000*
1,1,0.4000,-0.5000,-0.2000*
1,1,0.4000,-0.5000,0.2000*
1,1,0.4000,0.5000,0.2000*
%
%ADD39ROUNDEDRECTD39*%
G04:AMPARAMS|DCode=40|XSize=0.9mm|YSize=0.9mm|CornerRadius=0.225mm|HoleSize=0mm|Usage=FLASHONLY|Rotation=180.000|XOffset=0mm|YOffset=0mm|HoleType=Round|Shape=RoundedRectangle|*
%AMROUNDEDRECTD40*
21,1,0.9000,0.4500,0,0,180.0*
21,1,0.4500,0.9000,0,0,180.0*
1,1,0.4500,-0.2250,0.2250*
1,1,0.4500,0.2250,0.2250*
1,1,0.4500,0.2250,-0.2250*
1,1,0.4500,-0.2250,-0.2250*
%
%ADD40ROUNDEDRECTD40*%
G04:AMPARAMS|DCode=41|XSize=0.26mm|YSize=0.86mm|CornerRadius=0.065mm|HoleSize=0mm|Usage=FLASHONLY|Rotation=180.000|XOffset=0mm|YOffset=0mm|HoleType=Round|Shape=RoundedRectangle|*
%AMROUNDEDRECTD41*
21,1,0.2600,0.7300,0,0,180.0*
21,1,0.1300,0.8600,0,0,180.0*
1,1,0.1300,-0.0650,0.3650*
1,1,0.1300,0.0650,0.3650*
1,1,0.1300,0.0650,-0.3650*
1,1,0.1300,-0.0650,-0.3650*
%
%ADD41ROUNDEDRECTD41*%
G04:AMPARAMS|DCode=42|XSize=0.26mm|YSize=0.86mm|CornerRadius=0.065mm|HoleSize=0mm|Usage=FLASHONLY|Rotation=270.000|XOffset=0mm|YOffset=0mm|HoleType=Round|Shape=RoundedRectangle|*
%AMROUNDEDRECTD42*
21,1,0.2600,0.7300,0,0,270.0*
21,1,0.1300,0.8600,0,0,270.0*
1,1,0.1300,-0.3650,-0.0650*
1,1,0.1300,-0.3650,0.0650*
1,1,0.1300,0.3650,0.0650*
1,1,0.1300,0.3650,-0.0650*
%
%ADD42ROUNDEDRECTD42*%
%ADD43R,0.8600X0.2600*%
G04:AMPARAMS|DCode=45|XSize=0.24mm|YSize=0.6mm|CornerRadius=0.06mm|HoleSize=0mm|Usage=FLASHONLY|Rotation=90.000|XOffset=0mm|YOffset=0mm|HoleType=Round|Shape=RoundedRectangle|*
%AMROUNDEDRECTD45*
21,1,0.2400,0.4800,0,0,90.0*
21,1,0.1200,0.6000,0,0,90.0*
1,1,0.1200,0.2400,0.0600*
1,1,0.1200,0.2400,-0.0600*
1,1,0.1200,-0.2400,-0.0600*
1,1,0.1200,-0.2400,0.0600*
%
%ADD45ROUNDEDRECTD45*%
G04:AMPARAMS|DCode=46|XSize=0.24mm|YSize=0.6mm|CornerRadius=0.06mm|HoleSize=0mm|Usage=FLASHONLY|Rotation=180.000|XOffset=0mm|YOffset=0mm|HoleType=Round|Shape=RoundedRectangle|*
%AMROUNDEDRECTD46*
21,1,0.2400,0.4800,0,0,180.0*
21,1,0.1200,0.6000,0,0,180.0*
1,1,0.1200,-0.0600,0.2400*
1,1,0.1200,0.0600,0.2400*
1,1,0.1200,0.0600,-0.2400*
1,1,0.1200,-0.0600,-0.2400*
%
%ADD46ROUNDEDRECTD46*%
%ADD47R,0.2400X0.6000*%
G04:AMPARAMS|DCode=48|XSize=1.016mm|YSize=1.016mm|CornerRadius=0.254mm|HoleSize=0mm|Usage=FLASHONLY|Rotation=0.000|XOffset=0mm|YOffset=0mm|HoleType=Round|Shape=RoundedRectangle|*
%AMROUNDEDRECTD48*
21,1,1.0160,0.5080,0,0,0.0*
21,1,0.5080,1.0160,0,0,0.0*
1,1,0.5080,0.2540,-0.2540*
1,1,0.5080,-0.2540,-0.2540*
1,1,0.5080,-0.2540,0.2540*
1,1,0.5080,0.2540,0.2540*
%
%ADD48ROUNDEDRECTD48*%
G04:AMPARAMS|DCode=49|XSize=2mm|YSize=0.7mm|CornerRadius=0.175mm|HoleSize=0mm|Usage=FLASHONLY|Rotation=90.000|XOffset=0mm|YOffset=0mm|HoleType=Round|Shape=RoundedRectangle|*
%AMROUNDEDRECTD49*
21,1,2.0000,0.3500,0,0,90.0*
21,1,1.6500,0.7000,0,0,90.0*
1,1,0.3500,0.1750,0.8250*
1,1,0.3500,0.1750,-0.8250*
1,1,0.3500,-0.1750,-0.8250*
1,1,0.3500,-0.1750,0.8250*
%
%ADD49ROUNDEDRECTD49*%
%ADD50R,0.7000X2.0000*%
%ADD51R,1.9000X1.1000*%
G04:AMPARAMS|DCode=52|XSize=0.9mm|YSize=0.9mm|CornerRadius=0.225mm|HoleSize=0mm|Usage=FLASHONLY|Rotation=90.000|XOffset=0mm|YOffset=0mm|HoleType=Round|Shape=RoundedRectangle|*
%AMROUNDEDRECTD52*
21,1,0.9000,0.4500,0,0,90.0*
21,1,0.4500,0.9000,0,0,90.0*
1,1,0.4500,0.2250,0.2250*
1,1,0.4500,0.2250,-0.2250*
1,1,0.4500,-0.2250,-0.2250*
1,1,0.4500,-0.2250,0.2250*
%
%ADD52ROUNDEDRECTD52*%
G04:AMPARAMS|DCode=53|XSize=0.8mm|YSize=0.8mm|CornerRadius=0.2mm|HoleSize=0mm|Usage=FLASHONLY|Rotation=180.000|XOffset=0mm|YOffset=0mm|HoleType=Round|Shape=RoundedRectangle|*
%AMROUNDEDRECTD53*
21,1,0.8000,0.4000,0,0,180.0*
21,1,0.4000,0.8000,0,0,180.0*
1,1,0.4000,-0.2000,0.2000*
1,1,0.4000,0.2000,0.2000*
1,1,0.4000,0.2000,-0.2000*
1,1,0.4000,-0.2000,-0.2000*
%
%ADD53ROUNDEDRECTD53*%
G04:AMPARAMS|DCode=54|XSize=0.76mm|YSize=2.4mm|CornerRadius=0.19mm|HoleSize=0mm|Usage=FLASHONLY|Rotation=0.000|XOffset=0mm|YOffset=0mm|HoleType=Round|Shape=RoundedRectangle|*
%AMROUNDEDRECTD54*
21,1,0.7600,2.0200,0,0,0.0*
21,1,0.3800,2.4000,0,0,0.0*
1,1,0.3800,0.1900,-1.0100*
1,1,0.3800,-0.1900,-1.0100*
1,1,0.3800,-0.1900,1.0100*
1,1,0.3800,0.1900,1.0100*
%
%ADD54ROUNDEDRECTD54*%
%ADD55R,0.7600X2.4000*%
G04:AMPARAMS|DCode=56|XSize=1.4mm|YSize=0.8mm|CornerRadius=0.2mm|HoleSize=0mm|Usage=FLASHONLY|Rotation=270.000|XOffset=0mm|YOffset=0mm|HoleType=Round|Shape=RoundedRectangle|*
%AMROUNDEDRECTD56*
21,1,1.4000,0.4000,0,0,270.0*
21,1,1.0000,0.8000,0,0,270.0*
1,1,0.4000,-0.2000,-0.5000*
1,1,0.4000,-0.2000,0.5000*
1,1,0.4000,0.2000,0.5000*
1,1,0.4000,0.2000,-0.5000*
%
%ADD56ROUNDEDRECTD56*%
G04:AMPARAMS|DCode=57|XSize=0.62mm|YSize=0.66mm|CornerRadius=0.155mm|HoleSize=0mm|Usage=FLASHONLY|Rotation=180.000|XOffset=0mm|YOffset=0mm|HoleType=Round|Shape=RoundedRectangle|*
%AMROUNDEDRECTD57*
21,1,0.6200,0.3500,0,0,180.0*
21,1,0.3100,0.6600,0,0,180.0*
1,1,0.3100,-0.1550,0.1750*
1,1,0.3100,0.1550,0.1750*
1,1,0.3100,0.1550,-0.1750*
1,1,0.3100,-0.1550,-0.1750*
%
%ADD57ROUNDEDRECTD57*%
G04:AMPARAMS|DCode=58|XSize=0.62mm|YSize=0.66mm|CornerRadius=0.155mm|HoleSize=0mm|Usage=FLASHONLY|Rotation=90.000|XOffset=0mm|YOffset=0mm|HoleType=Round|Shape=RoundedRectangle|*
%AMROUNDEDRECTD58*
21,1,0.6200,0.3500,0,0,90.0*
21,1,0.3100,0.6600,0,0,90.0*
1,1,0.3100,0.1750,0.1550*
1,1,0.3100,0.1750,-0.1550*
1,1,0.3100,-0.1750,-0.1550*
1,1,0.3100,-0.1750,0.1550*
%
%ADD58ROUNDEDRECTD58*%
G04:AMPARAMS|DCode=59|XSize=1.2mm|YSize=1mm|CornerRadius=0.25mm|HoleSize=0mm|Usage=FLASHONLY|Rotation=270.000|XOffset=0mm|YOffset=0mm|HoleType=Round|Shape=RoundedRectangle|*
%AMROUNDEDRECTD59*
21,1,1.2000,0.5000,0,0,270.0*
21,1,0.7000,1.0000,0,0,270.0*
1,1,0.5000,-0.2500,-0.3500*
1,1,0.5000,-0.2500,0.3500*
1,1,0.5000,0.2500,0.3500*
1,1,0.5000,0.2500,-0.3500*
%
%ADD59ROUNDEDRECTD59*%
%ADD60R,1.4500X3.8900*%
G04:AMPARAMS|DCode=61|XSize=1.57mm|YSize=0.41mm|CornerRadius=0.0513mm|HoleSize=0mm|Usage=FLASHONLY|Rotation=180.000|XOffset=0mm|YOffset=0mm|HoleType=Round|Shape=RoundedRectangle|*
%AMROUNDEDRECTD61*
21,1,1.5700,0.3075,0,0,180.0*
21,1,1.4675,0.4100,0,0,180.0*
1,1,0.1025,-0.7338,0.1538*
1,1,0.1025,0.7338,0.1538*
1,1,0.1025,0.7338,-0.1538*
1,1,0.1025,-0.7338,-0.1538*
%
%ADD61ROUNDEDRECTD61*%
%ADD62R,1.5700X0.4100*%
G04:AMPARAMS|DCode=63|XSize=1.4mm|YSize=1.1mm|CornerRadius=0.275mm|HoleSize=0mm|Usage=FLASHONLY|Rotation=0.000|XOffset=0mm|YOffset=0mm|HoleType=Round|Shape=RoundedRectangle|*
%AMROUNDEDRECTD63*
21,1,1.4000,0.5500,0,0,0.0*
21,1,0.8500,1.1000,0,0,0.0*
1,1,0.5500,0.4250,-0.2750*
1,1,0.5500,-0.4250,-0.2750*
1,1,0.5500,-0.4250,0.2750*
1,1,0.5500,0.4250,0.2750*
%
%ADD63ROUNDEDRECTD63*%
%ADD64R,1.4000X1.1000*%
%ADD65R,0.6500X1.6000*%
%ADD66R,0.7500X0.3500*%
G04:AMPARAMS|DCode=67|XSize=0.35mm|YSize=0.75mm|CornerRadius=0.0875mm|HoleSize=0mm|Usage=FLASHONLY|Rotation=90.000|XOffset=0mm|YOffset=0mm|HoleType=Round|Shape=RoundedRectangle|*
%AMROUNDEDRECTD67*
21,1,0.3500,0.5750,0,0,90.0*
21,1,0.1750,0.7500,0,0,90.0*
1,1,0.1750,0.2875,0.0875*
1,1,0.1750,0.2875,-0.0875*
1,1,0.1750,-0.2875,-0.0875*
1,1,0.1750,-0.2875,0.0875*
%
%ADD67ROUNDEDRECTD67*%
G04:AMPARAMS|DCode=68|XSize=2mm|YSize=0.7mm|CornerRadius=0.175mm|HoleSize=0mm|Usage=FLASHONLY|Rotation=0.000|XOffset=0mm|YOffset=0mm|HoleType=Round|Shape=RoundedRectangle|*
%AMROUNDEDRECTD68*
21,1,2.0000,0.3500,0,0,0.0*
21,1,1.6500,0.7000,0,0,0.0*
1,1,0.3500,0.8250,-0.1750*
1,1,0.3500,-0.8250,-0.1750*
1,1,0.3500,-0.8250,0.1750*
1,1,0.3500,0.8250,0.1750*
%
%ADD68ROUNDEDRECTD68*%
%ADD69R,2.0000X0.7000*%
%ADD70R,1.5000X2.2000*%
%ADD71R,2.2000X1.5000*%
G04:AMPARAMS|DCode=72|XSize=0.8mm|YSize=0.8mm|CornerRadius=0.2mm|HoleSize=0mm|Usage=FLASHONLY|Rotation=270.000|XOffset=0mm|YOffset=0mm|HoleType=Round|Shape=RoundedRectangle|*
%AMROUNDEDRECTD72*
21,1,0.8000,0.4000,0,0,270.0*
21,1,0.4000,0.8000,0,0,270.0*
1,1,0.4000,-0.2000,-0.2000*
1,1,0.4000,-0.2000,0.2000*
1,1,0.4000,0.2000,0.2000*
1,1,0.4000,0.2000,-0.2000*
%
%ADD72ROUNDEDRECTD72*%
%ADD73R,0.8000X0.8000*%
%ADD74R,0.3000X0.5250*%
%ADD75R,0.4250X0.3000*%
%ADD130R,4.7000X4.7000*%
%ADD131R,2.0500X2.0500*%
%ADD132R,1.0160X8.3312*%
%ADD133R,19.8628X0.9906*%
%ADD134R,0.7000X1.6000*%
%ADD135R,1.5000X1.8000*%
%ADD136R,1.8000X1.5000*%
%ADD137C,0.6350*%
%ADD138C,1.5240*%
%ADD139O,0.8128X1.3000*%
%ADD140O,1.5500X0.8128*%
%ADD141R,1.5240X1.5240*%
%ADD142C,1.6000*%
%ADD143R,1.6000X1.6000*%
%ADD144C,0.6350*%
%ADD145C,0.5588*%
%ADD146C,0.5000*%
G36*
X253349Y915984D02*
X251198Y914902D01*
X249402Y916698D01*
X250484Y918849D01*
X253349Y915984D01*
D02*
G37*
G36*
X246340Y911650D02*
X243800D01*
X243273Y917135D01*
X246867D01*
X246340Y911650D01*
D02*
G37*
G36*
X741680Y828040D02*
X586740D01*
X554080Y795380D01*
X525177D01*
X524498Y796650D01*
X524676Y796917D01*
X525041Y798750D01*
Y828277D01*
X525302Y828538D01*
Y839523D01*
X525409Y840060D01*
Y849609D01*
X526679Y850457D01*
X527668Y850260D01*
X528148D01*
Y855980D01*
Y861700D01*
X527668D01*
X526679Y861503D01*
X525409Y862351D01*
Y867750D01*
X525500D01*
Y881000D01*
X525409D01*
Y896874D01*
X527558D01*
Y899160D01*
X741680D01*
Y828040D01*
D02*
G37*
G36*
X160528Y892556D02*
Y841756D01*
X124206D01*
X118711Y836261D01*
X118618Y835293D01*
Y830768D01*
X118362Y830385D01*
X118118Y829160D01*
Y824360D01*
X117595Y823722D01*
X115824D01*
Y830840D01*
X115650D01*
X115123Y836325D01*
X115824D01*
Y893064D01*
X160020D01*
X160528Y892556D01*
D02*
G37*
G36*
X99030Y818210D02*
X96490D01*
X95963Y823695D01*
X99558D01*
X99030Y818210D01*
D02*
G37*
G36*
X109474Y892048D02*
X110490Y891268D01*
Y840994D01*
X108500D01*
Y819043D01*
X107820Y818026D01*
X103020D01*
X102281Y819004D01*
X101768Y824806D01*
X101904Y825490D01*
X101589Y827075D01*
X101564Y827112D01*
X100951Y834049D01*
X94996Y840004D01*
Y892048D01*
X109474D01*
D02*
G37*
G36*
X94959Y805978D02*
X93522Y804542D01*
X91054Y805575D01*
X93925Y808446D01*
X94959Y805978D01*
D02*
G37*
G36*
X474980Y899160D02*
X514350D01*
Y896874D01*
X515827D01*
Y881000D01*
X515750D01*
Y867750D01*
X515827D01*
Y857998D01*
X515734Y857530D01*
Y854430D01*
X515827Y853962D01*
Y840060D01*
X515872Y839833D01*
X515618Y839523D01*
X515618D01*
Y831692D01*
X515459Y830892D01*
Y802697D01*
X514189Y802171D01*
X502640Y813720D01*
X501296Y814618D01*
X499710Y814934D01*
X498353D01*
Y817750D01*
X498231Y818364D01*
X498103Y827408D01*
Y834000D01*
X498003Y834504D01*
X497819Y847479D01*
Y851463D01*
X497758Y851768D01*
X497692Y856500D01*
X396240D01*
Y992876D01*
X474980D01*
Y899160D01*
D02*
G37*
G36*
X516148Y796148D02*
X514352Y794352D01*
X512148Y795485D01*
X515015Y798352D01*
X516148Y796148D01*
D02*
G37*
G36*
X521520Y789490D02*
X518980D01*
X518004Y796506D01*
X522496D01*
X521520Y789490D01*
D02*
G37*
G36*
X123195Y786113D02*
X123448Y782290D01*
X123527Y781963D01*
X123617Y781725D01*
X123717Y781575D01*
X120123D01*
X120223Y781725D01*
X120313Y781963D01*
X120392Y782290D01*
X120460Y782706D01*
X120566Y783803D01*
X120645Y786113D01*
X120650Y787060D01*
X123190D01*
X123195Y786113D01*
D02*
G37*
G36*
X86000Y803000D02*
X87500Y801500D01*
X102811D01*
X103020Y801459D01*
X107500D01*
X108321Y800396D01*
X108180Y799300D01*
X107241Y798500D01*
X100330D01*
Y792988D01*
X88432Y781090D01*
X70806D01*
X70606Y781050D01*
X66802D01*
Y819791D01*
X86000D01*
Y803000D01*
D02*
G37*
G36*
X557828Y766769D02*
X554981Y763922D01*
X554102Y765852D01*
X555898Y767648D01*
X557828Y766769D01*
D02*
G37*
G36*
X55608Y818890D02*
X55220Y759460D01*
X28448D01*
Y760476D01*
Y819791D01*
X54713D01*
X55608Y818890D01*
D02*
G37*
G36*
X477530Y738020D02*
Y735480D01*
X472045Y734953D01*
Y738547D01*
X477530Y738020D01*
D02*
G37*
G36*
X491231Y715730D02*
X491050Y714733D01*
X490515Y713932D01*
X490121Y711950D01*
Y698193D01*
X489250Y696858D01*
X484000Y688492D01*
X474258D01*
X472500Y690250D01*
Y706742D01*
X479366D01*
X486807Y713178D01*
X487145Y713245D01*
X488200Y713950D01*
X488734Y714750D01*
X489250D01*
Y716558D01*
X490520Y716761D01*
X491231Y715730D01*
D02*
G37*
G36*
X497097Y713745D02*
X496750D01*
Y693250D01*
X499000Y691000D01*
X501458D01*
X501651Y690871D01*
X503138Y690575D01*
X516328D01*
X517250Y689653D01*
Y680250D01*
X494250D01*
Y713745D01*
X493503D01*
X494538Y719453D01*
X496062D01*
X497097Y713745D01*
D02*
G37*
G36*
X467154Y682964D02*
X469017Y681101D01*
X464439Y676523D01*
X433705Y677043D01*
X428000Y685750D01*
Y692750D01*
X430430Y695180D01*
X459080D01*
Y695740D01*
Y706418D01*
X459404Y706742D01*
X467154D01*
Y682964D01*
D02*
G37*
G36*
X501548Y698856D02*
X503154Y697250D01*
X518394D01*
X524644Y691000D01*
X538750D01*
Y690575D01*
Y679500D01*
X538192Y678942D01*
X534890Y675640D01*
X523630D01*
Y654630D01*
X515500Y646500D01*
X515000Y647000D01*
X490750D01*
X487000Y650750D01*
X481250D01*
X480030Y651970D01*
Y654860D01*
X479981Y654980D01*
X480829Y656250D01*
X492500D01*
Y652500D01*
X509085D01*
X509565Y652301D01*
X511435D01*
X511915Y652500D01*
X513750D01*
X520000Y658750D01*
Y678942D01*
X519938D01*
Y691532D01*
X519486Y692912D01*
X501548D01*
X499444Y695016D01*
Y711950D01*
X499128Y713536D01*
X499110Y713563D01*
Y719900D01*
X501548D01*
Y698856D01*
D02*
G37*
G36*
X573750Y684139D02*
Y675000D01*
X561750D01*
X559500Y672750D01*
Y649250D01*
X552250Y642000D01*
X552000Y642250D01*
X522750D01*
X519750Y639250D01*
X483000D01*
X479750Y642500D01*
X465500D01*
Y646586D01*
X466413Y647468D01*
X472706Y647250D01*
X486750D01*
X489250Y644750D01*
X516750D01*
X521250Y649250D01*
X530335D01*
X530815Y649051D01*
X532685D01*
X533165Y649250D01*
X545335D01*
X545815Y649051D01*
X547685D01*
X548165Y649250D01*
X551000D01*
X555750Y654000D01*
Y685500D01*
X572389D01*
X573750Y684139D01*
D02*
G37*
G36*
X150484Y621740D02*
Y619200D01*
X144999Y618673D01*
Y622267D01*
X150484Y621740D01*
D02*
G37*
G36*
X169322Y612173D02*
X163838Y612700D01*
Y615240D01*
X169322Y615767D01*
Y612173D01*
D02*
G37*
G36*
X392428Y541370D02*
Y538830D01*
X388959Y538085D01*
Y542115D01*
X392428Y541370D01*
D02*
G37*
G36*
X414581Y504915D02*
X410986D01*
X411514Y510400D01*
X414054D01*
X414581Y504915D01*
D02*
G37*
G36*
X436314Y11369D02*
X435141Y10883D01*
X435044Y10980D01*
X15240D01*
Y431800D01*
X174138D01*
X203337Y402601D01*
X203315Y402564D01*
X202692Y400238D01*
Y397830D01*
X203315Y395504D01*
X204519Y393419D01*
X206222Y391717D01*
X208307Y390513D01*
X210632Y389890D01*
X211063D01*
Y337130D01*
X209981Y336407D01*
X209147Y335159D01*
X208854Y333686D01*
Y329186D01*
X209147Y327713D01*
X209981Y326465D01*
X211229Y325631D01*
X212702Y325338D01*
X217202D01*
X218675Y325631D01*
X219923Y326465D01*
X220757Y327713D01*
X221050Y329186D01*
Y333686D01*
X220757Y335159D01*
X219923Y336407D01*
X218675Y337241D01*
X217202Y337534D01*
X215725D01*
Y390721D01*
X217451Y391717D01*
X219153Y393419D01*
X220357Y395504D01*
X220980Y397830D01*
Y400238D01*
X220357Y402564D01*
X219153Y404649D01*
X217451Y406351D01*
X215366Y407555D01*
X213040Y408178D01*
X210632D01*
X208307Y407555D01*
X206222Y406351D01*
X206201Y406330D01*
X184646Y427884D01*
X185173Y429154D01*
X203819D01*
X229336Y403638D01*
X228715Y402564D01*
X228092Y400238D01*
Y397830D01*
X228715Y395504D01*
X229919Y393419D01*
X231621Y391717D01*
X233706Y390513D01*
X234905Y390192D01*
Y337711D01*
X234729Y337534D01*
X230482D01*
X229009Y337241D01*
X227761Y336407D01*
X226927Y335159D01*
X226634Y333686D01*
Y329186D01*
X226927Y327713D01*
X227761Y326465D01*
X229009Y325631D01*
X230482Y325338D01*
X234982D01*
X236455Y325631D01*
X237703Y326465D01*
X238537Y327713D01*
X238830Y329186D01*
Y333686D01*
X238605Y334818D01*
X238884Y335097D01*
X239389Y335853D01*
X239567Y336745D01*
Y390192D01*
X240765Y390513D01*
X242850Y391717D01*
X244553Y393419D01*
X245757Y395504D01*
X246380Y397830D01*
Y400238D01*
X245757Y402564D01*
X244553Y404649D01*
X242850Y406351D01*
X240765Y407555D01*
X238440Y408178D01*
X236032D01*
X233706Y407555D01*
X232632Y406934D01*
X208939Y430627D01*
X209426Y431800D01*
X436314D01*
Y11369D01*
D02*
G37*
%LPC*%
G36*
X531168Y861700D02*
X530688D01*
Y857250D01*
X535338D01*
Y857530D01*
X535021Y859126D01*
X534117Y860479D01*
X532764Y861383D01*
X531168Y861700D01*
D02*
G37*
G36*
X535338Y854710D02*
X530688D01*
Y850260D01*
X531168D01*
X532764Y850577D01*
X534117Y851481D01*
X535021Y852834D01*
X535338Y854430D01*
Y854710D01*
D02*
G37*
G36*
X79080Y805620D02*
X77098Y805226D01*
X75418Y804103D01*
X74295Y802422D01*
X73901Y800440D01*
X74295Y798458D01*
X75418Y796778D01*
X76572Y795624D01*
X78253Y794501D01*
X80235Y794107D01*
X82217Y794501D01*
X83897Y795624D01*
X85020Y797304D01*
X85414Y799286D01*
X85020Y801268D01*
X83897Y802949D01*
X82743Y804103D01*
X81062Y805226D01*
X79080Y805620D01*
D02*
G37*
G36*
X263974Y409194D02*
X263906D01*
Y400304D01*
X272796D01*
Y400372D01*
X272104Y402956D01*
X270766Y405272D01*
X268874Y407164D01*
X266558Y408502D01*
X263974Y409194D01*
D02*
G37*
G36*
X261366D02*
X261298D01*
X258714Y408502D01*
X256398Y407164D01*
X254506Y405272D01*
X253168Y402956D01*
X252476Y400372D01*
Y400304D01*
X261366D01*
Y409194D01*
D02*
G37*
G36*
X187640Y408178D02*
X185232D01*
X182906Y407555D01*
X180821Y406351D01*
X179119Y404649D01*
X178270Y403178D01*
X40408D01*
X38822Y402862D01*
X37478Y401964D01*
X34502Y398988D01*
X33604Y397644D01*
X33288Y396058D01*
Y163736D01*
X33604Y162150D01*
X34502Y160806D01*
X68952Y126356D01*
X70296Y125458D01*
X71882Y125142D01*
X139902D01*
X141488Y125458D01*
X142832Y126356D01*
X147173Y130697D01*
X208028D01*
X208551Y129915D01*
X209882Y129025D01*
X211452Y128713D01*
X218452D01*
X220022Y129025D01*
X221353Y129915D01*
X222243Y131246D01*
X222244Y131252D01*
X228084D01*
X228871Y130075D01*
X230202Y129185D01*
X231772Y128873D01*
X238772D01*
X240342Y129185D01*
X241673Y130075D01*
X242563Y131406D01*
X242875Y132976D01*
Y137976D01*
X242563Y139546D01*
X241673Y140877D01*
X240342Y141767D01*
X238772Y142079D01*
X236876D01*
Y147852D01*
X241692D01*
Y146836D01*
X250462D01*
Y158376D01*
Y169916D01*
X241692D01*
Y168900D01*
X223708D01*
Y168900D01*
X222756D01*
Y168900D01*
X204772D01*
Y169916D01*
X196002D01*
Y158376D01*
X194732D01*
Y157106D01*
X184692D01*
Y146836D01*
X192301D01*
Y143096D01*
X192479Y142204D01*
X192984Y141448D01*
X193740Y140943D01*
X194632Y140765D01*
X195524Y140943D01*
X196280Y141448D01*
X196785Y142204D01*
X196963Y143096D01*
Y146836D01*
X204772D01*
Y147852D01*
X210198D01*
Y141669D01*
X209882Y141607D01*
X208551Y140717D01*
X207661Y139386D01*
X207582Y138985D01*
X145457D01*
X145457Y138985D01*
X143871Y138669D01*
X142527Y137771D01*
X138186Y133430D01*
X73598D01*
X41576Y165452D01*
Y394342D01*
X42124Y394890D01*
X157848D01*
Y387380D01*
X157021Y386827D01*
X156187Y385579D01*
X155894Y384106D01*
Y379606D01*
X156187Y378134D01*
X157021Y376885D01*
X157848Y376332D01*
Y356012D01*
X133282Y331446D01*
X132384Y330102D01*
X132068Y328516D01*
Y247589D01*
X131212D01*
X129837Y247316D01*
X128671Y246537D01*
X127893Y245371D01*
X127619Y243996D01*
Y239996D01*
X127893Y238621D01*
X128671Y237455D01*
X129837Y236677D01*
X131212Y236403D01*
X141212D01*
X142587Y236677D01*
X143753Y237455D01*
X144479Y238542D01*
X156208D01*
Y234670D01*
X156208Y234352D01*
Y233400D01*
X156208Y233082D01*
Y223394D01*
X155447Y223242D01*
X154691Y222737D01*
X140881Y208927D01*
X107703D01*
Y333062D01*
X116896D01*
Y339814D01*
X127540Y350458D01*
X128045Y351214D01*
X128223Y352106D01*
Y374253D01*
X128392D01*
X129962Y374566D01*
X131293Y375455D01*
X132183Y376786D01*
X132495Y378356D01*
Y379525D01*
X139910D01*
X140187Y378134D01*
X141021Y376885D01*
X142269Y376051D01*
X143742Y375758D01*
X148242D01*
X149715Y376051D01*
X150963Y376885D01*
X151797Y378134D01*
X152090Y379606D01*
Y384106D01*
X151797Y385579D01*
X150963Y386827D01*
X149715Y387661D01*
X148242Y387954D01*
X143742D01*
X142269Y387661D01*
X141021Y386827D01*
X140187Y385579D01*
X139910Y384187D01*
X132495D01*
Y385356D01*
X132183Y386926D01*
X131293Y388257D01*
X129962Y389146D01*
X128392Y389459D01*
X123392D01*
X121822Y389146D01*
X120491Y388257D01*
X119601Y386926D01*
X119289Y385356D01*
Y378356D01*
X119601Y376786D01*
X120491Y375455D01*
X121822Y374566D01*
X123392Y374253D01*
X123561D01*
Y353072D01*
X113600Y343110D01*
X93848D01*
Y340417D01*
X71845D01*
X71706Y341113D01*
X70982Y342196D01*
X69899Y342920D01*
X68622Y343174D01*
X52122D01*
X50845Y342920D01*
X49762Y342196D01*
X49038Y341113D01*
X48784Y339836D01*
Y336336D01*
X49038Y335059D01*
X49762Y333976D01*
X50845Y333252D01*
X52122Y332998D01*
X68622D01*
X69899Y333252D01*
X70982Y333976D01*
X71706Y335059D01*
X71845Y335755D01*
X93848D01*
Y333062D01*
X103041D01*
Y207489D01*
X103219Y206597D01*
X103724Y205841D01*
X104617Y204948D01*
X105373Y204443D01*
X106265Y204265D01*
X141846D01*
X142738Y204443D01*
X143494Y204948D01*
X155035Y216488D01*
X156208Y216003D01*
X156208Y215352D01*
Y214400D01*
X156208Y214082D01*
Y196416D01*
X155192D01*
Y188607D01*
X151452D01*
X150560Y188429D01*
X149804Y187924D01*
X149299Y187168D01*
X149121Y186276D01*
X149299Y185384D01*
X149804Y184628D01*
X150560Y184123D01*
X151452Y183945D01*
X155192D01*
Y176336D01*
X165462D01*
Y186376D01*
X166732D01*
Y187646D01*
X178272D01*
Y196416D01*
X177256D01*
Y214082D01*
X177256Y214400D01*
Y215352D01*
X177256Y215670D01*
Y233082D01*
X177256Y233400D01*
Y234352D01*
X177256Y234670D01*
Y252336D01*
X178272D01*
Y261106D01*
X166732D01*
Y262376D01*
X165462D01*
Y272416D01*
X155192D01*
Y264807D01*
X151452D01*
X150560Y264629D01*
X149804Y264124D01*
X149299Y263368D01*
X149121Y262476D01*
X149299Y261584D01*
X149804Y260828D01*
X150560Y260323D01*
X151452Y260145D01*
X155192D01*
Y252336D01*
X156208D01*
Y246830D01*
X143314D01*
X142587Y247316D01*
X141212Y247589D01*
X140356D01*
Y326800D01*
X164922Y351366D01*
X165820Y352710D01*
X166136Y354296D01*
Y376332D01*
X166963Y376885D01*
X167797Y378134D01*
X168090Y379606D01*
Y384106D01*
X167797Y385579D01*
X166963Y386827D01*
X166136Y387380D01*
Y394890D01*
X178270D01*
X179119Y393419D01*
X180821Y391717D01*
X182906Y390513D01*
X185232Y389890D01*
X187640D01*
X189965Y390513D01*
X192050Y391717D01*
X193753Y393419D01*
X194957Y395504D01*
X195580Y397830D01*
Y400238D01*
X194957Y402564D01*
X193753Y404649D01*
X192050Y406351D01*
X189965Y407555D01*
X187640Y408178D01*
D02*
G37*
G36*
X272796Y397764D02*
X263906D01*
Y388874D01*
X263974D01*
X266558Y389566D01*
X268874Y390904D01*
X270766Y392796D01*
X272104Y395112D01*
X272796Y397696D01*
Y397764D01*
D02*
G37*
G36*
X261366D02*
X252476D01*
Y397696D01*
X253168Y395112D01*
X254506Y392796D01*
X256398Y390904D01*
X258714Y389566D01*
X261298Y388874D01*
X261366D01*
Y397764D01*
D02*
G37*
G36*
X108392Y390495D02*
X107162D01*
Y383126D01*
X113531D01*
Y385356D01*
X113140Y387323D01*
X112026Y388990D01*
X110358Y390103D01*
X108392Y390495D01*
D02*
G37*
G36*
X113531Y380586D02*
X107162D01*
Y373217D01*
X108392D01*
X110358Y373608D01*
X112026Y374722D01*
X113140Y376390D01*
X113531Y378356D01*
Y380586D01*
D02*
G37*
G36*
X104622Y390495D02*
X103392D01*
X101426Y390103D01*
X99758Y388990D01*
X98645Y387323D01*
X98253Y385356D01*
Y384187D01*
X90492D01*
X89600Y384009D01*
X88844Y383504D01*
X88339Y382748D01*
X88161Y381856D01*
X88339Y380964D01*
X88844Y380208D01*
X89600Y379703D01*
X90492Y379525D01*
X98253D01*
Y378356D01*
X98645Y376390D01*
X99758Y374722D01*
X101426Y373608D01*
X103392Y373217D01*
X104622D01*
Y381856D01*
Y390495D01*
D02*
G37*
G36*
X104902Y371647D02*
X104010Y371469D01*
X103254Y370964D01*
X102749Y370208D01*
X102571Y369316D01*
Y365710D01*
X97122D01*
X95448Y365377D01*
X94029Y364429D01*
X93081Y363010D01*
X92864Y361917D01*
X72881D01*
X72663Y363010D01*
X71715Y364429D01*
X70296Y365377D01*
X68622Y365710D01*
X61642D01*
Y359586D01*
Y353462D01*
X68622D01*
X70296Y353795D01*
X71715Y354743D01*
X72663Y356162D01*
X72881Y357255D01*
X92864D01*
X93081Y356162D01*
X94029Y354743D01*
X95448Y353795D01*
X97122Y353462D01*
X104102D01*
Y359586D01*
X105372D01*
Y360856D01*
X117996D01*
Y361336D01*
X117663Y363010D01*
X116715Y364429D01*
X115296Y365377D01*
X113622Y365710D01*
X107233D01*
Y369316D01*
X107055Y370208D01*
X106550Y370964D01*
X105794Y371469D01*
X104902Y371647D01*
D02*
G37*
G36*
X59102Y365710D02*
X52122D01*
X50448Y365377D01*
X49029Y364429D01*
X48081Y363010D01*
X47748Y361336D01*
Y360856D01*
X59102D01*
Y365710D01*
D02*
G37*
G36*
X117996Y358316D02*
X106642D01*
Y353462D01*
X113622D01*
X115296Y353795D01*
X116715Y354743D01*
X117663Y356162D01*
X117996Y357836D01*
Y358316D01*
D02*
G37*
G36*
X59102D02*
X47748D01*
Y357836D01*
X48081Y356162D01*
X49029Y354743D01*
X50448Y353795D01*
X52122Y353462D01*
X59102D01*
Y358316D01*
D02*
G37*
G36*
X234982Y321534D02*
X230482D01*
X229009Y321241D01*
X227761Y320407D01*
X226927Y319159D01*
X226634Y317686D01*
Y313186D01*
X226927Y311714D01*
X227761Y310465D01*
X229009Y309631D01*
X230401Y309354D01*
Y300900D01*
X224026D01*
X223708Y300900D01*
X222756D01*
X222438Y300900D01*
X217283D01*
Y309354D01*
X218675Y309631D01*
X219923Y310465D01*
X220757Y311714D01*
X221050Y313186D01*
Y317686D01*
X220757Y319159D01*
X219923Y320407D01*
X218675Y321241D01*
X217202Y321534D01*
X212702D01*
X211229Y321241D01*
X209981Y320407D01*
X209147Y319159D01*
X208854Y317686D01*
Y313186D01*
X209147Y311714D01*
X209981Y310465D01*
X211229Y309631D01*
X212621Y309354D01*
Y300900D01*
X204772D01*
Y301916D01*
X196963D01*
Y305656D01*
X196785Y306548D01*
X196280Y307304D01*
X195524Y307809D01*
X194632Y307987D01*
X193740Y307809D01*
X192984Y307304D01*
X192479Y306548D01*
X192301Y305656D01*
Y301916D01*
X184692D01*
Y291646D01*
X194732D01*
Y290376D01*
X196002D01*
Y278836D01*
X204772D01*
Y279852D01*
X222438D01*
X222756Y279852D01*
X223708D01*
X224026Y279852D01*
X241438D01*
X241756Y279852D01*
X242708D01*
X243026Y279852D01*
X260692D01*
Y278836D01*
X269462D01*
Y290376D01*
X270732D01*
Y291646D01*
X280772D01*
Y301916D01*
X273063D01*
Y304006D01*
X272885Y304898D01*
X272380Y305654D01*
X271624Y306159D01*
X270732Y306337D01*
X269840Y306159D01*
X269084Y305654D01*
X268579Y304898D01*
X268401Y304006D01*
Y301916D01*
X260692D01*
Y300900D01*
X243026D01*
X242708Y300900D01*
X241756D01*
X241438Y300900D01*
X235063D01*
Y309354D01*
X236455Y309631D01*
X237703Y310465D01*
X238537Y311714D01*
X238830Y313186D01*
Y317686D01*
X238537Y319159D01*
X237703Y320407D01*
X236455Y321241D01*
X234982Y321534D01*
D02*
G37*
G36*
X280772Y289106D02*
X272002D01*
Y278836D01*
X280772D01*
Y289106D01*
D02*
G37*
G36*
X193462D02*
X184692D01*
Y278836D01*
X193462D01*
Y289106D01*
D02*
G37*
G36*
X178272Y272416D02*
X168002D01*
Y263646D01*
X178272D01*
Y272416D01*
D02*
G37*
G36*
X297462D02*
X287192D01*
Y263646D01*
X297462D01*
Y272416D01*
D02*
G37*
G36*
X141212Y228625D02*
X137482D01*
Y223266D01*
X145841D01*
Y223996D01*
X145489Y225767D01*
X144485Y227269D01*
X142983Y228273D01*
X141212Y228625D01*
D02*
G37*
G36*
X145841Y220726D02*
X137482D01*
Y215367D01*
X141212D01*
X142983Y215719D01*
X144485Y216723D01*
X145489Y218225D01*
X145841Y219996D01*
Y220726D01*
D02*
G37*
G36*
X134942Y228625D02*
X131212D01*
X129441Y228273D01*
X127939Y227269D01*
X126935Y225767D01*
X126633Y224247D01*
X118512D01*
X117620Y224069D01*
X116864Y223564D01*
X116784Y223484D01*
X116279Y222728D01*
X116101Y221836D01*
X116279Y220944D01*
X116784Y220188D01*
X117540Y219683D01*
X118432Y219505D01*
X118834Y219585D01*
X126665D01*
X126935Y218225D01*
X127939Y216723D01*
X129441Y215719D01*
X131212Y215367D01*
X134942D01*
Y221996D01*
Y228625D01*
D02*
G37*
G36*
X310272Y272416D02*
X300002D01*
Y262376D01*
X298732D01*
Y261106D01*
X287192D01*
Y252336D01*
X288208D01*
Y234670D01*
X288208Y234352D01*
Y233400D01*
X288208Y233082D01*
Y215670D01*
X288208Y215352D01*
Y214400D01*
X288208Y214082D01*
Y196416D01*
X287192D01*
Y187646D01*
X298732D01*
Y186376D01*
X300002D01*
Y176336D01*
X310272D01*
Y184105D01*
X315722D01*
X316614Y184283D01*
X317370Y184788D01*
X317875Y185544D01*
X318053Y186436D01*
X317875Y187328D01*
X317370Y188084D01*
X316614Y188589D01*
X315722Y188767D01*
X310272D01*
Y196416D01*
X309256D01*
Y214082D01*
X309256Y214400D01*
Y215352D01*
X309256Y215670D01*
Y233082D01*
X309256Y233400D01*
Y234352D01*
X309256Y234670D01*
Y252336D01*
X310272D01*
Y260045D01*
X312922D01*
X313814Y260223D01*
X314570Y260728D01*
X315075Y261484D01*
X315253Y262376D01*
X315075Y263268D01*
X314570Y264024D01*
X313814Y264529D01*
X312922Y264707D01*
X310272D01*
Y272416D01*
D02*
G37*
G36*
X297462Y185106D02*
X287192D01*
Y176336D01*
X297462D01*
Y185106D01*
D02*
G37*
G36*
X178272D02*
X168002D01*
Y176336D01*
X178272D01*
Y185106D01*
D02*
G37*
G36*
X280772Y169916D02*
X272002D01*
Y159646D01*
X280772D01*
Y169916D01*
D02*
G37*
G36*
X193462D02*
X184692D01*
Y159646D01*
X193462D01*
Y169916D01*
D02*
G37*
G36*
X269462D02*
X253002D01*
Y158376D01*
Y146836D01*
X267671D01*
Y140716D01*
X267849Y139824D01*
X268354Y139068D01*
X269110Y138563D01*
X270002Y138385D01*
X270894Y138563D01*
X271650Y139068D01*
X272155Y139824D01*
X272333Y140716D01*
Y146836D01*
X280772D01*
Y157106D01*
X270732D01*
Y158376D01*
X269462D01*
Y169916D01*
D02*
G37*
G36*
X238772Y123115D02*
X236542D01*
Y116746D01*
X243911D01*
Y117976D01*
X243520Y119943D01*
X242406Y121610D01*
X240739Y122724D01*
X238772Y123115D01*
D02*
G37*
G36*
X234002D02*
X231772D01*
X229806Y122724D01*
X228138Y121610D01*
X227024Y119943D01*
X226633Y117976D01*
Y116746D01*
X234002D01*
Y123115D01*
D02*
G37*
G36*
X218452Y122955D02*
X216222D01*
Y116586D01*
X223591D01*
Y117816D01*
X223200Y119782D01*
X222086Y121450D01*
X220418Y122563D01*
X218452Y122955D01*
D02*
G37*
G36*
X213682D02*
X211452D01*
X209485Y122563D01*
X207818Y121450D01*
X206705Y119782D01*
X206313Y117816D01*
Y116586D01*
X213682D01*
Y122955D01*
D02*
G37*
G36*
X243911Y114206D02*
X235272D01*
X226633D01*
Y112976D01*
X227024Y111010D01*
X228138Y109342D01*
X229806Y108228D01*
X231772Y107837D01*
X232199D01*
X232289Y107386D01*
X232794Y106630D01*
X234746Y104677D01*
X234829Y104264D01*
X235334Y103508D01*
X236090Y103003D01*
X236982Y102825D01*
X237874Y103003D01*
X238630Y103508D01*
X239135Y104264D01*
X239313Y105156D01*
Y105738D01*
X239135Y106630D01*
X239729Y108028D01*
X240739Y108228D01*
X242406Y109342D01*
X243520Y111010D01*
X243911Y112976D01*
Y114206D01*
D02*
G37*
G36*
X223591Y114046D02*
X214952D01*
X206313D01*
Y112816D01*
X206705Y110850D01*
X207818Y109182D01*
X209485Y108068D01*
X211452Y107677D01*
X211791D01*
Y105156D01*
X211969Y104264D01*
X212474Y103508D01*
X213230Y103003D01*
X214122Y102825D01*
X215014Y103003D01*
X215770Y103508D01*
X216275Y104264D01*
X216453Y105156D01*
Y107677D01*
X218452D01*
X220418Y108068D01*
X222086Y109182D01*
X223200Y110850D01*
X223591Y112816D01*
Y114046D01*
D02*
G37*
%LPD*%
D10*
X383500Y827685D02*
G03*
X383054Y828722I-1523J-41D01*
G01*
X402174Y823725D02*
G03*
X402326Y823556I1204J934D01*
G01*
X401761Y824257D02*
G03*
X401639Y824396I-1204J-934D01*
G01*
X404944Y821089D02*
G03*
X405989Y820674I1045J1109D01*
G01*
X383664Y820658D02*
G03*
X383663Y820703I-10538J-238D01*
G01*
X383667Y820349D02*
G03*
X383664Y820658I-10541J71D01*
G01*
X345192Y637218D02*
G03*
X345070Y637218I-74J-6477D01*
G01*
X401568Y689776D02*
G03*
X401569Y690452I-10535J347D01*
G01*
X401568Y689746D02*
G03*
X401566Y689598I6475J-148D01*
G01*
X401568Y666916D02*
G03*
X401574Y667267I-10535J347D01*
G01*
X401568Y666886D02*
G03*
X401566Y666721I6475J-148D01*
G01*
X377962Y678133D02*
G03*
X377962Y678205I-6477J52D01*
G01*
X377962Y678124D02*
G03*
X377962Y678133I-6477J61D01*
G01*
X397502Y689799D02*
G03*
X397506Y690356I-6469J324D01*
G01*
X397502Y666939D02*
G03*
X397502Y667588I-6469J324D01*
G01*
X523343Y466216D02*
G03*
X523002Y466213I-103J-6476D01*
G01*
X578178Y723124D02*
X589787D01*
X572154Y729149D02*
X578178Y723124D01*
X569106Y727886D02*
Y730641D01*
X566058Y726624D02*
X575653Y717028D01*
X579441Y726172D02*
X592487D01*
X575653Y717028D02*
X584389D01*
X563010Y725361D02*
Y726301D01*
X572154Y729149D02*
Y733282D01*
X576916Y720076D02*
X587088D01*
X574632Y705118D02*
X579057D01*
X575202Y730411D02*
Y734907D01*
X559962Y724099D02*
Y725038D01*
X575125Y713246D02*
X582423D01*
X563010Y725361D02*
X575125Y713246D01*
X547100Y726750D02*
X553000D01*
X569106Y727886D02*
X576916Y720076D01*
X553000Y726750D02*
X574632Y705118D01*
X559962Y724099D02*
X574879Y709182D01*
X575202Y730411D02*
X579441Y726172D01*
X574879Y709182D02*
X580740D01*
X566058Y726624D02*
Y729378D01*
X547100Y736750D02*
X552561D01*
X563010Y726301D01*
X552670Y761750D02*
X578250Y736170D01*
X547100Y761750D02*
X552670D01*
X463750Y752500D02*
Y766889D01*
Y752500D02*
X469500Y746750D01*
X406250Y793000D02*
X446260D01*
X419387Y776458D02*
X454182D01*
X471973Y767288D02*
X477862D01*
X441778Y782472D02*
X452478D01*
X468298Y754952D02*
Y766652D01*
X454182Y776458D02*
X463750Y766889D01*
X452478Y782472D02*
X468298Y766652D01*
X446260Y793000D02*
X471973Y767288D01*
X341292Y619676D02*
X368574D01*
X369879Y618371D02*
X373658D01*
X368574Y619676D02*
X369879Y618371D01*
X343539Y615612D02*
X364336D01*
X342646Y569468D02*
Y614719D01*
X365641Y614307D02*
X375341D01*
X379016Y617982D01*
X364336Y615612D02*
X365641Y614307D01*
X379016Y617982D02*
X423418D01*
X235758Y532612D02*
X266122Y562976D01*
X342646Y614719D02*
X343539Y615612D01*
X423418Y617982D02*
X434340Y607060D01*
X126920Y832227D02*
X127813Y833120D01*
X200853D01*
X126920Y826760D02*
Y832227D01*
X121920Y835914D02*
X123190Y837184D01*
X121920Y826760D02*
Y835914D01*
X462786Y805964D02*
X494687D01*
X448076Y820674D02*
X462786Y805964D01*
X350143Y971550D02*
X391077D01*
X405989Y820674D02*
X448076D01*
X500250Y708580D02*
X501750Y707080D01*
X500250Y708580D02*
Y719900D01*
X706120Y631190D02*
Y693388D01*
Y631190D02*
X715645Y621665D01*
X706120Y693388D02*
X708660Y695928D01*
X715645Y550926D02*
Y621665D01*
X495580Y788730D02*
Y805071D01*
X494687Y805964D02*
X495580Y805071D01*
X391970Y834065D02*
Y970657D01*
X391077Y971550D02*
X391970Y970657D01*
X522859Y480096D02*
X524256Y481493D01*
Y529844D01*
X522859Y478790D02*
Y480096D01*
X437982Y507496D02*
Y519623D01*
X438874Y506603D02*
X462461D01*
X437982Y507496D02*
X438874Y506603D01*
X290942Y465398D02*
Y486703D01*
X221062Y463794D02*
X289338D01*
X290942Y465398D01*
X283140Y487596D02*
X290050D01*
X290942Y486703D01*
X219458Y465398D02*
X221062Y463794D01*
X219458Y465398D02*
Y476146D01*
X203200Y460623D02*
Y540899D01*
X204093Y459730D02*
X506720D01*
X203200Y460623D02*
X204093Y459730D01*
X199136Y456559D02*
Y569988D01*
Y456559D02*
X200029Y455666D01*
X509006D01*
X176530Y601980D02*
X224470D01*
X173100Y598550D02*
X176530Y601980D01*
X173100Y591820D02*
Y598550D01*
X216538Y612822D02*
X225649D01*
X226542Y611929D01*
Y604052D02*
Y611929D01*
X204238Y609511D02*
X205131Y608618D01*
X214242D01*
X204238Y609511D02*
Y635658D01*
X216538Y621618D02*
X226140D01*
X252392Y647870D01*
Y655744D01*
X226060Y747471D02*
Y754380D01*
X225167Y746578D02*
X226060Y747471D01*
X205510Y746578D02*
X225167D01*
X219274Y765179D02*
X220167Y764286D01*
X219274Y765179D02*
Y773486D01*
X220167Y764286D02*
X232969D01*
X210060Y774700D02*
X218060D01*
X219274Y773486D01*
X218316Y796747D02*
X225247D01*
X216531Y789758D02*
X217423Y790651D01*
Y795854D01*
X218316Y796747D01*
X192885Y789758D02*
X216531D01*
X164529Y826760D02*
X173409Y817880D01*
X131920Y826760D02*
X164529D01*
X123190Y837184D02*
X174244D01*
X181864Y749300D02*
X183007Y750443D01*
Y771882D01*
X173480Y749300D02*
X181864D01*
X232969Y764286D02*
X233862Y765179D01*
Y809185D01*
X208482Y756918D02*
X210060D01*
X207396Y758005D02*
X208482Y756918D01*
X138420Y810260D02*
X156718D01*
X210060Y754380D02*
Y756918D01*
Y774700D01*
X207396Y758005D02*
Y759582D01*
X156718Y810260D02*
X207396Y759582D01*
X186603Y765485D02*
Y772596D01*
X138420Y805260D02*
X153940D01*
X138420Y800260D02*
X154629D01*
X183007Y771882D01*
X153940Y805260D02*
X186603Y772596D01*
X225247Y796747D02*
X226060Y797560D01*
X232969Y810078D02*
X233862Y809185D01*
X218862Y810078D02*
X232969D01*
X217862Y811078D02*
X218862Y810078D01*
X217862Y811078D02*
Y830195D01*
X210186Y831088D02*
X216969D01*
X217862Y830195D01*
X226009Y831265D02*
X226186Y831088D01*
X226009Y831265D02*
Y836981D01*
X224100Y838890D02*
X226009Y836981D01*
X202820Y838890D02*
X224100D01*
X244348Y833882D02*
X245492Y832738D01*
X226186Y831088D02*
X228980Y833882D01*
X245492Y826516D02*
Y832738D01*
X228980Y833882D02*
X244348D01*
X480740Y891844D02*
X483108Y889476D01*
X480740Y891844D02*
Y896314D01*
X481500Y898151D02*
X483108Y896544D01*
X481447Y898151D02*
Y938901D01*
X483489Y940943D01*
X149606Y555974D02*
X191548Y597916D01*
X149606Y531622D02*
Y555974D01*
X153670Y551822D02*
X195700Y593852D01*
X153670Y537512D02*
Y551822D01*
X383000Y532946D02*
X397159D01*
X397357Y532748D01*
X377682Y527628D02*
X383000Y532946D01*
X610616Y608838D02*
Y640842D01*
X603799Y601098D02*
X647228D01*
X650444Y604314D01*
X600202Y604695D02*
X603799Y601098D01*
X668913Y812800D02*
X684620D01*
X668020Y804800D02*
Y811907D01*
X684620Y812800D02*
X687160Y815340D01*
X668020Y811907D02*
X668913Y812800D01*
X698462Y814447D02*
X699355Y815340D01*
X698462Y757931D02*
Y814447D01*
X699355Y815340D02*
X708660D01*
Y808840D02*
Y815340D01*
X697570Y757038D02*
X698462Y757931D01*
X678644Y757038D02*
X697570D01*
X677751Y757931D02*
Y786305D01*
Y757931D02*
X678644Y757038D01*
X609223Y787240D02*
X676816D01*
X677751Y786305D01*
X608330Y788133D02*
Y811907D01*
X576072Y812800D02*
X607437D01*
X608330Y788133D02*
X609223Y787240D01*
X607437Y812800D02*
X608330Y811907D01*
X547100Y781750D02*
X547177D01*
X547715Y782288D02*
Y784443D01*
X547177Y781750D02*
X547715Y782288D01*
Y784443D02*
X576072Y812800D01*
X548602Y688640D02*
X550890D01*
X547887Y689356D02*
X548602Y688640D01*
X547887Y689356D02*
Y691643D01*
X546890Y685480D02*
X550050Y688640D01*
X550890D01*
X526460Y693942D02*
X545588D01*
X547887Y691643D01*
X569141Y692926D02*
X574007D01*
X530248Y703086D02*
X554671D01*
X568895Y688862D02*
X572323D01*
X531564Y707936D02*
X554131D01*
X554671Y703086D02*
X568895Y688862D01*
X554131Y707936D02*
X569141Y692926D01*
X18720Y467920D02*
Y492920D01*
Y512920D02*
Y537920D01*
X114920Y803260D02*
X121920D01*
X128920Y803260D02*
Y810260D01*
X294000Y935215D02*
Y948000D01*
X486918Y986282D02*
X581914D01*
X443470Y811530D02*
X473120Y781880D01*
X402663Y814578D02*
X445112D01*
X446374Y817626D02*
X467668Y796332D01*
X403925Y817626D02*
X446374D01*
X401252Y798000D02*
X446102D01*
X446003Y802996D02*
X447265D01*
X470803Y779458D01*
X393061Y811530D02*
X443470D01*
X471814Y772288D02*
X477862D01*
X444105Y802986D02*
X446003Y802996D01*
X446102Y798000D02*
X471814Y772288D01*
X470803Y779458D02*
X473113Y777148D01*
X467668Y796332D02*
X489289D01*
X473120Y781880D02*
X478730D01*
X445112Y814578D02*
X471090Y788600D01*
X485250D01*
X489289Y796332D02*
X490182Y795439D01*
Y789128D02*
Y795439D01*
X388922Y832803D02*
Y919178D01*
X361950Y946150D02*
X388922Y919178D01*
X367844Y930656D02*
X377750Y920750D01*
Y839664D02*
Y920750D01*
Y839664D02*
X395875Y821539D01*
X600265Y723759D02*
X626259D01*
X635250Y732750D01*
X594771Y729253D02*
X600265Y723759D01*
X581048Y650265D02*
Y685885D01*
X578000Y651527D02*
Y683185D01*
X525264Y635192D02*
X565976D01*
X523950Y639626D02*
X566099D01*
X578000Y651527D01*
X565976Y635192D02*
X581048Y650265D01*
X575690Y696990D02*
X584096Y688584D01*
X574007Y692926D02*
X581048Y685885D01*
X572323Y688862D02*
X578000Y683185D01*
X567436Y630186D02*
X584096Y646846D01*
Y688584D01*
X567436Y613536D02*
Y630186D01*
X186603Y765485D02*
X205510Y746578D01*
X674881Y744219D02*
X679960Y739140D01*
X648153Y744219D02*
X674881D01*
X679960Y739140D02*
X679960D01*
X637610Y658536D02*
Y717772D01*
X627767Y719510D02*
X628612Y718665D01*
X636717D01*
X592487Y726172D02*
X599149Y719510D01*
X627767D01*
X636717Y718665D02*
X637610Y717772D01*
X240070Y909120D02*
X240808Y908382D01*
Y900443D02*
Y908382D01*
X294000Y905750D02*
Y916250D01*
X287800Y899550D02*
X294000Y905750D01*
X306250Y916250D02*
X323000Y933000D01*
X323750D01*
X241701Y899550D02*
X287800D01*
X294000Y916250D02*
X306250D01*
X240808Y900443D02*
X241701Y899550D01*
X235070Y897395D02*
X235963Y896502D01*
X230070Y894430D02*
X231046Y893454D01*
X322371Y923750D02*
X329202D01*
X321311Y927000D02*
X328142D01*
X230070Y894430D02*
Y909120D01*
X235070Y897395D02*
Y909120D01*
X235963Y896502D02*
X290812D01*
X321311Y927000D01*
X231046Y893454D02*
X292075D01*
X322371Y923750D01*
X323797Y917453D02*
X339453D01*
X352656Y930656D01*
X328142Y927000D02*
X349250Y948108D01*
X329202Y923750D02*
X351602Y946150D01*
X225070Y892930D02*
Y909120D01*
X227594Y890406D02*
X301406D01*
X225070Y892930D02*
X227594Y890406D01*
X301406D02*
X321137Y910136D01*
X351337D02*
X361950Y920750D01*
X321137Y910136D02*
X351337D01*
X266000Y956500D02*
X266500Y957000D01*
X249000Y956750D02*
X249250Y956500D01*
X352656Y930656D02*
X367844D01*
X372189Y920750D02*
X374452Y918487D01*
Y837324D02*
Y918487D01*
X361950Y920750D02*
X372189D01*
X383500Y827685D02*
X383500Y827680D01*
X401761Y824257D02*
X402174Y823725D01*
X401634Y824401D02*
X401639Y824396D01*
X374452Y837324D02*
X383054Y828722D01*
X402326Y823556D02*
X404944Y821089D01*
X395875Y821366D02*
Y821539D01*
Y821366D02*
X402663Y814578D01*
X388922Y832803D02*
X398923Y822802D01*
Y822628D02*
X403925Y817626D01*
X391970Y834065D02*
X401634Y824401D01*
X383500Y827680D02*
X383663Y820703D01*
X375616Y831850D02*
X379251Y828215D01*
Y769717D02*
Y828215D01*
X353200Y831850D02*
X375616D01*
X398923Y822628D02*
Y822802D01*
X390414Y819277D02*
X391643Y812948D01*
X393061Y811530D01*
X391160Y802640D02*
X444105Y802986D01*
X385505Y712442D02*
X397129Y700818D01*
X386528Y768187D02*
X389569Y765146D01*
X385059Y763909D02*
X385505Y763462D01*
X389569Y714125D02*
Y765146D01*
Y714125D02*
X401193Y702502D01*
X385505Y712442D02*
Y763462D01*
X324529Y895350D02*
X352044D01*
X305997Y876818D02*
X324529Y895350D01*
X233505Y876818D02*
X305997D01*
X349250Y948108D02*
Y970657D01*
X351602Y946150D02*
X361950D01*
X220070Y890253D02*
Y909120D01*
Y890253D02*
X233505Y876818D01*
X345948Y803787D02*
Y860525D01*
X383667Y771241D02*
X383953Y770955D01*
X348996Y821313D02*
Y861787D01*
X384302Y770606D02*
X386311Y768406D01*
X352044Y833006D02*
Y895350D01*
X344274Y866509D02*
X348996Y861787D01*
X335461Y863461D02*
X343012D01*
X334198Y866509D02*
X344274D01*
X382265Y766702D02*
X385059Y763909D01*
X352044Y833006D02*
X353200Y831850D01*
X343012Y863461D02*
X345948Y860525D01*
X383953Y770955D02*
X384302Y770606D01*
X379251Y769717D02*
X382265Y766702D01*
X383667Y771241D02*
Y820349D01*
X346841Y802894D02*
X372872D01*
X345948Y803787D02*
X346841Y802894D01*
X349889Y820420D02*
X373126D01*
X348996Y821313D02*
X349889Y820420D01*
X329500Y861811D02*
X334198Y866509D01*
X332750Y860750D02*
X335461Y863461D01*
X332750Y766293D02*
Y860750D01*
X329500Y756298D02*
Y861811D01*
X332750Y766293D02*
X342250Y756793D01*
X342900Y692150D02*
Y741100D01*
X342750Y741250D02*
X342900Y741100D01*
X324601Y751399D02*
X329500Y756298D01*
X328487Y734737D02*
X329000Y735250D01*
X328487Y683484D02*
Y734737D01*
X264160Y613410D02*
X342900Y692150D01*
X262477Y617474D02*
X328487Y683484D01*
X349250Y970657D02*
X350143Y971550D01*
X352044Y895350D02*
X361950D01*
X156339Y221089D02*
X163445D01*
X106265Y206596D02*
X141846D01*
X163445Y221089D02*
X166732Y224376D01*
X141846Y206596D02*
X156339Y221089D01*
X477862Y772288D02*
X478400Y771750D01*
X390652Y787400D02*
X401252Y798000D01*
X477862Y767288D02*
X478400Y766750D01*
X440000Y784250D02*
X441778Y782472D01*
X391466Y778216D02*
X406250Y793000D01*
X391466Y773101D02*
Y778216D01*
X391120Y772755D02*
X391466Y773101D01*
X418250Y777595D02*
X419387Y776458D01*
X468298Y754952D02*
X471500Y751750D01*
X478400D01*
X549970Y731880D02*
X553120D01*
X559962Y725038D01*
X571698Y701054D02*
X577373D01*
X555610Y717142D02*
X571698Y701054D01*
X541118Y717142D02*
X555610D01*
X537750Y712000D02*
X555004D01*
X570014Y696990D02*
X575690D01*
X555004Y712000D02*
X570014Y696990D01*
X535252Y714498D02*
X537750Y712000D01*
X535250Y719900D02*
X535252Y719898D01*
Y714498D02*
Y719898D01*
X525250Y714250D02*
X531564Y707936D01*
X525250Y714250D02*
Y719900D01*
X520321Y709676D02*
X523658D01*
X530248Y703086D01*
X515250Y719900D02*
X515375Y719775D01*
Y714621D02*
X520321Y709676D01*
X515375Y714621D02*
Y719775D01*
X505250Y710000D02*
X514718Y700532D01*
X505250Y710000D02*
Y719700D01*
X529250Y472063D02*
Y536729D01*
X530737Y538215D01*
X518160Y471170D02*
X528357D01*
X529250Y472063D01*
X532954Y466536D02*
X533400Y466983D01*
Y529840D01*
X535309Y531749D01*
X532507Y466090D02*
X532954Y466536D01*
X530737Y538215D02*
X668517D01*
X576500Y525000D02*
X576625Y525125D01*
X537464Y518607D02*
X538357Y519500D01*
X694563Y520393D02*
Y543703D01*
X538357Y519500D02*
X693670D01*
X694563Y520393D01*
X689606Y531749D02*
X690499Y532642D01*
Y545386D01*
X535309Y531749D02*
X689606D01*
X537464Y460633D02*
Y518607D01*
X577580Y807720D02*
X594307D01*
X562864Y779149D02*
Y793003D01*
X576116Y790696D02*
Y798532D01*
X562864Y793003D02*
X577580Y807720D01*
X573200Y787780D02*
X576116Y790696D01*
X417250Y784500D02*
X418223Y783527D01*
X418250Y777595D02*
Y778000D01*
X418223Y778027D02*
X418250Y778000D01*
X418223Y778027D02*
Y783527D01*
X469500Y746750D02*
X478400D01*
X478002Y777148D02*
X478400Y776750D01*
X473113Y777148D02*
X478002D01*
X470945Y731674D02*
X478524D01*
X466528Y731174D02*
X470445D01*
X470945Y731674D01*
X464134Y728780D02*
X466528Y731174D01*
X553686Y751750D02*
X572154Y733282D01*
X547100Y751750D02*
X553686D01*
X547100Y756750D02*
X553359D01*
X578250Y732731D02*
Y736170D01*
X553359Y756750D02*
X575202Y734907D01*
X634492Y654112D02*
Y655418D01*
X637610Y658536D01*
X578250Y732731D02*
X581729Y729253D01*
X594771D01*
X547560Y746750D02*
X548098Y746212D01*
X547560Y741750D02*
X553686D01*
X589787Y723124D02*
X596450Y716462D01*
X587088Y720076D02*
X598504Y708660D01*
X548098Y746212D02*
X553535D01*
X553686Y741750D02*
X566058Y729378D01*
X553535Y746212D02*
X569106Y730641D01*
X584389Y717028D02*
X604266Y697151D01*
X596450Y716462D02*
X614546D01*
X598504Y708660D02*
X609600D01*
X604266Y651403D02*
Y697151D01*
X226060Y632352D02*
Y641860D01*
X220678Y626970D02*
X226060Y632352D01*
X215390Y626970D02*
X220678D01*
X103090Y861060D02*
X104220Y859930D01*
X514718Y700532D02*
X519870D01*
X489852Y714613D02*
Y719502D01*
X485050Y709811D02*
X489852Y714613D01*
X495300Y711950D02*
Y719850D01*
X388874Y550605D02*
Y556260D01*
Y550605D02*
X396732Y542748D01*
X492443Y478803D02*
X492468Y478828D01*
X476027Y478803D02*
X492443D01*
X476002Y478778D02*
X476027Y478803D01*
X431002Y478778D02*
X476002D01*
X447174Y542550D02*
X455550Y550926D01*
X443607Y542748D02*
X443805Y542550D01*
X447174D01*
X435342Y568268D02*
Y568268D01*
X442784Y551071D02*
Y560826D01*
X435342Y568268D02*
X442784Y560826D01*
X496522Y522548D02*
X497099Y521970D01*
X509524D01*
X396732Y542748D02*
X397357D01*
X655383Y820483D02*
X667703D01*
X668020Y820800D01*
X655066Y820166D02*
X655383Y820483D01*
X148209Y591185D02*
X156465D01*
X157100Y591820D01*
X147574Y590550D02*
X148209Y591185D01*
X609992Y590042D02*
X612652Y592702D01*
X645678D01*
X609346Y590042D02*
X609992D01*
X654046Y597034D02*
X665480Y585600D01*
X645678Y592702D02*
X652780Y585600D01*
X596138Y603012D02*
X602116Y597034D01*
X654046D01*
X600202Y604695D02*
Y609756D01*
X596138Y603012D02*
Y611439D01*
X600202Y609756D02*
X602670Y612224D01*
X650444Y604314D02*
Y614064D01*
X652780Y616400D01*
X586740Y620140D02*
X587914Y621314D01*
Y690513D01*
X591978Y632457D02*
Y692197D01*
Y632457D02*
X592074Y632361D01*
X596042Y634140D02*
Y693880D01*
Y634140D02*
X596138Y634044D01*
X602670Y612224D02*
Y628056D01*
X598606Y613907D02*
Y626373D01*
X600202Y630524D02*
X602670Y628056D01*
X596138Y611439D02*
X598606Y613907D01*
X600202Y630524D02*
Y695467D01*
X611124Y654112D02*
Y697832D01*
X608034Y647635D02*
X641449D01*
X596138Y628841D02*
Y634044D01*
X604266Y651403D02*
X608034Y647635D01*
X622554Y655320D02*
Y656626D01*
X624840Y658912D01*
X596138Y628841D02*
X598606Y626373D01*
X580740Y709182D02*
X596042Y693880D01*
X611124Y697832D02*
X617798Y704506D01*
X624840Y658912D02*
Y667640D01*
X592074Y627158D02*
Y632361D01*
X579057Y705118D02*
X591978Y692197D01*
X592074Y627158D02*
X594542Y624690D01*
X582190Y611942D02*
X590894D01*
X594542Y615590D02*
Y624690D01*
X590894Y611942D02*
X594542Y615590D01*
X652780Y577400D02*
Y585600D01*
X635000Y639826D02*
X640080Y634746D01*
Y616400D02*
Y634746D01*
X641449Y647635D02*
X653703Y635381D01*
X684389D01*
X685282Y620653D02*
Y634488D01*
X684389Y635381D02*
X685282Y634488D01*
X668255Y556943D02*
X676010Y564698D01*
X680559Y550466D02*
X681482Y551389D01*
X640973Y550466D02*
X680559D01*
X640080Y551358D02*
X640973Y550466D01*
X676010Y564698D02*
Y575230D01*
X678180Y577400D01*
X665480D02*
Y585600D01*
X614546Y716462D02*
X617798Y713210D01*
Y704506D02*
Y713210D01*
X582423Y713246D02*
X600202Y695467D01*
X577373Y701054D02*
X587914Y690513D01*
X565660Y611760D02*
X567436Y613536D01*
X566205Y659455D02*
X567250Y660500D01*
X640080Y551358D02*
Y577400D01*
X476899Y702521D02*
X484189Y709811D01*
X485050D01*
X476899Y697771D02*
Y702521D01*
X489852Y719502D02*
X490250Y719900D01*
X485250D02*
Y720912D01*
X475750Y721450D02*
X484712D01*
X473974Y716037D02*
Y719675D01*
X484712Y721450D02*
X485250Y720912D01*
X473974Y719675D02*
X475750Y721450D01*
X473456Y715518D02*
X473974Y716037D01*
X519870Y700532D02*
X526460Y693942D01*
X148186Y461049D02*
X210201Y399034D01*
X211836D01*
X148186Y500230D02*
X164592Y516636D01*
X148186Y461049D02*
Y500230D01*
X152250Y462732D02*
Y478894D01*
Y462732D02*
X183497Y431485D01*
X204785D01*
X237236Y399034D01*
X152250Y478894D02*
X164592Y491236D01*
X495250Y719900D02*
X495300Y719850D01*
X483489Y940943D02*
Y982853D01*
X486918Y986282D01*
X529418Y855980D02*
X529758Y856320D01*
X520594Y636270D02*
X523950Y639626D01*
X152190Y607470D02*
X157990D01*
X201745Y834013D02*
Y837815D01*
X202820Y838890D01*
X200853Y833120D02*
X201745Y834013D01*
X264160Y754380D02*
X264287Y754507D01*
Y764921D01*
X264414Y765048D01*
X376748Y636913D02*
X377195Y637331D01*
X366604Y636973D02*
X375486Y636913D01*
X276430Y593344D02*
X320115Y637030D01*
X345192Y637218D02*
X366604Y636973D01*
X377195Y637331D02*
X377636Y637773D01*
X320115Y637030D02*
X345070Y637218D01*
X375486Y636913D02*
X376748D01*
X377636Y637773D02*
X377641Y638397D01*
X377962Y678124D01*
X235758Y483742D02*
Y532612D01*
X226060Y817880D02*
X226822Y817118D01*
X239522D01*
X240284Y816356D01*
X401566Y640273D02*
Y666721D01*
Y640273D02*
X402814Y639025D01*
X401567Y689746D02*
X401568Y689776D01*
X401566Y689598D02*
X401574Y667267D01*
X401568Y666886D02*
X401568Y666916D01*
X336154Y562976D02*
X342646Y569468D01*
X337312Y615696D02*
X341292Y619676D01*
X334122Y567040D02*
X337312Y570230D01*
Y615696D01*
X244786Y567040D02*
X334122D01*
X373279Y623740D02*
X376460Y626921D01*
X327537Y623740D02*
X373279D01*
X326644Y622847D02*
X327537Y623740D01*
X266122Y562976D02*
X336154D01*
X326644Y579091D02*
Y622847D01*
X318656Y571104D02*
X326644Y579091D01*
X373658Y618371D02*
X377333Y622046D01*
X444754D02*
X459740Y607060D01*
X377333Y622046D02*
X444754D01*
X376460Y626921D02*
X383663D01*
X434340Y607060D02*
X451342Y590058D01*
X383663Y626921D02*
X384556Y627813D01*
X377737Y706843D02*
X377952Y706628D01*
X377962Y678205D01*
X384556Y707644D02*
X384556Y627813D01*
X366776Y717804D02*
X377737Y706843D01*
X397502Y667588D02*
Y689799D01*
X397129Y643592D02*
X397502Y666939D01*
X397129Y638962D02*
Y643592D01*
X397129Y700818D02*
X397506Y690356D01*
X401193Y702502D02*
X401569Y690452D01*
X397129Y638962D02*
X397404Y635915D01*
X398061Y635257D01*
X384110Y708090D02*
X384556Y707644D01*
X398061Y635257D02*
X398765Y634961D01*
X372551Y719649D02*
X384110Y708090D01*
X259596Y593344D02*
X276430D01*
X238260Y572008D02*
X259596Y593344D01*
X228720Y593852D02*
X248278Y613410D01*
X246595Y617474D02*
X262477D01*
X248278Y613410D02*
X264160D01*
X227037Y597916D02*
X246595Y617474D01*
X308569Y683729D02*
X319571D01*
X308100Y683260D02*
X308569Y683729D01*
X522278Y632206D02*
X525264Y635192D01*
X476484Y639025D02*
X479239Y636270D01*
X402814Y639025D02*
X476484D01*
X477555Y632206D02*
X522278D01*
X479239Y636270D02*
X520594D01*
X475142Y634620D02*
X477555Y632206D01*
X430419Y634620D02*
X475142D01*
X398765Y634961D02*
X430419Y634620D01*
X372551Y719649D02*
Y768141D01*
X372618Y768207D02*
Y787654D01*
X372551Y768141D02*
X372618Y768207D01*
X386311Y768406D02*
X386528Y768187D01*
X366141Y770890D02*
X366776Y770255D01*
Y717804D02*
Y770255D01*
X665480Y608816D02*
Y616400D01*
Y608816D02*
X668431Y605864D01*
X669072D01*
X686435Y588502D01*
Y557830D02*
Y588502D01*
Y557830D02*
X687959Y556306D01*
Y548706D02*
Y556306D01*
X684165Y544912D02*
X687959Y548706D01*
X584057Y542279D02*
X663421D01*
X578866Y547471D02*
X584057Y542279D01*
X666054Y544912D02*
X684165D01*
X663421Y542279D02*
X666054Y544912D01*
X578866Y547471D02*
Y608618D01*
X582190Y611942D01*
X530737Y601218D02*
X565719D01*
X581801Y616006D02*
X586232Y620437D01*
X580507Y616006D02*
X581801D01*
X565719Y601218D02*
X580507Y616006D01*
X174940Y861060D02*
X175956Y860044D01*
X232732Y331436D02*
Y332241D01*
X237236Y336745D01*
Y399034D01*
X211836D02*
X213394Y397476D01*
Y332994D02*
Y397476D01*
Y332994D02*
X214952Y331436D01*
X538058Y856320D02*
X538398Y856660D01*
X560595Y776880D02*
X562864Y779149D01*
X594307Y807720D02*
X595200Y806827D01*
X670091Y757172D02*
Y765169D01*
X668020Y767240D02*
X670091Y765169D01*
X449500Y668100D02*
X449580Y668180D01*
X151452Y262476D02*
X166632D01*
X151452Y186276D02*
X166632D01*
X270732Y290376D02*
Y304006D01*
X214122Y105156D02*
Y114486D01*
X234442Y108278D02*
X236982Y105738D01*
Y105156D02*
Y105738D01*
X234442Y108278D02*
Y114646D01*
X235272Y115476D01*
X214122Y114486D02*
X214952Y115316D01*
X298732Y262376D02*
X312922D01*
X298792Y186436D02*
X315722D01*
X298732Y186376D02*
X298792Y186436D01*
X270002Y140716D02*
Y157646D01*
X270732Y158376D01*
X104902Y360056D02*
X105372Y359586D01*
X104902Y360056D02*
Y369316D01*
X417982Y550873D02*
X418180Y551071D01*
Y560420D01*
X261492Y826516D02*
X261937Y826071D01*
Y816547D02*
Y826071D01*
X252660Y477056D02*
Y479318D01*
X255398Y482056D01*
X262510D01*
X262979Y481587D01*
X264668Y500448D02*
X265200Y499916D01*
X693420Y683260D02*
Y693040D01*
X693420Y693040D01*
X91440Y475500D02*
X91960Y474980D01*
X390641Y527108D02*
X396717D01*
X390002Y526469D02*
X390641Y527108D01*
X396717D02*
X397357Y527748D01*
X403700Y584200D02*
X403860Y584040D01*
X382382Y514928D02*
X386897Y519443D01*
X397244D01*
X374762Y502068D02*
X374922Y502228D01*
X397244Y519443D02*
X397424Y519623D01*
X397982D01*
X595200Y771780D02*
X595580Y772160D01*
X612140D01*
X60372Y359586D02*
X105372D01*
X194632Y290476D02*
Y305656D01*
Y143096D02*
Y158276D01*
X194732Y158376D01*
X166632Y262476D02*
X166732Y262376D01*
X251732Y158376D02*
X270732D01*
X136132Y221916D02*
X136212Y221996D01*
X118512Y221916D02*
X136132D01*
X118432Y221836D02*
X118512Y221916D01*
X166632Y186276D02*
X166732Y186376D01*
X194632Y290476D02*
X194732Y290376D01*
X90492Y381856D02*
X105892D01*
X131920Y793760D02*
Y800260D01*
X128920Y803260D02*
X131920Y800260D01*
X111920Y793760D02*
Y800260D01*
X114920Y803260D01*
X112432Y812748D02*
Y821400D01*
X112358Y821474D02*
X112432Y821400D01*
X112358Y821474D02*
Y826322D01*
X112432Y812748D02*
X114920Y810260D01*
X111920Y826760D02*
X112358Y826322D01*
X226060Y657860D02*
Y670560D01*
X595200Y787780D02*
Y806827D01*
X547430Y776880D02*
X560595D01*
X690499Y559514D02*
Y614803D01*
Y559514D02*
X692023Y557990D01*
X694563Y561197D02*
Y618867D01*
Y561197D02*
X696087Y559673D01*
Y545227D02*
Y559673D01*
X692023Y546910D02*
Y557990D01*
X689606Y615696D02*
X690499Y614803D01*
X693670Y619760D02*
X694563Y618867D01*
Y543703D02*
X696087Y545227D01*
X690499Y545386D02*
X692023Y546910D01*
X686175Y619760D02*
X693670D01*
X678884Y615696D02*
X689606D01*
X509006Y455666D02*
X518984Y465644D01*
X506720Y459730D02*
X518160Y471170D01*
X523240Y459740D02*
X536571D01*
X537464Y460633D01*
X518984Y465644D02*
X519430Y466090D01*
X523002Y466213D01*
X523343Y466216D02*
X531245Y466090D01*
X532507D01*
X203200Y540899D02*
X225276Y562976D01*
X199136Y569988D02*
X201156Y572008D01*
X195700Y593852D02*
X228720D01*
X225276Y562976D02*
X234975D01*
X201156Y572008D02*
X238260D01*
X234975Y562976D02*
X243103Y571104D01*
X229800Y552054D02*
X244786Y567040D01*
X243103Y571104D02*
X318656D01*
X228530Y550784D02*
X229800Y552054D01*
X685282Y620653D02*
X686175Y619760D01*
X678180Y616400D02*
X678884Y615696D01*
X191548Y597916D02*
X227037D01*
X224470Y601980D02*
X226542Y604052D01*
X215390Y613970D02*
X216538Y612822D01*
X214242Y608618D02*
X215390Y607470D01*
X204238Y635658D02*
X210820Y642240D01*
X252392Y655744D02*
X255016Y658368D01*
X215390Y620470D02*
X216538Y621618D01*
X164592Y491236D02*
X175768Y502412D01*
Y520906D01*
X169116Y527558D02*
X175768Y520906D01*
X105372Y207489D02*
X106265Y206596D01*
X105372Y207489D02*
Y338086D01*
X149606Y531622D02*
X164592Y516636D01*
X153670Y537512D02*
X163624Y527558D01*
X169116D01*
X219458Y476146D02*
X223107Y479794D01*
X231810D01*
X235758Y483742D01*
X558800Y611760D02*
X565660D01*
X227260Y471596D02*
X227490Y471826D01*
X227260Y487596D02*
X228530Y488866D01*
X227490Y471826D02*
X242580D01*
X242810Y472056D01*
X228530Y488866D02*
Y550784D01*
X282910Y471826D02*
X283140Y471596D01*
X262510Y472056D02*
X262740Y471826D01*
X282910D01*
X522250Y531850D02*
X524256Y529844D01*
X464538Y543124D02*
X529702D01*
X529844Y600325D02*
X530737Y601218D01*
X529844Y543266D02*
Y600325D01*
X529702Y543124D02*
X529844Y543266D01*
X553295Y607060D02*
X557995Y611760D01*
X482600Y607060D02*
X553295D01*
X557995Y611760D02*
X558800D01*
X464312Y508454D02*
Y530606D01*
X462461Y506603D02*
X464312Y508454D01*
X465556Y531850D02*
X522250D01*
X464312Y530606D02*
X465556Y531850D01*
X463464Y544199D02*
X464538Y543124D01*
X463464Y544199D02*
Y556146D01*
X471550Y550926D02*
X481707D01*
X482600Y551819D02*
Y607060D01*
X481707Y550926D02*
X482600Y551819D01*
X425720Y500278D02*
X431002D01*
X476002D01*
X476522Y500798D02*
Y522548D01*
X476002Y500278D02*
X498329D01*
X499222Y489908D02*
Y499385D01*
X498329Y500278D02*
X499222Y499385D01*
X476002Y500278D02*
X476522Y500798D01*
X451342Y568268D02*
X463464Y556146D01*
X708660Y770340D02*
Y808840D01*
X687160Y770340D02*
Y815340D01*
X292100Y683260D02*
X292100Y683260D01*
X274700Y683260D02*
X292100D01*
X708660Y695928D02*
Y770340D01*
X459740Y607060D02*
X482600D01*
X451342Y568268D02*
Y590058D01*
X442784Y551071D02*
X442982Y550873D01*
X540580Y717680D02*
X541118Y717142D01*
X461079Y719978D02*
X468379Y727278D01*
X478332D01*
X447040Y711686D02*
X455332Y719978D01*
X447040Y703780D02*
Y711686D01*
X455332Y719978D02*
X461079D01*
X478332Y727278D02*
X478730Y726880D01*
X675490Y709040D02*
X693420D01*
X673690Y710840D02*
X675490Y709040D01*
X673690Y665840D02*
Y710840D01*
X624840Y683640D02*
X625220Y684020D01*
Y708280D02*
X625600Y708660D01*
X625220Y684020D02*
Y708280D01*
X498842Y489528D02*
X499222Y489908D01*
X422982Y503016D02*
X425720Y500278D01*
X422982Y503016D02*
Y519623D01*
X412784Y519425D02*
X412982Y519623D01*
X447040Y728780D02*
X464134D01*
X573100Y771880D02*
X573200Y771780D01*
X547430Y771880D02*
X573100D01*
X232732Y290376D02*
X232732Y290376D01*
X232732Y290376D02*
Y315436D01*
X214952Y291596D02*
Y315436D01*
X213732Y290376D02*
X214952Y291596D01*
X125892Y381856D02*
X145992D01*
X125892Y381856D02*
X125892Y381856D01*
X111872Y338086D02*
X125892Y352106D01*
Y381856D01*
X105372Y338086D02*
X111872D01*
X60372D02*
X105372D01*
X174244Y837184D02*
X180340Y843280D01*
X226060Y754380D02*
X248160D01*
X138420Y820260D02*
X162383D01*
X226060Y774700D02*
Y797560D01*
X173409Y817880D02*
X210060D01*
Y797560D02*
Y817880D01*
X162383Y820260D02*
X192885Y789758D01*
X149480Y652780D02*
X149860Y652400D01*
X123308Y653160D02*
X123688Y652780D01*
D11*
X453626Y532624D02*
X453750Y532500D01*
X443730Y532624D02*
X453626D01*
X443733Y537874D02*
X457374D01*
X443607Y537748D02*
X443733Y537874D01*
X457374D02*
X457500Y538000D01*
X443607Y532748D02*
X443730Y532624D01*
X412784Y503120D02*
Y519425D01*
X126920Y784991D02*
Y793760D01*
X127813Y784098D02*
X146587D01*
X126920Y784991D02*
X127813Y784098D01*
X503238Y694460D02*
X517937D01*
X501750Y695948D02*
Y707080D01*
Y695948D02*
X503238Y694460D01*
X263737Y482346D02*
X263882Y482201D01*
X273413D01*
X273558Y482346D01*
X262979Y481587D02*
X263737Y482346D01*
X147480Y769620D02*
Y783205D01*
X146587Y784098D02*
X147480Y783205D01*
X397127Y537978D02*
X397357Y537748D01*
X394550Y537978D02*
X397127D01*
X392428Y540100D02*
X394550Y537978D01*
X387413Y540100D02*
X392428D01*
X143346Y629158D02*
X145044Y627460D01*
X143002Y629158D02*
X143346D01*
X157500Y627460D02*
X157990Y626970D01*
X145044Y627460D02*
X157500D01*
X564906Y682844D02*
X567250Y680500D01*
X554214Y698514D02*
X564906Y687822D01*
Y682844D02*
Y687822D01*
X528354Y698514D02*
X554214D01*
X530250Y776750D02*
X532750Y774250D01*
X250300Y915800D02*
X253000Y918500D01*
X250300Y909350D02*
Y915800D01*
X250070Y909120D02*
X250300Y909350D01*
X245070Y909120D02*
Y918930D01*
X250070Y909120D02*
X255070D01*
X281670Y706230D02*
X289670D01*
X258700Y683260D02*
X281670Y706230D01*
X289670D02*
X292100Y708660D01*
X265116Y909165D02*
X270264D01*
X270310Y909211D01*
X265070Y909120D02*
X265116Y909165D01*
X97760Y812020D02*
Y825490D01*
X510250Y711466D02*
Y719900D01*
Y711466D02*
X516612Y705104D01*
X157990Y613970D02*
X171117D01*
X143204Y620470D02*
X157990D01*
X527912Y794262D02*
Y798287D01*
X525250Y788600D02*
Y791600D01*
X527912Y794262D01*
X525250Y776988D02*
Y788600D01*
X527912Y798287D02*
X528690Y799064D01*
X535280Y788630D02*
Y793930D01*
X539313Y797963D02*
X540257D01*
X540841Y798546D01*
X535250Y788600D02*
X535280Y788630D01*
Y793930D02*
X539313Y797963D01*
X535250Y796600D02*
Y804405D01*
X535391Y804546D01*
X530250Y788600D02*
Y791600D01*
X535250Y796600D01*
X530250Y776750D02*
Y788600D01*
X522512Y774250D02*
X525250Y776988D01*
X519750Y774250D02*
X522512D01*
X535250Y776750D02*
Y788600D01*
X532750Y774250D02*
X535250Y776750D01*
X470250Y736750D02*
X478400D01*
X512500Y798000D02*
X515250Y795250D01*
Y788600D02*
Y795250D01*
X520250Y788600D02*
Y798750D01*
Y830892D02*
X520618Y831260D01*
X555000Y766750D02*
X557500Y764250D01*
X547100Y766750D02*
X555000D01*
X516612Y705104D02*
X521764D01*
X517937Y694460D02*
X523786Y688611D01*
X529159D01*
X532130Y685640D01*
X557920Y652498D02*
Y673060D01*
X555463Y650041D02*
X557920Y652498D01*
Y673060D02*
X565420Y680560D01*
X521764Y705104D02*
X528354Y698514D01*
X116920Y826760D02*
Y838120D01*
X97760Y812020D02*
X99520Y810260D01*
X103690D01*
X260070Y909120D02*
X265070D01*
X116920Y784940D02*
Y793760D01*
X114935Y782955D02*
X116920Y784940D01*
X121920Y779780D02*
Y793760D01*
X244005Y498721D02*
X245200Y499916D01*
X244005Y482536D02*
Y498721D01*
X243525Y482056D02*
X244005Y482536D01*
X242810Y482056D02*
X243525D01*
X157480Y726440D02*
Y749300D01*
X402982Y550873D02*
Y563162D01*
X403860Y564040D01*
D14*
X323612Y643317D02*
G03*
X323542Y643318I-69J-5080D01*
G01*
X394922Y502228D02*
X411891D01*
X412784Y503120D01*
X471375Y830625D02*
X471500Y830500D01*
X459250Y830750D02*
X459375Y830625D01*
X471375D01*
X461500Y815000D02*
X461743Y814757D01*
X471243D02*
X471750Y814250D01*
X461743Y814757D02*
X471243D01*
X495300Y686140D02*
Y711950D01*
X712295Y649997D02*
X714073D01*
X712052Y650240D02*
X712295Y649997D01*
X714073D02*
X725170Y638900D01*
X661036Y650494D02*
X700024D01*
X653150Y658380D02*
X661036Y650494D01*
X725170Y510087D02*
Y638900D01*
X722194Y507111D02*
X725170Y510087D01*
X555426Y507111D02*
X722194D01*
X546282Y514500D02*
X704746D01*
X708406Y518160D01*
Y620014D01*
X687197Y641223D02*
X708406Y620014D01*
X627380Y551616D02*
Y577400D01*
X586856Y548640D02*
X624404D01*
X627380Y551616D01*
X193040Y452800D02*
Y572154D01*
Y452800D02*
X196016Y449824D01*
X539304D01*
X181610Y445180D02*
X184586Y442204D01*
X548448D01*
X181610Y445180D02*
Y539060D01*
X176530Y542036D02*
Y566420D01*
X198120Y588010D01*
X73470Y608203D02*
X140458D01*
X141351Y609096D01*
X57750Y607770D02*
X73470Y608200D01*
X73914Y616712D02*
X84962Y627760D01*
X73470Y608200D02*
Y608203D01*
X141351Y609096D02*
Y618617D01*
X41986Y516014D02*
X87120D01*
X49260Y599280D02*
X57304Y607324D01*
X74168Y532372D02*
Y600964D01*
Y532372D02*
X82980Y523560D01*
X57304Y607324D02*
X57750Y607770D01*
X87120Y515920D02*
X87940Y515100D01*
X82980Y520060D02*
X87120Y515920D01*
X37670Y596978D02*
X45958D01*
X25146Y591314D02*
X25865Y592033D01*
X32725D01*
X37670Y596978D01*
X45958D02*
X48260Y599280D01*
X49260D01*
X16764Y719637D02*
Y821994D01*
X19740Y716661D02*
X76962D01*
X16764Y719637D02*
X19740Y716661D01*
X167480Y769620D02*
X177546D01*
X154940Y862663D02*
X156400Y864123D01*
X162321D02*
X171338Y873140D01*
X184154D01*
X154940Y861060D02*
Y862663D01*
X156400Y864123D02*
X162321D01*
X184154Y873140D02*
X212562Y844732D01*
X499710Y810790D02*
X512500Y798000D01*
X494210Y810790D02*
X499710D01*
X491750Y813250D02*
Y814250D01*
Y813250D02*
X494210Y810790D01*
X69016Y723900D02*
X140716D01*
X149860Y688086D02*
Y714756D01*
X140716Y723900D02*
X149860Y714756D01*
X66040Y726876D02*
Y771144D01*
Y726876D02*
X69016Y723900D01*
X193040Y660200D02*
X193040Y660200D01*
Y685364D01*
X190064Y688340D02*
X193040Y685364D01*
X150114Y688340D02*
X190064D01*
X193040Y658240D02*
Y660200D01*
X376725Y540100D02*
X378540D01*
X366212Y529588D02*
X376725Y540100D01*
X378540D02*
X381000Y542560D01*
X363642Y529588D02*
X366212D01*
X361682Y527628D02*
X363642Y529588D01*
X381000Y542560D02*
Y543560D01*
X383460Y540100D02*
X387413D01*
X381000Y542560D02*
X383460Y540100D01*
X616712Y620776D02*
X626120D01*
X627380Y616400D02*
Y619516D01*
X626120Y620776D02*
X627380Y619516D01*
X692984Y725920D02*
X695960Y728896D01*
X660770Y725920D02*
X692984D01*
X695960Y728896D02*
Y739140D01*
X177800Y976884D02*
X182602Y981686D01*
X177800Y936250D02*
X248000D01*
X177800D02*
Y976884D01*
X182602Y981686D02*
X277524D01*
X41986Y490014D02*
X60754D01*
X576625Y525125D02*
X576750Y525000D01*
X566205Y659455D02*
X567250Y658411D01*
X397541Y849103D02*
X475611D01*
X475721Y849213D01*
X397431Y848992D02*
X397541Y849103D01*
X383461Y846074D02*
Y871382D01*
X609257Y730493D02*
X615007D01*
X602750Y737000D02*
X609257Y730493D01*
X615007D02*
X615250Y730250D01*
X601750Y737000D02*
X602750D01*
X263424Y934040D02*
X265884Y936500D01*
X253000Y918500D02*
X263424Y928924D01*
Y934040D01*
X265884Y936500D02*
X277524D01*
X510520Y665180D02*
X510726Y665386D01*
X510794D01*
X510520Y657020D02*
Y665180D01*
X510500Y657000D02*
X510520Y657020D01*
X531940Y653940D02*
Y665450D01*
X532130Y665640D01*
X531750Y653750D02*
X531940Y653940D01*
X546625Y653875D02*
Y665125D01*
Y653875D02*
X546750Y653750D01*
X546500Y665250D02*
X546625Y665125D01*
X567250Y649500D02*
Y658411D01*
X177800Y890270D02*
Y936250D01*
X245790Y934040D02*
X248000Y936250D01*
X249250Y936500D02*
X250250D01*
X248000Y936250D02*
X249000D01*
X249250Y936500D01*
X245070Y918930D02*
Y931064D01*
X245790Y931784D01*
Y934040D01*
X280500Y939476D02*
Y978710D01*
X277524Y936500D02*
X280500Y939476D01*
X277524Y981686D02*
X280500Y978710D01*
X177800Y890270D02*
X214122Y853948D01*
X332994Y749554D02*
X352679D01*
X292100Y708660D02*
X332994Y749554D01*
X352679Y701421D02*
Y748967D01*
Y701421D02*
X355600Y698500D01*
Y676910D02*
Y698500D01*
X552450Y446206D02*
Y504135D01*
X555426Y507111D01*
X355600Y664539D02*
Y676910D01*
X355600Y651204D02*
X355600Y664539D01*
X274435Y853948D02*
X292100Y836283D01*
X214122Y853948D02*
X274435D01*
X338328Y677418D02*
X355092D01*
X267970Y607060D02*
X338328Y677418D01*
X250190Y607060D02*
X267970D01*
X231140Y588010D02*
X250190Y607060D01*
X355092Y677418D02*
X355600Y676910D01*
X548448Y442204D02*
X552450Y446206D01*
X178634Y542036D02*
X181610Y539060D01*
X176530Y542036D02*
X178634D01*
X164592D02*
X176530D01*
X198120Y588010D02*
X231140D01*
X292100Y708660D02*
Y836283D01*
X266500Y957000D02*
Y968750D01*
X249000Y956750D02*
Y969000D01*
X396250Y745750D02*
X396594D01*
X396250Y715706D02*
Y745750D01*
X396594D02*
X397634Y744710D01*
X406790D01*
X396250Y715706D02*
X416560Y695397D01*
X406790Y744710D02*
X408750Y742750D01*
X340487Y797687D02*
X354838Y783336D01*
X340487Y797687D02*
Y857737D01*
X408750Y758750D02*
X421500D01*
X437125Y742375D02*
X437500Y742000D01*
X421875Y742375D02*
X437125D01*
X421500Y742750D02*
X421875Y742375D01*
X434500Y762000D02*
X437500D01*
X429672Y769757D02*
X433040Y766389D01*
X425993Y769757D02*
X429672D01*
X433040Y763460D02*
X434500Y762000D01*
X433040Y763460D02*
Y766389D01*
X425750Y770000D02*
X425993Y769757D01*
X80446Y768000D02*
X100140D01*
X77470Y732155D02*
Y765024D01*
X80446Y768000D01*
X16764Y821994D02*
X19740Y824970D01*
X82012D01*
X25400Y858520D02*
X25644Y858276D01*
Y849476D02*
X28620Y846500D01*
X76750D02*
X97760Y825490D01*
X28620Y846500D02*
X76750D01*
X25644Y849476D02*
Y858276D01*
X91410Y808090D02*
Y821994D01*
X88434Y824970D02*
X91410Y821994D01*
X82012Y824970D02*
X88434D01*
X576750Y525000D02*
X596250D01*
X543306Y511524D02*
X546282Y514500D01*
X543306Y453826D02*
Y511524D01*
X446493Y770537D02*
X447922D01*
X446250Y770780D02*
X446493Y770537D01*
X447922D02*
X451290Y767169D01*
Y765460D02*
Y767169D01*
Y765460D02*
X453750Y763000D01*
X454750D01*
X461186Y736750D02*
X470250D01*
X454750Y743000D02*
X455750D01*
X458210Y739726D02*
Y740540D01*
X455750Y743000D02*
X458210Y740540D01*
Y739726D02*
X461186Y736750D01*
X438000Y742500D02*
X454250D01*
X437500Y742000D02*
X438000Y742500D01*
X454250D02*
X454750Y743000D01*
X491625Y814375D02*
Y830375D01*
Y814375D02*
X491750Y814250D01*
X491500Y830500D02*
X491625Y830375D01*
X491500Y830500D02*
X491611Y830611D01*
Y849102D02*
X491721Y849213D01*
X491611Y830611D02*
Y849102D01*
X574743Y748007D02*
Y749007D01*
X574500Y749250D02*
X574743Y749007D01*
X574500Y748750D02*
Y749250D01*
X574743Y748007D02*
X585750Y737000D01*
X586750D01*
X557500Y764250D02*
X564750Y757000D01*
X586750D01*
X601750D01*
X602000Y757250D01*
X616750D02*
X617000Y757500D01*
X602000Y757250D02*
X616750D01*
X617000Y741500D02*
X640634D01*
X643610Y738524D01*
Y653736D02*
Y738524D01*
X104220Y859930D02*
X104960Y859190D01*
Y821600D02*
Y859190D01*
X171117Y613970D02*
X172010Y614863D01*
X491912Y466598D02*
X514842Y489528D01*
X363656Y466598D02*
X491912D01*
X25146Y644906D02*
X25400Y645160D01*
X25146Y607314D02*
Y644906D01*
X25400Y934720D02*
X53500D01*
X73500D02*
X86360D01*
X25400Y894080D02*
Y934720D01*
X484069Y663735D02*
X493395D01*
X495300Y665640D01*
X483826Y663492D02*
X484069Y663735D01*
X467760Y659100D02*
X494800Y686140D01*
X457200Y659100D02*
X467760D01*
X495300Y685640D02*
Y686140D01*
X494800D02*
X495300D01*
X433578Y667766D02*
X433785Y667973D01*
X449373D01*
X449500Y668100D01*
X108110Y598170D02*
X143510D01*
X152146Y606806D01*
X95765Y585825D02*
X108110Y598170D01*
X643610Y653736D02*
X656123Y641223D01*
X687197D01*
X323690Y643317D02*
X366670Y642815D01*
X318142Y643318D02*
X323542D01*
X323612Y643317D02*
X323690Y643317D01*
X116920Y838120D02*
X122950Y844150D01*
X372110Y678180D02*
Y704208D01*
X136525Y861695D02*
Y908685D01*
X518175Y642112D02*
X521530Y645468D01*
X550890D02*
X555463Y650041D01*
X521530Y645468D02*
X550890D01*
X272874Y844732D02*
X282575Y835031D01*
X212562Y844732D02*
X272874D01*
X46000Y800160D02*
X46280Y800440D01*
X45720Y769460D02*
X46000Y769740D01*
Y800160D01*
X379028Y736914D02*
Y753491D01*
X91960Y474980D02*
X92202Y474738D01*
Y455168D02*
Y474738D01*
X345118Y630741D02*
X367976Y630480D01*
X371781Y645791D02*
Y647919D01*
X368805Y642815D02*
X371781Y645791D01*
X366670Y642815D02*
X368805D01*
X371621Y664854D02*
X371781Y647919D01*
X371485Y678185D02*
X371621Y664854D01*
X314492Y640578D02*
X318142Y643318D01*
X287782Y613867D02*
X314492Y640578D01*
X84962Y627760D02*
X123308D01*
X141351Y618617D02*
X143204Y620470D01*
X356321Y609135D02*
X358396Y607060D01*
X383540D01*
X360934Y715384D02*
X372110Y704208D01*
X360934Y715384D02*
Y762254D01*
X391033Y690123D02*
X391033Y667263D01*
X408043Y689598D02*
X408043Y666739D01*
X287782Y613867D02*
Y613867D01*
X255016Y599186D02*
X273100D01*
X287782Y613867D01*
X233680Y577850D02*
X255016Y599186D01*
X198736Y577850D02*
X233680D01*
X45720Y769460D02*
X64356D01*
X70806Y775910D02*
X91038D01*
X94560Y779433D02*
X111413D01*
X114935Y782955D01*
X91038Y775910D02*
X94560Y779433D01*
X354838Y768350D02*
X360934Y762254D01*
X354838Y768350D02*
Y783336D01*
X449580Y688180D02*
X451040Y689640D01*
X460018D02*
X463399Y693021D01*
Y697771D01*
X470154Y675386D02*
Y675396D01*
X463399Y682151D02*
X470154Y675396D01*
X461010Y627380D02*
X461354D01*
X462370Y626364D01*
X524697D01*
X485095Y644867D02*
X487850Y642112D01*
X526093Y627760D02*
X558800D01*
X487850Y642112D02*
X518175D01*
X469934Y646430D02*
X471497Y644867D01*
X485095D01*
X457200Y646430D02*
X469934D01*
X524697Y626364D02*
X526093Y627760D01*
X79080Y800440D02*
X80235Y799286D01*
X122950Y844150D02*
X131180D01*
X416560Y665082D02*
Y695397D01*
X149860Y668400D02*
Y688086D01*
X150114Y688340D01*
X175956Y860044D02*
X185420D01*
X162052Y399034D02*
X186436D01*
X40408D02*
X162052D01*
X161992Y398974D02*
X162052Y399034D01*
X161992Y381856D02*
Y398974D01*
X37432Y163736D02*
Y396058D01*
X40408Y399034D01*
X45720Y739394D02*
Y749460D01*
X701040Y541020D02*
Y563880D01*
X111600Y581660D02*
X121920D01*
X345440Y543560D02*
X361000D01*
X393700Y584200D02*
X403700D01*
X264668Y500448D02*
Y512572D01*
X374762Y492068D02*
Y502068D01*
X101600Y739140D02*
Y749460D01*
X121920Y739140D02*
Y749460D01*
X78740Y685280D02*
Y701040D01*
X65000Y894080D02*
X81280D01*
X170180Y662620D02*
Y675640D01*
X48260Y566420D02*
Y579280D01*
X360680Y469574D02*
X363656Y466598D01*
X539304Y449824D02*
X543306Y453826D01*
X360680Y469574D02*
Y526626D01*
X193040Y572154D02*
X198736Y577850D01*
X427990Y678524D02*
X435417Y685951D01*
Y686061D01*
X427990Y678180D02*
Y678524D01*
X435417Y686061D02*
X438996Y689640D01*
X652190Y665840D02*
X653150Y664880D01*
Y658380D02*
Y664880D01*
X170560Y642240D02*
X172010Y640790D01*
X170180Y642620D02*
X170560Y642240D01*
X193040D01*
X172010Y614863D02*
Y640790D01*
X652190Y665840D02*
Y717340D01*
X660770Y725920D01*
X448120Y689640D02*
X449580Y688180D01*
X422542Y659100D02*
X457200D01*
Y646430D02*
Y659100D01*
X474315Y653723D02*
X487015D01*
X416560Y665082D02*
X422542Y659100D01*
X510040Y686140D02*
X510540Y686640D01*
X235192Y135396D02*
X235272Y135476D01*
X215032Y135396D02*
X235192D01*
X214952Y135316D02*
X215032Y135396D01*
X139902Y129286D02*
X145457Y134841D01*
X71882Y129286D02*
X139902D01*
X214477Y134841D02*
X214952Y135316D01*
X145457Y134841D02*
X214477D01*
X37432Y163736D02*
X71882Y129286D01*
X586740Y548640D02*
Y604140D01*
X305026Y527628D02*
X338948D01*
X245200Y516654D02*
X280600Y552054D01*
X245200Y499916D02*
Y516654D01*
X338948Y527628D02*
X361682D01*
X280600Y552054D02*
X305026Y527628D01*
X360680Y526626D02*
X361682Y527628D01*
X335280Y531296D02*
Y545074D01*
Y531296D02*
X338948Y527628D01*
X369755Y579550D02*
X381596D01*
X335280Y545074D02*
X369755Y579550D01*
X381596D02*
Y605116D01*
Y579550D02*
X394646Y566500D01*
X381596Y605116D02*
X383540Y607060D01*
X394646Y566500D02*
X401400D01*
X403860Y564040D01*
X100140Y768000D02*
X101600Y769460D01*
X64356D02*
X66040Y771144D01*
X70806Y775910D01*
X282575Y740717D02*
Y835031D01*
X266700Y724842D02*
X282575Y740717D01*
X266700Y708660D02*
Y724842D01*
X131180Y844150D02*
X135890Y848860D01*
Y861060D01*
X121920Y779780D02*
X121920Y779780D01*
Y769460D02*
Y779780D01*
X135890Y861060D02*
X136525Y861695D01*
Y908685D02*
X137160Y909320D01*
X136212Y241996D02*
Y328516D01*
X161992Y354296D02*
Y381856D01*
X136212Y328516D02*
X161992Y354296D01*
X232732Y137936D02*
Y158376D01*
X214342Y135926D02*
Y157766D01*
Y135926D02*
X214952Y135316D01*
X213732Y158376D02*
X214342Y157766D01*
X136902Y242686D02*
X166042D01*
X136212Y241996D02*
X136902Y242686D01*
X166042D02*
X166732Y243376D01*
X133840Y758540D02*
X148240D01*
X121920Y769460D02*
X122920D01*
X133840Y758540D01*
X148240D02*
X157480Y749300D01*
X101600Y769460D02*
X121920D01*
X25400Y858520D02*
Y894080D01*
X123688Y652780D02*
X149480D01*
X193040Y658240D02*
X210820D01*
X25400Y645160D02*
X25920Y645680D01*
X78740D01*
X87940Y515100D02*
X91440D01*
X82980Y520060D02*
Y523560D01*
X91440Y515100D02*
Y543560D01*
X78740Y645680D02*
X82240D01*
X121218Y676471D02*
X123308Y678560D01*
X113031Y676471D02*
X121218D01*
X82240Y645680D02*
X113031Y676471D01*
X91600Y581719D02*
X95706Y585825D01*
X91440Y559560D02*
Y581500D01*
X91600Y581660D02*
Y581719D01*
X91440Y581500D02*
X91600Y581660D01*
X95706Y585825D02*
X95765D01*
D23*
X94240Y805260D02*
X105420D01*
X91410Y808090D02*
X94240Y805260D01*
D27*
X624840Y667640D02*
D03*
D33*
X41986Y516014D02*
D03*
Y509514D02*
D03*
Y503014D02*
D03*
Y496514D02*
D03*
Y490014D02*
D03*
D34*
X14986Y513014D02*
D03*
Y493014D02*
D03*
D35*
X294000Y936250D02*
D03*
Y916250D02*
D03*
X266000Y936500D02*
D03*
Y956500D02*
D03*
X249250Y936500D02*
D03*
Y956500D02*
D03*
X546500Y665250D02*
D03*
Y685250D02*
D03*
X586750Y737000D02*
D03*
Y757000D02*
D03*
X495300Y685640D02*
D03*
Y665640D02*
D03*
X403860Y584040D02*
D03*
Y564040D02*
D03*
X235272Y115476D02*
D03*
Y135476D02*
D03*
X214952Y115316D02*
D03*
Y135316D02*
D03*
X121920Y749460D02*
D03*
Y769460D02*
D03*
X48260Y599280D02*
D03*
Y579280D02*
D03*
X170180Y642620D02*
D03*
Y662620D02*
D03*
X601750Y757000D02*
D03*
Y737000D02*
D03*
X532130Y685640D02*
D03*
Y665640D02*
D03*
X567250Y680500D02*
D03*
Y660500D02*
D03*
X454750Y743000D02*
D03*
Y763000D02*
D03*
X668020Y787240D02*
D03*
Y767240D02*
D03*
D36*
X275070Y884120D02*
D03*
X210070D02*
D03*
D37*
X265070Y909120D02*
D03*
X245070D02*
D03*
X250070D02*
D03*
X255070D02*
D03*
X260070D02*
D03*
X240070D02*
D03*
X225070D02*
D03*
X230070D02*
D03*
X235070D02*
D03*
D38*
X220070D02*
D03*
D39*
X437500Y742000D02*
D03*
Y762000D02*
D03*
X510540Y666640D02*
D03*
Y686640D02*
D03*
X136212Y221996D02*
D03*
Y241996D02*
D03*
X101600Y749460D02*
D03*
Y769460D02*
D03*
X45720D02*
D03*
Y749460D02*
D03*
X449580Y688180D02*
D03*
Y668180D02*
D03*
D40*
X408750Y758750D02*
D03*
Y742750D02*
D03*
X421500Y758750D02*
D03*
Y742750D02*
D03*
X693420Y709040D02*
D03*
Y693040D02*
D03*
X586740Y620140D02*
D03*
Y604140D02*
D03*
X558800Y627760D02*
D03*
Y611760D02*
D03*
X25146Y607314D02*
D03*
Y591314D02*
D03*
X227260Y487596D02*
D03*
Y471596D02*
D03*
X283140Y487596D02*
D03*
Y471596D02*
D03*
X668020Y804800D02*
D03*
Y820800D02*
D03*
X232732Y315436D02*
D03*
X232732Y331436D02*
D03*
X214952D02*
D03*
Y315436D02*
D03*
X149860Y668400D02*
D03*
Y652400D02*
D03*
X91440Y559560D02*
D03*
Y543560D02*
D03*
X210820Y658240D02*
D03*
Y642240D02*
D03*
X226060Y657860D02*
D03*
Y641860D02*
D03*
X193040Y658240D02*
D03*
Y642240D02*
D03*
X617000Y741500D02*
D03*
Y757500D02*
D03*
D41*
X540250Y719900D02*
D03*
X535250D02*
D03*
X530250D02*
D03*
X525250D02*
D03*
X520250D02*
D03*
X515250D02*
D03*
X510250D02*
D03*
X505250D02*
D03*
X500250D02*
D03*
X495250D02*
D03*
X490250D02*
D03*
X485250D02*
D03*
Y788600D02*
D03*
X490250D02*
D03*
X495250D02*
D03*
X500250D02*
D03*
X505250D02*
D03*
X510250D02*
D03*
X515250D02*
D03*
X520250D02*
D03*
X525250D02*
D03*
X530250D02*
D03*
X535250D02*
D03*
X540250D02*
D03*
D42*
X478400Y726750D02*
D03*
Y731750D02*
D03*
Y736750D02*
D03*
Y741750D02*
D03*
Y746750D02*
D03*
Y751750D02*
D03*
Y756750D02*
D03*
Y761750D02*
D03*
Y766750D02*
D03*
Y771750D02*
D03*
Y776750D02*
D03*
Y781750D02*
D03*
X547100D02*
D03*
Y776750D02*
D03*
Y771750D02*
D03*
Y766750D02*
D03*
Y761750D02*
D03*
Y756750D02*
D03*
Y751750D02*
D03*
Y746750D02*
D03*
Y741750D02*
D03*
Y736750D02*
D03*
Y731750D02*
D03*
D43*
Y726750D02*
D03*
D45*
X105420Y800260D02*
D03*
Y805260D02*
D03*
Y810260D02*
D03*
Y815260D02*
D03*
Y820260D02*
D03*
X138420D02*
D03*
Y815260D02*
D03*
Y810260D02*
D03*
Y805260D02*
D03*
Y800260D02*
D03*
D46*
X111920Y826760D02*
D03*
X116920D02*
D03*
X121920D02*
D03*
X131920D02*
D03*
Y793760D02*
D03*
X126920D02*
D03*
X121920D02*
D03*
X116920D02*
D03*
X126920Y826760D02*
D03*
D47*
X111920Y793760D02*
D03*
D48*
X440000Y784250D02*
D03*
X417250Y784500D02*
D03*
X157480Y726440D02*
D03*
X25400Y858520D02*
D03*
X137160Y909320D02*
D03*
X180340Y843280D02*
D03*
D49*
X673690Y710840D02*
D03*
X652190D02*
D03*
X673690Y665840D02*
D03*
X687160Y770340D02*
D03*
X708660D02*
D03*
X687160Y815340D02*
D03*
D50*
X652190Y665840D02*
D03*
X708660Y815340D02*
D03*
D51*
X447040Y703780D02*
D03*
Y728780D02*
D03*
D52*
X625600Y708660D02*
D03*
X609600D02*
D03*
X695960Y739140D02*
D03*
X679960D02*
D03*
X491721Y849213D02*
D03*
X475721D02*
D03*
X173100Y591820D02*
D03*
X157100D02*
D03*
X455550Y550926D02*
D03*
X471550D02*
D03*
X514842Y489528D02*
D03*
X498842D02*
D03*
X361682Y527628D02*
D03*
X377682D02*
D03*
X451342Y568268D02*
D03*
X435342D02*
D03*
X258700Y683260D02*
D03*
X274700D02*
D03*
X261492Y826516D02*
D03*
X245492D02*
D03*
X226060Y817880D02*
D03*
X210060D02*
D03*
X210186Y831088D02*
D03*
X226186D02*
D03*
X264160Y754380D02*
D03*
X248160D02*
D03*
X210060D02*
D03*
X226060D02*
D03*
X173480Y749300D02*
D03*
X157480D02*
D03*
X210060Y774700D02*
D03*
X226060D02*
D03*
Y797560D02*
D03*
X210060D02*
D03*
X145992Y381856D02*
D03*
X161992D02*
D03*
D53*
X624840Y683640D02*
D03*
D54*
X678180Y616400D02*
D03*
Y577400D02*
D03*
X665480Y616400D02*
D03*
Y577400D02*
D03*
X652780Y616400D02*
D03*
Y577400D02*
D03*
X640080Y616400D02*
D03*
Y577400D02*
D03*
X627380Y616400D02*
D03*
D55*
Y577400D02*
D03*
D56*
X73500Y934720D02*
D03*
X53500D02*
D03*
X174940Y861060D02*
D03*
X154940D02*
D03*
D57*
X520618Y831260D02*
D03*
Y840060D02*
D03*
Y870040D02*
D03*
Y878840D02*
D03*
D58*
X529418Y855980D02*
D03*
X520618D02*
D03*
D59*
X471500Y830500D02*
D03*
X491500D02*
D03*
X471750Y814250D02*
D03*
X491750D02*
D03*
X245200Y499916D02*
D03*
X265200D02*
D03*
X361000Y543560D02*
D03*
X381000D02*
D03*
X167480Y769620D02*
D03*
X147480D02*
D03*
X111600Y581660D02*
D03*
X91600D02*
D03*
X496522Y522548D02*
D03*
X476522D02*
D03*
X105892Y381856D02*
D03*
X125892D02*
D03*
X394922Y502228D02*
D03*
X374922D02*
D03*
D60*
X135890Y861060D02*
D03*
X103090D02*
D03*
X79080Y800440D02*
D03*
X46280D02*
D03*
D61*
X157990Y607470D02*
D03*
Y613970D02*
D03*
Y620470D02*
D03*
Y626970D02*
D03*
X215390D02*
D03*
Y620470D02*
D03*
Y613970D02*
D03*
D62*
Y607470D02*
D03*
D63*
X595200Y771780D02*
D03*
X573200Y787780D02*
D03*
Y771780D02*
D03*
D64*
X595200Y787780D02*
D03*
D65*
X476899Y697771D02*
D03*
X463399D02*
D03*
D66*
X242810Y482056D02*
D03*
D67*
Y472056D02*
D03*
X262510Y482056D02*
D03*
Y472056D02*
D03*
D68*
X431002Y478778D02*
D03*
X476002Y500278D02*
D03*
Y478778D02*
D03*
X105372Y359586D02*
D03*
X60372Y338086D02*
D03*
Y359586D02*
D03*
D69*
X431002Y500278D02*
D03*
X105372Y338086D02*
D03*
D70*
X65000Y894080D02*
D03*
X25400D02*
D03*
D71*
X78740Y645680D02*
D03*
Y685280D02*
D03*
X91440Y475500D02*
D03*
Y515100D02*
D03*
D72*
X292100Y683260D02*
D03*
D73*
X308100D02*
D03*
D74*
X402982Y550873D02*
D03*
X407982D02*
D03*
X412982D02*
D03*
X417982D02*
D03*
X422982D02*
D03*
X427982D02*
D03*
X432982D02*
D03*
X437982D02*
D03*
X442982D02*
D03*
Y519623D02*
D03*
X437982D02*
D03*
X432982D02*
D03*
X427982D02*
D03*
X422982D02*
D03*
X417982D02*
D03*
X412982D02*
D03*
X407982D02*
D03*
X402982D02*
D03*
X397982D02*
D03*
Y550873D02*
D03*
D75*
X443607Y542748D02*
D03*
Y537748D02*
D03*
Y532748D02*
D03*
Y527748D02*
D03*
X397357D02*
D03*
Y532748D02*
D03*
Y537748D02*
D03*
Y542748D02*
D03*
D130*
X512750Y754250D02*
D03*
D131*
X121920Y810260D02*
D03*
D132*
X520954Y940054D02*
D03*
X483108D02*
D03*
D133*
X577342Y986536D02*
D03*
D134*
X252660Y477056D02*
D03*
D135*
X270732Y290376D02*
D03*
X251732D02*
D03*
X232732D02*
D03*
X213732D02*
D03*
X194732D02*
D03*
Y158376D02*
D03*
X213732D02*
D03*
X232732D02*
D03*
X251732D02*
D03*
X270732D02*
D03*
D136*
X298732Y262376D02*
D03*
X166732D02*
D03*
X298732Y243376D02*
D03*
X166732D02*
D03*
X298732Y224376D02*
D03*
X166732D02*
D03*
X298732Y205376D02*
D03*
X166732D02*
D03*
X298732Y186376D02*
D03*
X166732D02*
D03*
D137*
X520250Y798750D02*
Y830892D01*
X520618Y840060D02*
Y855980D01*
Y870040D01*
Y940226D02*
X520954Y940562D01*
X520618Y878840D02*
Y940226D01*
D138*
X361950Y971550D02*
D03*
Y946150D02*
D03*
Y920750D02*
D03*
Y895350D02*
D03*
Y844550D02*
D03*
Y869950D02*
D03*
X25400Y960120D02*
D03*
X262636Y399034D02*
D03*
X237236D02*
D03*
X211836D02*
D03*
X186436D02*
D03*
X255016Y658368D02*
D03*
Y632968D02*
D03*
X164592Y542036D02*
D03*
Y516636D02*
D03*
Y491236D02*
D03*
Y465836D02*
D03*
X229800Y552054D02*
D03*
X255200D02*
D03*
X280600D02*
D03*
X306000D02*
D03*
X459740Y607060D02*
D03*
X434340D02*
D03*
X408940D02*
D03*
X383540D02*
D03*
X266700Y708660D02*
D03*
X292100D02*
D03*
X25400Y670560D02*
D03*
D139*
X41986Y528014D02*
D03*
Y478014D02*
D03*
D140*
X14986Y538014D02*
D03*
Y468014D02*
D03*
D141*
X25400Y934720D02*
D03*
Y645160D02*
D03*
D142*
X123308Y678560D02*
D03*
Y653160D02*
D03*
D143*
Y627760D02*
D03*
D144*
X453750Y532500D02*
D03*
X457500Y538000D02*
D03*
X459250Y830750D02*
D03*
X461500Y815000D02*
D03*
X711708Y650240D02*
D03*
X700024Y650494D02*
D03*
X715645Y550926D02*
D03*
X273558Y482346D02*
D03*
X74168Y600964D02*
D03*
X73914Y616712D02*
D03*
X177546Y769620D02*
D03*
X76962Y716661D02*
D03*
X616712Y620776D02*
D03*
X143002Y629158D02*
D03*
X60960Y490220D02*
D03*
X397431Y848992D02*
D03*
X383461Y846074D02*
D03*
X615250Y730250D02*
D03*
X510500Y657000D02*
D03*
X531750Y653750D02*
D03*
X546750D02*
D03*
X567250Y649500D02*
D03*
X648153Y744219D02*
D03*
X635250Y732750D02*
D03*
X294000Y948000D02*
D03*
X323750Y933000D02*
D03*
X323797Y917453D02*
D03*
X266500Y968750D02*
D03*
X249000Y969000D02*
D03*
X270310Y909211D02*
D03*
X390414Y819277D02*
D03*
X396250Y745750D02*
D03*
X383461Y871382D02*
D03*
X340487Y857737D02*
D03*
X342750Y741250D02*
D03*
X342250Y756793D02*
D03*
X324601Y751399D02*
D03*
X352679Y749554D02*
D03*
X329000Y735250D02*
D03*
X425750Y770000D02*
D03*
X372872Y802894D02*
D03*
X596250Y525000D02*
D03*
X576500D02*
D03*
X668528Y538226D02*
D03*
X587675Y507111D02*
D03*
X576116Y798532D02*
D03*
X446250Y770780D02*
D03*
X574500Y749250D02*
D03*
X388874Y556260D02*
D03*
X492468Y478828D02*
D03*
X509524Y521970D02*
D03*
X86360Y934720D02*
D03*
X483826Y663492D02*
D03*
X433578Y667766D02*
D03*
X655066Y820166D02*
D03*
X147574Y590550D02*
D03*
X609346Y590042D02*
D03*
X610616Y608838D02*
D03*
Y640842D02*
D03*
X622554Y655320D02*
D03*
X611124Y654112D02*
D03*
X635000Y639826D02*
D03*
X634492Y654112D02*
D03*
X668255Y556943D02*
D03*
X379028Y753491D02*
D03*
X264414Y765048D02*
D03*
X92202Y455168D02*
D03*
X367976Y630480D02*
D03*
X355600Y651204D02*
D03*
X345118Y630741D02*
D03*
X240284Y816356D02*
D03*
X373126Y820420D02*
D03*
X356321Y609135D02*
D03*
X371485Y678185D02*
D03*
X408043Y666739D02*
D03*
X391033Y690123D02*
D03*
X408043Y689598D02*
D03*
X391033Y667263D02*
D03*
X319571Y683729D02*
D03*
X473456Y715518D02*
D03*
X470154Y675386D02*
D03*
X379028Y736914D02*
D03*
X391120Y772755D02*
D03*
X366141Y770890D02*
D03*
X390652Y787400D02*
D03*
X372618Y787654D02*
D03*
X586740Y548756D02*
D03*
X185420Y860044D02*
D03*
X45720Y739394D02*
D03*
X701040Y541020D02*
D03*
Y563880D02*
D03*
X670091Y757172D02*
D03*
X151452Y262476D02*
D03*
Y186276D02*
D03*
X270732Y304006D02*
D03*
X214122Y105156D02*
D03*
X236982D02*
D03*
X312922Y262376D02*
D03*
X315722Y186436D02*
D03*
X270002Y140716D02*
D03*
X104902Y369316D02*
D03*
X121920Y581660D02*
D03*
X418180Y560420D02*
D03*
X345440Y543560D02*
D03*
X393700Y584200D02*
D03*
X261937Y816547D02*
D03*
X264668Y512572D02*
D03*
X693420Y683260D02*
D03*
X390002Y526469D02*
D03*
X382382Y514928D02*
D03*
X374762Y492068D02*
D03*
X612140Y772160D02*
D03*
X194632Y305656D02*
D03*
Y143096D02*
D03*
X118432Y221836D02*
D03*
X90492Y381856D02*
D03*
X121920Y739140D02*
D03*
X101600D02*
D03*
X81280Y894080D02*
D03*
X78740Y701040D02*
D03*
X170180Y675640D02*
D03*
X226060Y670560D02*
D03*
X48260Y566420D02*
D03*
X681482Y551389D02*
D03*
X523240Y459740D02*
D03*
X522859Y478790D02*
D03*
X427990Y678180D02*
D03*
X474315Y653723D02*
D03*
X457200Y646430D02*
D03*
X461010Y627380D02*
D03*
X391160Y802640D02*
D03*
X77470Y732155D02*
D03*
D145*
X501468Y817419D02*
D03*
X399118Y912160D02*
D03*
Y962960D02*
D03*
Y950260D02*
D03*
X500740Y896064D02*
D03*
X480740Y896314D02*
D03*
X487740D02*
D03*
X528690Y799064D02*
D03*
X540841Y798546D02*
D03*
X567154Y813556D02*
D03*
X560454Y805306D02*
D03*
X553905Y798037D02*
D03*
X548091Y804546D02*
D03*
X535391D02*
D03*
X541940Y811814D02*
D03*
X554640D02*
D03*
X548640Y820064D02*
D03*
X561340D02*
D03*
X574040D02*
D03*
X535940D02*
D03*
X528690Y811064D02*
D03*
Y836564D02*
D03*
Y824564D02*
D03*
X501440Y854714D02*
D03*
Y880114D02*
D03*
Y829314D02*
D03*
Y866314D02*
D03*
Y841064D02*
D03*
X471266Y900514D02*
D03*
X512190Y808064D02*
D03*
Y831814D02*
D03*
Y857064D02*
D03*
Y882814D02*
D03*
X91440Y32664D02*
D03*
X78740D02*
D03*
X66040D02*
D03*
X53340D02*
D03*
X40640D02*
D03*
X27940D02*
D03*
X104140D02*
D03*
X116840D02*
D03*
X129540D02*
D03*
X167640D02*
D03*
X154940D02*
D03*
X142240D02*
D03*
X377190Y273964D02*
D03*
X250190Y324764D02*
D03*
X471986Y963290D02*
D03*
X224790Y426364D02*
D03*
X46990Y45364D02*
D03*
X586740Y870864D02*
D03*
X218440Y32664D02*
D03*
X396240D02*
D03*
X275590Y273964D02*
D03*
X288290Y96164D02*
D03*
X364490Y426364D02*
D03*
X78740Y312064D02*
D03*
X389890Y172364D02*
D03*
Y223164D02*
D03*
X459286Y906140D02*
D03*
X567690Y832764D02*
D03*
X605790Y883564D02*
D03*
X408940Y286664D02*
D03*
X193040Y58064D02*
D03*
X262890Y45364D02*
D03*
X173990Y299364D02*
D03*
Y426364D02*
D03*
X269240Y413664D02*
D03*
X326390Y197764D02*
D03*
X421640Y185064D02*
D03*
X618490Y832764D02*
D03*
X275590Y350164D02*
D03*
X288290Y426364D02*
D03*
X351790Y273964D02*
D03*
X135890Y96164D02*
D03*
X300990Y45364D02*
D03*
X415290Y426364D02*
D03*
X580390Y832764D02*
D03*
X364490Y121564D02*
D03*
X300990Y324764D02*
D03*
X53340Y235864D02*
D03*
X262890Y273964D02*
D03*
X218440Y261264D02*
D03*
X402590Y197764D02*
D03*
X389890Y350164D02*
D03*
X53340Y185064D02*
D03*
X300990Y172364D02*
D03*
X618490Y858164D02*
D03*
X561340Y845464D02*
D03*
X313690Y121564D02*
D03*
X383540Y413664D02*
D03*
X116840D02*
D03*
X471986Y925190D02*
D03*
X167640Y83464D02*
D03*
X402590Y273964D02*
D03*
X199390Y70764D02*
D03*
X396240Y108864D02*
D03*
X612140Y870864D02*
D03*
X110490Y70764D02*
D03*
X554990Y858164D02*
D03*
X167640Y108864D02*
D03*
X91440Y185064D02*
D03*
X59690Y70764D02*
D03*
X142240Y159664D02*
D03*
X471986Y975990D02*
D03*
X193040Y83464D02*
D03*
X135890Y350164D02*
D03*
X421640Y83464D02*
D03*
X408940Y337464D02*
D03*
X237490Y223164D02*
D03*
X281940Y134264D02*
D03*
X389890Y121564D02*
D03*
X129540Y337464D02*
D03*
X34290Y121564D02*
D03*
X262890Y248564D02*
D03*
X269240Y210464D02*
D03*
X351790Y45364D02*
D03*
X370840Y134264D02*
D03*
X377190Y400964D02*
D03*
X161290Y426364D02*
D03*
X415290Y324764D02*
D03*
X212090Y45364D02*
D03*
X313690Y146964D02*
D03*
X269240Y312064D02*
D03*
X713740Y845464D02*
D03*
X110490Y172364D02*
D03*
X408940Y235864D02*
D03*
X243840D02*
D03*
X27940Y185064D02*
D03*
X129540Y58064D02*
D03*
X339090Y146964D02*
D03*
X237490Y248564D02*
D03*
X205740Y58064D02*
D03*
X173990Y96164D02*
D03*
X351790Y375564D02*
D03*
X250190Y350164D02*
D03*
X320040Y286664D02*
D03*
X612140Y845464D02*
D03*
X27940Y58064D02*
D03*
X402590Y96164D02*
D03*
X275590Y426364D02*
D03*
X199390Y45364D02*
D03*
X415290Y375564D02*
D03*
X446586Y925190D02*
D03*
X427990Y883564D02*
D03*
X389890Y324764D02*
D03*
X427990Y400964D02*
D03*
X224790Y375564D02*
D03*
X148590Y172364D02*
D03*
X224790Y70764D02*
D03*
X237490Y96164D02*
D03*
X345440Y261264D02*
D03*
X612140Y896264D02*
D03*
X167640Y286664D02*
D03*
X193040Y210464D02*
D03*
X256540Y337464D02*
D03*
X78740Y286664D02*
D03*
X512190Y894814D02*
D03*
X402590Y172364D02*
D03*
X574040Y870864D02*
D03*
X250190Y96164D02*
D03*
X97790Y45364D02*
D03*
X459740Y896264D02*
D03*
X446586Y937890D02*
D03*
X713740Y896264D02*
D03*
X281940Y83464D02*
D03*
X408940Y896264D02*
D03*
X370840Y413664D02*
D03*
Y312064D02*
D03*
X656590Y883564D02*
D03*
X78740Y235864D02*
D03*
X605790Y858164D02*
D03*
X383540Y312064D02*
D03*
X320040Y83464D02*
D03*
X326390Y426364D02*
D03*
X478790Y883564D02*
D03*
X358140Y210464D02*
D03*
X193040Y337464D02*
D03*
X415290Y223164D02*
D03*
X427990Y324764D02*
D03*
X300990Y350164D02*
D03*
X707390Y883564D02*
D03*
X402590Y324764D02*
D03*
X135890Y172364D02*
D03*
X593090Y832764D02*
D03*
X40640Y58064D02*
D03*
X631190Y832764D02*
D03*
X85090Y248564D02*
D03*
X148590Y426364D02*
D03*
X59690Y299364D02*
D03*
X351790Y96164D02*
D03*
X408940Y134264D02*
D03*
X459740Y870864D02*
D03*
X142240Y362864D02*
D03*
X307340Y413664D02*
D03*
X186690Y45364D02*
D03*
X542290Y858164D02*
D03*
X339090Y45364D02*
D03*
X59690Y96164D02*
D03*
X320040Y32664D02*
D03*
X650240Y870864D02*
D03*
X427990Y70764D02*
D03*
X27940Y108864D02*
D03*
X72390Y375564D02*
D03*
X53340Y83464D02*
D03*
X294640D02*
D03*
X421640Y108864D02*
D03*
X97790Y197764D02*
D03*
X288290Y121564D02*
D03*
X237490Y426364D02*
D03*
X148590Y197764D02*
D03*
X320040Y210464D02*
D03*
X129540Y108864D02*
D03*
X205740D02*
D03*
X59690Y223164D02*
D03*
X288290Y375564D02*
D03*
X199390Y248564D02*
D03*
X535940Y896264D02*
D03*
X85090Y299364D02*
D03*
X123190Y324764D02*
D03*
X688340Y845464D02*
D03*
Y870864D02*
D03*
X123190Y70764D02*
D03*
X675640Y845464D02*
D03*
X471986Y988690D02*
D03*
X707390Y832764D02*
D03*
X135890Y375564D02*
D03*
X275590Y324764D02*
D03*
X313690Y96164D02*
D03*
X364490Y223164D02*
D03*
X135890Y426364D02*
D03*
X180340Y413664D02*
D03*
X205740Y235864D02*
D03*
X408486Y918840D02*
D03*
X402590Y70764D02*
D03*
X256540Y413664D02*
D03*
X237490Y45364D02*
D03*
X421640Y159664D02*
D03*
X643890Y858164D02*
D03*
X27940Y337464D02*
D03*
X116840Y159664D02*
D03*
X275590Y45364D02*
D03*
X123190Y197764D02*
D03*
X180340Y58064D02*
D03*
X148590Y324764D02*
D03*
X681990Y832764D02*
D03*
X148590Y45364D02*
D03*
X427990Y299364D02*
D03*
X269240Y235864D02*
D03*
X415290Y96164D02*
D03*
X326390Y146964D02*
D03*
X123190Y172364D02*
D03*
X218440Y210464D02*
D03*
X332740Y337464D02*
D03*
X402590Y400964D02*
D03*
X199390Y121564D02*
D03*
X231140Y83464D02*
D03*
X415290Y273964D02*
D03*
X339090D02*
D03*
X34290Y96164D02*
D03*
X167640Y312064D02*
D03*
X345440Y32664D02*
D03*
Y134264D02*
D03*
X46990Y248564D02*
D03*
X358140Y362864D02*
D03*
X396240Y388264D02*
D03*
X91440Y83464D02*
D03*
X180340Y261264D02*
D03*
X256540Y312064D02*
D03*
X123190Y146964D02*
D03*
X78740Y261264D02*
D03*
X351790Y223164D02*
D03*
X300990Y375564D02*
D03*
X358140Y134264D02*
D03*
X237490Y197764D02*
D03*
X307340Y58064D02*
D03*
X351790Y146964D02*
D03*
X459286Y982340D02*
D03*
X243840Y210464D02*
D03*
X421640Y413664D02*
D03*
X377190Y70764D02*
D03*
X186690Y223164D02*
D03*
X148590Y121564D02*
D03*
X180340Y159664D02*
D03*
X66040D02*
D03*
X256540Y210464D02*
D03*
X332740Y134264D02*
D03*
X364490Y197764D02*
D03*
X186690Y350164D02*
D03*
X275590Y121564D02*
D03*
X421640Y312064D02*
D03*
X491490Y883564D02*
D03*
X440690D02*
D03*
X180340Y362864D02*
D03*
X53340Y108864D02*
D03*
X446586Y988690D02*
D03*
X59690Y324764D02*
D03*
X414890Y860114D02*
D03*
X46990Y324764D02*
D03*
X173990Y172364D02*
D03*
X339090Y426364D02*
D03*
X154940Y312064D02*
D03*
X269240Y362864D02*
D03*
X408940Y413664D02*
D03*
X78740Y185064D02*
D03*
X97790Y172364D02*
D03*
X364490Y96164D02*
D03*
X681990Y858164D02*
D03*
X452990Y860114D02*
D03*
X294640Y413664D02*
D03*
X389890Y375564D02*
D03*
X383540Y108864D02*
D03*
X535940Y845464D02*
D03*
X567690Y858164D02*
D03*
X408940Y185064D02*
D03*
X624840Y845464D02*
D03*
X72390Y223164D02*
D03*
X732790Y832764D02*
D03*
X345440Y83464D02*
D03*
X173990Y375564D02*
D03*
X116840Y83464D02*
D03*
X399118Y924860D02*
D03*
X173990Y121564D02*
D03*
X97790Y350164D02*
D03*
X256540Y83464D02*
D03*
X631190Y883564D02*
D03*
X326390Y45364D02*
D03*
X46990Y426364D02*
D03*
X91440Y261264D02*
D03*
X123190Y273964D02*
D03*
X97790Y426364D02*
D03*
X205740Y413664D02*
D03*
X256540Y362864D02*
D03*
X453390Y883564D02*
D03*
X599440Y845464D02*
D03*
X91440Y108864D02*
D03*
X339090Y70764D02*
D03*
X554990Y883564D02*
D03*
X78740Y108864D02*
D03*
X91440Y413664D02*
D03*
X402590Y248564D02*
D03*
X53340Y210464D02*
D03*
X66040Y312064D02*
D03*
X332740Y235864D02*
D03*
X123190Y45364D02*
D03*
X383540Y337464D02*
D03*
X669290Y883564D02*
D03*
X59690Y350164D02*
D03*
X161290Y172364D02*
D03*
X383540Y58064D02*
D03*
X446586Y950590D02*
D03*
X53340Y58064D02*
D03*
X345440Y235864D02*
D03*
X205740Y261264D02*
D03*
X46990Y121564D02*
D03*
X27940Y312064D02*
D03*
X402590Y299364D02*
D03*
X212090Y96164D02*
D03*
X66040Y286664D02*
D03*
X262890Y324764D02*
D03*
X231140Y185064D02*
D03*
X269240Y388264D02*
D03*
X669290Y832764D02*
D03*
X471986Y912490D02*
D03*
X250190Y45364D02*
D03*
X593090Y883564D02*
D03*
X408486Y931540D02*
D03*
X358140Y413664D02*
D03*
X237490Y70764D02*
D03*
X72390Y350164D02*
D03*
X377190Y248564D02*
D03*
X186690Y96164D02*
D03*
X256540Y388264D02*
D03*
X415290Y121564D02*
D03*
X427990Y45364D02*
D03*
X110490D02*
D03*
X377190Y146964D02*
D03*
X288290Y400964D02*
D03*
X173990Y146964D02*
D03*
X364490Y70764D02*
D03*
X339090Y96164D02*
D03*
X396240Y159664D02*
D03*
X542290Y832764D02*
D03*
X307340Y32664D02*
D03*
X332740Y261264D02*
D03*
X72390Y45364D02*
D03*
X148590Y70764D02*
D03*
X377190Y350164D02*
D03*
X104140Y58064D02*
D03*
X91440Y210464D02*
D03*
X224790Y350164D02*
D03*
X262890Y197764D02*
D03*
X97790Y248564D02*
D03*
X529590Y883564D02*
D03*
X243840Y83464D02*
D03*
X351790Y426364D02*
D03*
X199390Y324764D02*
D03*
X46990Y273964D02*
D03*
X161290Y324764D02*
D03*
X427990Y426364D02*
D03*
X167640Y413664D02*
D03*
X288290Y273964D02*
D03*
X421640Y134264D02*
D03*
X574040Y896264D02*
D03*
X707390Y858164D02*
D03*
X142240Y413664D02*
D03*
X389890Y273964D02*
D03*
X561340Y896264D02*
D03*
X256540Y235864D02*
D03*
X332740Y185064D02*
D03*
X339090Y400964D02*
D03*
X27940Y286664D02*
D03*
X434340Y896264D02*
D03*
X313690Y70764D02*
D03*
X199390Y273964D02*
D03*
X72390Y426364D02*
D03*
X669290Y858164D02*
D03*
X364490Y350164D02*
D03*
X250190Y121564D02*
D03*
X243840Y413664D02*
D03*
X574040Y845464D02*
D03*
X313690Y45364D02*
D03*
X364490Y273964D02*
D03*
X186690Y324764D02*
D03*
X396240Y83464D02*
D03*
X186690Y375564D02*
D03*
X358140Y32664D02*
D03*
X433886Y918840D02*
D03*
X66040Y108864D02*
D03*
X421186Y912490D02*
D03*
X320040Y362864D02*
D03*
X27940Y159664D02*
D03*
X173990Y350164D02*
D03*
X243840Y337464D02*
D03*
X326390Y324764D02*
D03*
X72390Y146964D02*
D03*
X637540Y896264D02*
D03*
X408940Y32664D02*
D03*
X732790Y883564D02*
D03*
X320040Y388264D02*
D03*
X300990Y426364D02*
D03*
X307340Y312064D02*
D03*
X339090Y375564D02*
D03*
X275590D02*
D03*
X148590Y146964D02*
D03*
X142240Y58064D02*
D03*
X40640Y83464D02*
D03*
X624840Y870864D02*
D03*
X650240Y845464D02*
D03*
X231140Y32664D02*
D03*
X408940Y388264D02*
D03*
X199390Y197764D02*
D03*
X326390Y299364D02*
D03*
X402590Y350164D02*
D03*
X408486Y944240D02*
D03*
X224790Y96164D02*
D03*
X262890Y223164D02*
D03*
X433886Y944240D02*
D03*
X53340Y413664D02*
D03*
X275590Y197764D02*
D03*
X370840Y362864D02*
D03*
X307340Y337464D02*
D03*
X358140Y108864D02*
D03*
X85090Y273964D02*
D03*
X281940Y337464D02*
D03*
X72390Y248564D02*
D03*
X364490Y375564D02*
D03*
X396240Y235864D02*
D03*
X288290Y45364D02*
D03*
X415290Y350164D02*
D03*
X681990Y883564D02*
D03*
X27940Y413664D02*
D03*
X339090Y324764D02*
D03*
X326390Y70764D02*
D03*
X389890Y146964D02*
D03*
X383540Y261264D02*
D03*
X250190Y70764D02*
D03*
X332740Y413664D02*
D03*
X512190Y820064D02*
D03*
X256540Y261264D02*
D03*
X129540Y159664D02*
D03*
X224790Y273964D02*
D03*
X364490Y299364D02*
D03*
X377190Y223164D02*
D03*
X72390Y70764D02*
D03*
X408940Y159664D02*
D03*
X427990Y121564D02*
D03*
X447040Y870864D02*
D03*
X548640D02*
D03*
X396240Y337464D02*
D03*
X256540Y185064D02*
D03*
X66040Y261264D02*
D03*
X288290Y324764D02*
D03*
X53340Y261264D02*
D03*
X186690Y248564D02*
D03*
X193040Y235864D02*
D03*
X320040Y159664D02*
D03*
X351790Y197764D02*
D03*
X224790Y248564D02*
D03*
X339090Y197764D02*
D03*
X389890Y45364D02*
D03*
X46990Y350164D02*
D03*
X72390Y96164D02*
D03*
X212090Y248564D02*
D03*
X421640Y286664D02*
D03*
X440290Y860114D02*
D03*
X300990Y273964D02*
D03*
X339090Y350164D02*
D03*
X193040Y185064D02*
D03*
X78740Y159664D02*
D03*
X27940Y261264D02*
D03*
X332740Y210464D02*
D03*
X358140Y286664D02*
D03*
X205740Y185064D02*
D03*
X269240Y32664D02*
D03*
X313690Y400964D02*
D03*
X389890Y248564D02*
D03*
X408486Y906140D02*
D03*
X427990Y248564D02*
D03*
X345440Y286664D02*
D03*
X212090Y197764D02*
D03*
X135890Y146964D02*
D03*
X427990D02*
D03*
X364490Y248564D02*
D03*
X167640Y337464D02*
D03*
X256540Y58064D02*
D03*
X180340Y312064D02*
D03*
X161290Y146964D02*
D03*
X250190Y197764D02*
D03*
X110490D02*
D03*
X275590Y248564D02*
D03*
X599440Y896264D02*
D03*
X104140Y185064D02*
D03*
X199390Y375564D02*
D03*
X53340Y388264D02*
D03*
X193040Y261264D02*
D03*
X345440Y58064D02*
D03*
X72390Y273964D02*
D03*
X154940Y58064D02*
D03*
X358140Y83464D02*
D03*
X173990Y70764D02*
D03*
X231140Y261264D02*
D03*
X383540Y134264D02*
D03*
X72390Y299364D02*
D03*
X262890Y350164D02*
D03*
X173990Y273964D02*
D03*
X694690Y883564D02*
D03*
X85090Y375564D02*
D03*
X307340Y388264D02*
D03*
X675640Y870864D02*
D03*
X459286Y944240D02*
D03*
X300990Y299364D02*
D03*
X66040Y388264D02*
D03*
X53340Y159664D02*
D03*
X427990Y273964D02*
D03*
X408940Y312064D02*
D03*
X269240Y337464D02*
D03*
X650240Y896264D02*
D03*
X364490Y400964D02*
D03*
X205740Y210464D02*
D03*
X281940Y388264D02*
D03*
X332740Y312064D02*
D03*
X383540Y32664D02*
D03*
X415290Y248564D02*
D03*
X110490Y426364D02*
D03*
X662940Y870864D02*
D03*
X701040D02*
D03*
X421186Y937890D02*
D03*
X53340Y134264D02*
D03*
X199390Y96164D02*
D03*
X421640Y337464D02*
D03*
X104140Y83464D02*
D03*
X656590Y858164D02*
D03*
X326390Y172364D02*
D03*
X186690Y273964D02*
D03*
X408486Y956940D02*
D03*
X104140Y159664D02*
D03*
X46990Y96164D02*
D03*
X154940Y159664D02*
D03*
X383540D02*
D03*
X389890Y299364D02*
D03*
X180340Y108864D02*
D03*
X396240Y413664D02*
D03*
X358140Y58064D02*
D03*
X472440Y870864D02*
D03*
X224790Y121564D02*
D03*
X339090Y248564D02*
D03*
X275590Y96164D02*
D03*
X123190Y299364D02*
D03*
X129540Y83464D02*
D03*
X294640Y134264D02*
D03*
X364490Y45364D02*
D03*
X53340Y286664D02*
D03*
X313690Y197764D02*
D03*
X345440Y210464D02*
D03*
X161290Y273964D02*
D03*
X358140Y337464D02*
D03*
X199390Y223164D02*
D03*
X231140Y210464D02*
D03*
X313690Y273964D02*
D03*
X275590Y172364D02*
D03*
X78740Y83464D02*
D03*
X326390Y96164D02*
D03*
X161290D02*
D03*
X193040Y362864D02*
D03*
X351790Y121564D02*
D03*
X320040Y337464D02*
D03*
X326390Y248564D02*
D03*
X370840Y210464D02*
D03*
X135890Y45364D02*
D03*
X186690Y121564D02*
D03*
X732790Y858164D02*
D03*
X402590Y883564D02*
D03*
X281940Y108864D02*
D03*
X408940Y58064D02*
D03*
X427990Y96164D02*
D03*
X688340Y896264D02*
D03*
X370840Y185064D02*
D03*
X59690Y121564D02*
D03*
X85090Y324764D02*
D03*
X415290Y45364D02*
D03*
X427990Y350164D02*
D03*
X46990Y172364D02*
D03*
X561340Y870864D02*
D03*
X656590Y832764D02*
D03*
X326390Y350164D02*
D03*
X250190Y248564D02*
D03*
X294640Y108864D02*
D03*
X402590Y426364D02*
D03*
X580390Y883564D02*
D03*
X123190Y248564D02*
D03*
X212090Y273964D02*
D03*
X643890Y883564D02*
D03*
X383540Y362864D02*
D03*
X345440Y337464D02*
D03*
X415290Y70764D02*
D03*
X97790Y299364D02*
D03*
X173990Y45364D02*
D03*
X332740Y362864D02*
D03*
X399118Y988360D02*
D03*
X377190Y197764D02*
D03*
X224790Y223164D02*
D03*
X154940Y108864D02*
D03*
X332740Y159664D02*
D03*
X161290Y45364D02*
D03*
X332740Y388264D02*
D03*
X370840Y32664D02*
D03*
X294640Y312064D02*
D03*
X465690Y860114D02*
D03*
X427990Y172364D02*
D03*
X377190Y45364D02*
D03*
X383540Y235864D02*
D03*
X408940Y83464D02*
D03*
X294640Y388264D02*
D03*
X72390Y324764D02*
D03*
X345440Y159664D02*
D03*
X471986Y937890D02*
D03*
X421640Y32664D02*
D03*
X326390Y223164D02*
D03*
X402590Y45364D02*
D03*
X694690Y832764D02*
D03*
X433886Y931540D02*
D03*
X370840Y286664D02*
D03*
X59690Y172364D02*
D03*
X358140Y312064D02*
D03*
X389890Y400964D02*
D03*
X27940Y83464D02*
D03*
X148590Y273964D02*
D03*
X53340Y312064D02*
D03*
X307340Y362864D02*
D03*
X313690Y324764D02*
D03*
X643890Y832764D02*
D03*
X339090Y172364D02*
D03*
X97790Y223164D02*
D03*
X104140Y413664D02*
D03*
X586740Y896264D02*
D03*
X726440Y845464D02*
D03*
X421640Y261264D02*
D03*
X294640Y337464D02*
D03*
X281940Y210464D02*
D03*
X78740Y413664D02*
D03*
X421640Y235864D02*
D03*
X370840Y261264D02*
D03*
X275590Y400964D02*
D03*
X313690Y248564D02*
D03*
X408486Y982340D02*
D03*
X212090Y223164D02*
D03*
X408486Y969640D02*
D03*
X40640Y108864D02*
D03*
X288290Y172364D02*
D03*
X85090D02*
D03*
X91440Y58064D02*
D03*
X326390Y121564D02*
D03*
X351790Y299364D02*
D03*
X148590Y96164D02*
D03*
X97790Y146964D02*
D03*
X262890Y426364D02*
D03*
X288290Y299364D02*
D03*
X218440Y83464D02*
D03*
X262890Y96164D02*
D03*
X351790Y248564D02*
D03*
X46990Y223164D02*
D03*
X396240Y362864D02*
D03*
X180340Y185064D02*
D03*
Y83464D02*
D03*
X370840Y108864D02*
D03*
X307340Y159664D02*
D03*
X300990Y146964D02*
D03*
X199390Y350164D02*
D03*
X294640Y159664D02*
D03*
X421186Y963290D02*
D03*
X300990Y121564D02*
D03*
X288290Y146964D02*
D03*
X326390Y400964D02*
D03*
X269240Y108864D02*
D03*
X186690Y70764D02*
D03*
X231140Y58064D02*
D03*
X459286Y918840D02*
D03*
X446586Y963290D02*
D03*
X313690Y172364D02*
D03*
X370840Y159664D02*
D03*
X243840Y32664D02*
D03*
X193040D02*
D03*
X377190Y299364D02*
D03*
X415290Y146964D02*
D03*
X345440Y388264D02*
D03*
X377190Y426364D02*
D03*
X345440Y413664D02*
D03*
X243840Y362864D02*
D03*
X123190Y96164D02*
D03*
X129540Y185064D02*
D03*
X320040Y413664D02*
D03*
X110490Y350164D02*
D03*
X370840Y83464D02*
D03*
X694690Y858164D02*
D03*
X408940Y108864D02*
D03*
X85090Y96164D02*
D03*
X97790Y70764D02*
D03*
X427590Y860114D02*
D03*
X262890Y172364D02*
D03*
X427990Y223164D02*
D03*
X421640Y362864D02*
D03*
X528690Y847364D02*
D03*
X231140Y235864D02*
D03*
X720090Y883564D02*
D03*
X66040Y58064D02*
D03*
X281940Y312064D02*
D03*
X27940Y362864D02*
D03*
X332740Y108864D02*
D03*
X402590Y375564D02*
D03*
X408940Y261264D02*
D03*
X243840Y312064D02*
D03*
X433886Y906140D02*
D03*
X256540Y32664D02*
D03*
X459286Y969640D02*
D03*
X396240Y134264D02*
D03*
X358140Y261264D02*
D03*
X85090Y146964D02*
D03*
X218440Y58064D02*
D03*
X421640Y210464D02*
D03*
X383540Y388264D02*
D03*
X478390Y860114D02*
D03*
X294640Y286664D02*
D03*
X720090Y858164D02*
D03*
X402590Y146964D02*
D03*
X345440Y108864D02*
D03*
X605790Y832764D02*
D03*
X396240Y312064D02*
D03*
X154940Y286664D02*
D03*
X256540Y108864D02*
D03*
X59690Y248564D02*
D03*
X281940Y362864D02*
D03*
X351790Y70764D02*
D03*
X370840Y388264D02*
D03*
X66040Y210464D02*
D03*
X631190Y858164D02*
D03*
X34290Y146964D02*
D03*
X97790Y96164D02*
D03*
X275590Y70764D02*
D03*
X389890Y197764D02*
D03*
X205740Y362864D02*
D03*
X554990Y832764D02*
D03*
X320040Y312064D02*
D03*
X637540Y845464D02*
D03*
X421186Y925190D02*
D03*
X205740Y83464D02*
D03*
X224790Y197764D02*
D03*
X326390Y273964D02*
D03*
X224790Y45364D02*
D03*
X364490Y172364D02*
D03*
X180340Y286664D02*
D03*
X738540Y844564D02*
D03*
X116840Y261264D02*
D03*
X370840Y235864D02*
D03*
X421186Y950590D02*
D03*
X383540Y83464D02*
D03*
X399118Y937560D02*
D03*
X180340Y337464D02*
D03*
X199390Y172364D02*
D03*
X72390Y197764D02*
D03*
X281940Y261264D02*
D03*
X396240Y210464D02*
D03*
X447040Y896264D02*
D03*
X332740Y32664D02*
D03*
X313690Y375564D02*
D03*
X110490Y96164D02*
D03*
X250190Y223164D02*
D03*
Y400964D02*
D03*
X85090Y197764D02*
D03*
X491090Y860114D02*
D03*
X116840Y108864D02*
D03*
X161290Y299364D02*
D03*
X529190Y864636D02*
D03*
X377190Y375564D02*
D03*
X580390Y858164D02*
D03*
X637540Y870864D02*
D03*
X345440Y362864D02*
D03*
X307340Y134264D02*
D03*
X485140Y870864D02*
D03*
X161290Y121564D02*
D03*
X59690Y273964D02*
D03*
X66040Y185064D02*
D03*
X250190Y172364D02*
D03*
X662940Y845464D02*
D03*
X256540Y134264D02*
D03*
X320040D02*
D03*
Y235864D02*
D03*
X281940Y413664D02*
D03*
X351790Y350164D02*
D03*
X358140Y388264D02*
D03*
X34290Y45364D02*
D03*
X300990Y400964D02*
D03*
X618490Y883564D02*
D03*
X358140Y185064D02*
D03*
X46990Y197764D02*
D03*
X243840Y58064D02*
D03*
X313690Y299364D02*
D03*
X142240Y108864D02*
D03*
X593090Y858164D02*
D03*
X85090Y426364D02*
D03*
X402590Y121564D02*
D03*
X402190Y860114D02*
D03*
X281940Y235864D02*
D03*
X421640Y58064D02*
D03*
X104140Y108864D02*
D03*
X389890Y96164D02*
D03*
X701040Y845464D02*
D03*
X34290Y426364D02*
D03*
X332740Y83464D02*
D03*
X320040Y108864D02*
D03*
X459286Y931540D02*
D03*
X154940Y413664D02*
D03*
X116840Y312064D02*
D03*
X364490Y324764D02*
D03*
X281940Y185064D02*
D03*
X377190Y96164D02*
D03*
X548640Y896264D02*
D03*
X269240Y58064D02*
D03*
X288290Y350164D02*
D03*
X396240Y58064D02*
D03*
X91440Y235864D02*
D03*
X281940Y58064D02*
D03*
X59690Y197764D02*
D03*
X396240Y286664D02*
D03*
X313690Y223164D02*
D03*
X383540Y185064D02*
D03*
X701040Y896264D02*
D03*
X408940Y362864D02*
D03*
X364490Y146964D02*
D03*
X212090Y70764D02*
D03*
X205740Y337464D02*
D03*
X415290Y400964D02*
D03*
X427990Y375564D02*
D03*
X116840Y235864D02*
D03*
X433886Y956940D02*
D03*
X46990Y375564D02*
D03*
X300990Y70764D02*
D03*
X161290D02*
D03*
X205740Y32664D02*
D03*
X72390Y172364D02*
D03*
X351790Y324764D02*
D03*
X415290Y172364D02*
D03*
X281940Y32664D02*
D03*
X269240Y83464D02*
D03*
X339090Y223164D02*
D03*
X370840Y58064D02*
D03*
X339090Y299364D02*
D03*
X116840Y286664D02*
D03*
X250190Y426364D02*
D03*
X307340Y83464D02*
D03*
X586740Y845464D02*
D03*
X91440Y159664D02*
D03*
X269240Y261264D02*
D03*
X326390Y375564D02*
D03*
X116840Y185064D02*
D03*
X345440D02*
D03*
X738540Y896064D02*
D03*
X148590Y299364D02*
D03*
X186690Y172364D02*
D03*
X40640Y134264D02*
D03*
X313690Y426364D02*
D03*
X85090Y45364D02*
D03*
X135890Y197764D02*
D03*
X275590Y223164D02*
D03*
X27940Y388264D02*
D03*
X358140Y235864D02*
D03*
X288290Y70764D02*
D03*
X91440Y312064D02*
D03*
X389890Y426364D02*
D03*
X421640Y870864D02*
D03*
X535940D02*
D03*
X624840Y896264D02*
D03*
X383540Y286664D02*
D03*
X123190Y426364D02*
D03*
X377190Y324764D02*
D03*
X307340Y108864D02*
D03*
X389890Y70764D02*
D03*
X34290D02*
D03*
X512190Y870864D02*
D03*
X27940Y235864D02*
D03*
X142240Y83464D02*
D03*
X351790Y400964D02*
D03*
X262890Y121564D02*
D03*
X548640Y845464D02*
D03*
X46990Y70764D02*
D03*
X408940Y870864D02*
D03*
X59690Y45364D02*
D03*
X110490Y146964D02*
D03*
X294640Y58064D02*
D03*
X402590Y223164D02*
D03*
X377190Y121564D02*
D03*
X421640Y388264D02*
D03*
X599440Y870864D02*
D03*
X262890Y70764D02*
D03*
X433886Y969640D02*
D03*
X66040Y235864D02*
D03*
X97790Y324764D02*
D03*
X180340Y32664D02*
D03*
X345440Y312064D02*
D03*
X116840Y58064D02*
D03*
X142240Y185064D02*
D03*
X250190Y375564D02*
D03*
X512190Y845464D02*
D03*
X433886Y982340D02*
D03*
X78740Y58064D02*
D03*
X408940Y210464D02*
D03*
X294640Y32664D02*
D03*
X339090Y121564D02*
D03*
X459286Y956940D02*
D03*
X300990Y96164D02*
D03*
X218440Y235864D02*
D03*
X434340Y870864D02*
D03*
X383540Y210464D02*
D03*
X167640Y159664D02*
D03*
X542290Y883564D02*
D03*
X567690D02*
D03*
X59690Y426364D02*
D03*
X129540Y413664D02*
D03*
X396240Y185064D02*
D03*
X40640Y413664D02*
D03*
X91440Y286664D02*
D03*
X66040Y413664D02*
D03*
X415290Y883564D02*
D03*
X377190Y172364D02*
D03*
X675640Y896264D02*
D03*
X332740Y58064D02*
D03*
X358140Y159664D02*
D03*
X97790Y273964D02*
D03*
X662940Y896264D02*
D03*
X269240Y185064D02*
D03*
X66040Y83464D02*
D03*
X154940D02*
D03*
X218440Y185064D02*
D03*
X243840D02*
D03*
X332740Y286664D02*
D03*
X85090Y350164D02*
D03*
X738540Y870814D02*
D03*
X399118Y975660D02*
D03*
X713740Y870864D02*
D03*
X243840Y261264D02*
D03*
X726440Y870864D02*
D03*
X193040Y108864D02*
D03*
X421186Y988690D02*
D03*
X135890Y70764D02*
D03*
X186690Y197764D02*
D03*
X415290D02*
D03*
X237490Y273964D02*
D03*
X250190D02*
D03*
X320040Y58064D02*
D03*
X427990Y197764D02*
D03*
X59690Y375564D02*
D03*
X370840Y337464D02*
D03*
X294640Y362864D02*
D03*
X78740Y388264D02*
D03*
X471986Y950590D02*
D03*
X313690Y350164D02*
D03*
X421186Y975990D02*
D03*
X27940Y210464D02*
D03*
X85090Y223164D02*
D03*
X167640Y58064D02*
D03*
X726440Y896264D02*
D03*
X307340Y286664D02*
D03*
X78740Y210464D02*
D03*
X27940Y134264D02*
D03*
X262890Y375564D02*
D03*
X351790Y172364D02*
D03*
X173990Y324764D02*
D03*
X466090Y883564D02*
D03*
X421640Y896264D02*
D03*
X415290Y299364D02*
D03*
X720090Y832764D02*
D03*
X446586Y975990D02*
D03*
Y912490D02*
D03*
X396240Y261264D02*
D03*
X85090Y70764D02*
D03*
X46990Y299364D02*
D03*
D146*
X492750Y761250D02*
D03*
X505750D02*
D03*
X519750D02*
D03*
X532750D02*
D03*
Y747250D02*
D03*
X505750D02*
D03*
X492750D02*
D03*
X519750D02*
D03*
X492750Y774250D02*
D03*
X519750D02*
D03*
X532750D02*
D03*
X492750Y734250D02*
D03*
X505750D02*
D03*
X519750D02*
D03*
X532750D02*
D03*
X505750Y774250D02*
D03*
X121920Y803260D02*
D03*
Y817260D02*
D03*
X114920Y810260D02*
D03*
X128920D02*
D03*
M02*
