G04*
G04 #@! TF.GenerationSoftware,Altium Limited,Altium Designer,22.9.1 (49)*
G04*
G04 Layer_Color=65535*
%FSLAX44Y44*%
%MOMM*%
G71*
G04*
G04 #@! TF.SameCoordinates,0914E3C7-33D6-4C2E-B1A8-6EB065383EFC*
G04*
G04*
G04 #@! TF.FilePolarity,Positive*
G04*
G01*
G75*
%ADD10C,0.1524*%
%ADD11C,0.2540*%
%ADD12C,0.2500*%
%ADD13C,0.1000*%
%ADD14C,0.5080*%
%ADD15C,0.2000*%
%ADD16C,0.3048*%
%ADD17C,0.0500*%
%ADD18C,0.0762*%
%ADD19C,0.1500*%
%ADD20C,0.1270*%
%ADD21C,0.2050*%
%ADD22C,0.1778*%
%ADD23C,0.2032*%
D10*
X49530Y521556D02*
G03*
X49530Y521556I-762J0D01*
G01*
X621538Y590550D02*
G03*
X621538Y590550I-762J0D01*
G01*
X609600Y791972D02*
G03*
X609600Y791972I-762J0D01*
G01*
X25936Y540014D02*
X43486D01*
X25936Y466014D02*
X43486D01*
Y538214D02*
Y540014D01*
Y466014D02*
Y467814D01*
X621030Y593650D02*
Y600150D01*
Y593650D02*
X684530D01*
Y600150D01*
X621030D02*
X684530D01*
X564331Y787400D02*
Y795020D01*
X572262D01*
X564388Y764540D02*
X572008D01*
X564388D02*
Y772471D01*
X604012Y764540D02*
Y772160D01*
X596081Y764540D02*
X604012D01*
X596392Y795020D02*
X604012D01*
Y787089D02*
Y795020D01*
X199320Y448310D02*
Y571036D01*
X326320D01*
X199320Y448310D02*
X326320D01*
Y571036D01*
X529702Y448888D02*
Y626688D01*
X326502Y448888D02*
Y626688D01*
Y448310D02*
X529702D01*
X326502Y626688D02*
X529702D01*
X153250Y302722D02*
X185000D01*
X153250Y271472D02*
Y302722D01*
X279391Y303113D02*
X310641D01*
X310641Y303113D01*
Y271363D02*
Y303113D01*
X311482Y145876D02*
Y177126D01*
X311482Y145876D02*
X311482Y145876D01*
X279732Y145876D02*
X311482D01*
X154232Y145626D02*
X185482D01*
X154232Y145626D02*
X154232Y145626D01*
X154232Y145626D02*
Y177376D01*
X182524Y703044D02*
Y710661D01*
X185063Y708122D01*
X187602Y710661D01*
Y703044D01*
X195220Y709391D02*
X193950Y710661D01*
X191411D01*
X190142Y709391D01*
Y704313D01*
X191411Y703044D01*
X193950D01*
X195220Y704313D01*
X197759Y710661D02*
Y704313D01*
X199029Y703044D01*
X201568D01*
X202837Y704313D01*
Y710661D01*
X205377Y701774D02*
X210455D01*
X212994Y703044D02*
Y710661D01*
X216803D01*
X218072Y709391D01*
Y706852D01*
X216803Y705583D01*
X212994D01*
X224421Y710661D02*
X221881D01*
X220612Y709391D01*
Y704313D01*
X221881Y703044D01*
X224421D01*
X225690Y704313D01*
Y709391D01*
X224421Y710661D01*
X228229D02*
Y703044D01*
X230768Y705583D01*
X233308Y703044D01*
Y710661D01*
X240925D02*
X235847D01*
Y703044D01*
X240925D01*
X235847Y706852D02*
X238386D01*
X243464Y703044D02*
Y710661D01*
X247273D01*
X248543Y709391D01*
Y706852D01*
X247273Y705583D01*
X243464D01*
X246003D02*
X248543Y703044D01*
X704609Y574774D02*
X712226D01*
Y578583D01*
X710956Y579852D01*
X705878D01*
X704609Y578583D01*
Y574774D01*
Y587470D02*
Y582392D01*
X712226D01*
Y587470D01*
X708417Y582392D02*
Y584931D01*
X704609Y590009D02*
X712226D01*
Y593818D01*
X710956Y595087D01*
X709687D01*
X708417Y593818D01*
Y590009D01*
Y593818D01*
X707148Y595087D01*
X705878D01*
X704609Y593818D01*
Y590009D01*
Y597627D02*
X710956D01*
X712226Y598896D01*
Y601435D01*
X710956Y602705D01*
X704609D01*
X705878Y610322D02*
X704609Y609053D01*
Y606514D01*
X705878Y605244D01*
X710956D01*
X712226Y606514D01*
Y609053D01*
X710956Y610322D01*
X708417D01*
Y607783D01*
X720108Y671524D02*
X727726D01*
Y675333D01*
X726456Y676602D01*
X725187D01*
X723917Y675333D01*
Y671524D01*
Y675333D01*
X722648Y676602D01*
X721378D01*
X720108Y675333D01*
Y671524D01*
Y679141D02*
X726456D01*
X727726Y680411D01*
Y682950D01*
X726456Y684220D01*
X720108D01*
Y686759D02*
Y691837D01*
Y689298D01*
X727726D01*
X720108Y694377D02*
Y699455D01*
Y696916D01*
X727726D01*
X720108Y705803D02*
Y703264D01*
X721378Y701994D01*
X726456D01*
X727726Y703264D01*
Y705803D01*
X726456Y707073D01*
X721378D01*
X720108Y705803D01*
X727726Y709612D02*
X720108D01*
X727726Y714690D01*
X720108D01*
X276961Y941422D02*
X275691Y940152D01*
Y937613D01*
X276961Y936343D01*
X282039D01*
X283309Y937613D01*
Y940152D01*
X282039Y941422D01*
X276961Y943961D02*
X275691Y945230D01*
Y947770D01*
X276961Y949039D01*
X278230D01*
X279500Y947770D01*
Y946500D01*
Y947770D01*
X280770Y949039D01*
X282039D01*
X283309Y947770D01*
Y945230D01*
X282039Y943961D01*
X275691Y956657D02*
Y951578D01*
X279500D01*
X278230Y954118D01*
Y955387D01*
X279500Y956657D01*
X282039D01*
X283309Y955387D01*
Y952848D01*
X282039Y951578D01*
X234211Y943172D02*
X232941Y941902D01*
Y939363D01*
X234211Y938093D01*
X239289D01*
X240559Y939363D01*
Y941902D01*
X239289Y943172D01*
X234211Y945711D02*
X232941Y946980D01*
Y949520D01*
X234211Y950789D01*
X235480D01*
X236750Y949520D01*
Y948250D01*
Y949520D01*
X238020Y950789D01*
X239289D01*
X240559Y949520D01*
Y946980D01*
X239289Y945711D01*
X240559Y957137D02*
X232941D01*
X236750Y953328D01*
Y958407D01*
X410402Y765191D02*
Y772809D01*
X414211D01*
X415480Y771539D01*
Y769000D01*
X414211Y767730D01*
X410402D01*
X412941D02*
X415480Y765191D01*
X423098D02*
X418020D01*
X423098Y770270D01*
Y771539D01*
X421828Y772809D01*
X419289D01*
X418020Y771539D01*
X158878Y568959D02*
X156339D01*
X157609D01*
Y562611D01*
X156339Y561341D01*
X155070D01*
X153800Y562611D01*
X161418Y561341D02*
X163957D01*
X162687D01*
Y568959D01*
X161418Y567689D01*
X167766D02*
X169035Y568959D01*
X171574D01*
X172844Y567689D01*
Y562611D01*
X171574Y561341D01*
X169035D01*
X167766Y562611D01*
Y567689D01*
X686310Y670051D02*
X685040Y671321D01*
X682501D01*
X681231Y670051D01*
Y668782D01*
X682501Y667512D01*
X685040D01*
X686310Y666242D01*
Y664973D01*
X685040Y663703D01*
X682501D01*
X681231Y664973D01*
X688849Y671321D02*
Y663703D01*
X691388Y666242D01*
X693927Y663703D01*
Y671321D01*
X696466Y670051D02*
X697736Y671321D01*
X700275D01*
X701545Y670051D01*
Y668782D01*
X700275Y667512D01*
X699006D01*
X700275D01*
X701545Y666242D01*
Y664973D01*
X700275Y663703D01*
X697736D01*
X696466Y664973D01*
X719191Y820539D02*
X717922Y821809D01*
X715383D01*
X714113Y820539D01*
Y819270D01*
X715383Y818000D01*
X717922D01*
X719191Y816730D01*
Y815461D01*
X717922Y814191D01*
X715383D01*
X714113Y815461D01*
X721730Y821809D02*
Y814191D01*
X724270Y816730D01*
X726809Y814191D01*
Y821809D01*
X729348Y814191D02*
X731887D01*
X730618D01*
Y821809D01*
X729348Y820539D01*
X410719Y477776D02*
X409449Y476506D01*
Y473967D01*
X410719Y472697D01*
X411988D01*
X413258Y473967D01*
Y476506D01*
X414528Y477776D01*
X415797D01*
X417067Y476506D01*
Y473967D01*
X415797Y472697D01*
X409449Y480315D02*
X417067D01*
X414528Y482854D01*
X417067Y485393D01*
X409449D01*
X417067Y491741D02*
X409449D01*
X413258Y487932D01*
Y493011D01*
X247143Y115318D02*
X245873Y114048D01*
Y111509D01*
X247143Y110239D01*
X252221D01*
X253491Y111509D01*
Y114048D01*
X252221Y115318D01*
X253491Y122935D02*
Y117857D01*
X248412Y122935D01*
X247143D01*
X245873Y121666D01*
Y119126D01*
X247143Y117857D01*
X245873Y130553D02*
Y125474D01*
X249682D01*
X248412Y128014D01*
Y129283D01*
X249682Y130553D01*
X252221D01*
X253491Y129283D01*
Y126744D01*
X252221Y125474D01*
X84075Y749302D02*
X82805Y748032D01*
Y745493D01*
X84075Y744223D01*
X89153D01*
X90423Y745493D01*
Y748032D01*
X89153Y749302D01*
X90423Y756919D02*
Y751841D01*
X85344Y756919D01*
X84075D01*
X82805Y755650D01*
Y753110D01*
X84075Y751841D01*
Y759458D02*
X82805Y760728D01*
Y763267D01*
X84075Y764537D01*
X89153D01*
X90423Y763267D01*
Y760728D01*
X89153Y759458D01*
X84075D01*
X41658Y867409D02*
Y859791D01*
X45467D01*
X46736Y861061D01*
Y866139D01*
X45467Y867409D01*
X41658D01*
X49276Y866139D02*
X50545Y867409D01*
X53084D01*
X54354Y866139D01*
Y864870D01*
X53084Y863600D01*
X51815D01*
X53084D01*
X54354Y862330D01*
Y861061D01*
X53084Y859791D01*
X50545D01*
X49276Y861061D01*
X272543Y646684D02*
Y644145D01*
Y645415D01*
X278891D01*
X280161Y644145D01*
Y642876D01*
X278891Y641606D01*
X273813Y649224D02*
X272543Y650493D01*
Y653032D01*
X273813Y654302D01*
X275082D01*
X276352Y653032D01*
Y651763D01*
Y653032D01*
X277621Y654302D01*
X278891D01*
X280161Y653032D01*
Y650493D01*
X278891Y649224D01*
X426441Y700652D02*
X434059Y705730D01*
X426441D02*
X434059Y700652D01*
Y713348D02*
Y708270D01*
X428980Y713348D01*
X427711D01*
X426441Y712078D01*
Y709539D01*
X427711Y708270D01*
X581662Y805433D02*
X586740Y797815D01*
Y805433D02*
X581662Y797815D01*
X589279D02*
X591818D01*
X590549D01*
Y805433D01*
X589279Y804163D01*
X181102Y616359D02*
Y610011D01*
X182372Y608741D01*
X184911D01*
X186180Y610011D01*
Y616359D01*
X193798D02*
X191259Y615089D01*
X188720Y612550D01*
Y610011D01*
X189989Y608741D01*
X192528D01*
X193798Y610011D01*
Y611280D01*
X192528Y612550D01*
X188720D01*
X84152Y832559D02*
Y826211D01*
X85422Y824941D01*
X87961D01*
X89230Y826211D01*
Y832559D01*
X96848D02*
X91770D01*
Y828750D01*
X94309Y830020D01*
X95578D01*
X96848Y828750D01*
Y826211D01*
X95578Y824941D01*
X93039D01*
X91770Y826211D01*
X150184Y319625D02*
Y313277D01*
X151454Y312007D01*
X153993D01*
X155262Y313277D01*
Y319625D01*
X161610Y312007D02*
Y319625D01*
X157802Y315816D01*
X162880D01*
X246312Y460545D02*
Y454197D01*
X247582Y452927D01*
X250121D01*
X251391Y454197D01*
Y460545D01*
X253930Y459275D02*
X255200Y460545D01*
X257739D01*
X259008Y459275D01*
Y458006D01*
X257739Y456736D01*
X256469D01*
X257739D01*
X259008Y455466D01*
Y454197D01*
X257739Y452927D01*
X255200D01*
X253930Y454197D01*
X377192Y567689D02*
Y561341D01*
X378462Y560071D01*
X381001D01*
X382270Y561341D01*
Y567689D01*
X389888Y560071D02*
X384810D01*
X389888Y565150D01*
Y566419D01*
X388618Y567689D01*
X386079D01*
X384810Y566419D01*
X70174Y320895D02*
X68904Y322165D01*
X66365D01*
X65095Y320895D01*
Y319626D01*
X66365Y318356D01*
X68904D01*
X70174Y317086D01*
Y315817D01*
X68904Y314547D01*
X66365D01*
X65095Y315817D01*
X72713Y322165D02*
Y314547D01*
X75252Y317086D01*
X77791Y314547D01*
Y322165D01*
X85409Y314547D02*
X80330D01*
X85409Y319626D01*
Y320895D01*
X84139Y322165D01*
X81600D01*
X80330Y320895D01*
X462343Y558941D02*
Y566559D01*
X466152D01*
X467422Y565289D01*
Y562750D01*
X466152Y561480D01*
X462343D01*
X464883D02*
X467422Y558941D01*
X469961Y565289D02*
X471230Y566559D01*
X473770D01*
X475039Y565289D01*
Y564020D01*
X473770Y562750D01*
X472500D01*
X473770D01*
X475039Y561480D01*
Y560211D01*
X473770Y558941D01*
X471230D01*
X469961Y560211D01*
X477578Y565289D02*
X478848Y566559D01*
X481387D01*
X482657Y565289D01*
Y564020D01*
X481387Y562750D01*
X480118D01*
X481387D01*
X482657Y561480D01*
Y560211D01*
X481387Y558941D01*
X478848D01*
X477578Y560211D01*
X431549Y575565D02*
Y583183D01*
X435358D01*
X436628Y581913D01*
Y579374D01*
X435358Y578104D01*
X431549D01*
X434089D02*
X436628Y575565D01*
X439167Y581913D02*
X440436Y583183D01*
X442976D01*
X444245Y581913D01*
Y580644D01*
X442976Y579374D01*
X441706D01*
X442976D01*
X444245Y578104D01*
Y576835D01*
X442976Y575565D01*
X440436D01*
X439167Y576835D01*
X451863Y575565D02*
X446784D01*
X451863Y580644D01*
Y581913D01*
X450593Y583183D01*
X448054D01*
X446784Y581913D01*
X292355Y488439D02*
X299973D01*
Y484630D01*
X298703Y483361D01*
X296164D01*
X294894Y484630D01*
Y488439D01*
Y485900D02*
X292355Y483361D01*
X298703Y480822D02*
X299973Y479552D01*
Y477013D01*
X298703Y475743D01*
X297434D01*
X296164Y477013D01*
Y478282D01*
Y477013D01*
X294894Y475743D01*
X293625D01*
X292355Y477013D01*
Y479552D01*
X293625Y480822D01*
X292355Y473204D02*
Y470665D01*
Y471934D01*
X299973D01*
X298703Y473204D01*
X220217Y469649D02*
X212599D01*
Y473458D01*
X213869Y474728D01*
X216408D01*
X217678Y473458D01*
Y469649D01*
Y472188D02*
X220217Y474728D01*
X213869Y477267D02*
X212599Y478536D01*
Y481076D01*
X213869Y482345D01*
X215138D01*
X216408Y481076D01*
Y479806D01*
Y481076D01*
X217678Y482345D01*
X218947D01*
X220217Y481076D01*
Y478536D01*
X218947Y477267D01*
X213869Y484884D02*
X212599Y486154D01*
Y488693D01*
X213869Y489963D01*
X218947D01*
X220217Y488693D01*
Y486154D01*
X218947Y484884D01*
X213869D01*
X151309Y676343D02*
X143691D01*
Y680152D01*
X144961Y681422D01*
X147500D01*
X148770Y680152D01*
Y676343D01*
Y678883D02*
X151309Y681422D01*
Y689039D02*
Y683961D01*
X146230Y689039D01*
X144961D01*
X143691Y687770D01*
Y685230D01*
X144961Y683961D01*
X150039Y691578D02*
X151309Y692848D01*
Y695387D01*
X150039Y696657D01*
X144961D01*
X143691Y695387D01*
Y692848D01*
X144961Y691578D01*
X146230D01*
X147500Y692848D01*
Y696657D01*
X498859Y496317D02*
Y503935D01*
X502668D01*
X503938Y502665D01*
Y500126D01*
X502668Y498856D01*
X498859D01*
X501399D02*
X503938Y496317D01*
X511555D02*
X506477D01*
X511555Y501396D01*
Y502665D01*
X510286Y503935D01*
X507746D01*
X506477Y502665D01*
X514094D02*
X515364Y503935D01*
X517903D01*
X519173Y502665D01*
Y501396D01*
X517903Y500126D01*
X519173Y498856D01*
Y497587D01*
X517903Y496317D01*
X515364D01*
X514094Y497587D01*
Y498856D01*
X515364Y500126D01*
X514094Y501396D01*
Y502665D01*
X515364Y500126D02*
X517903D01*
X143835Y390747D02*
Y398365D01*
X147644D01*
X148914Y397095D01*
Y394556D01*
X147644Y393286D01*
X143835D01*
X146375D02*
X148914Y390747D01*
X156531D02*
X151453D01*
X156531Y395826D01*
Y397095D01*
X155262Y398365D01*
X152723D01*
X151453Y397095D01*
X159070Y398365D02*
X164149D01*
Y397095D01*
X159070Y392017D01*
Y390747D01*
X607063Y692151D02*
Y699769D01*
X610872D01*
X612142Y698499D01*
Y695960D01*
X610872Y694690D01*
X607063D01*
X609603D02*
X612142Y692151D01*
X619759D02*
X614681D01*
X619759Y697230D01*
Y698499D01*
X618490Y699769D01*
X615950D01*
X614681Y698499D01*
X627377Y699769D02*
X624838Y698499D01*
X622298Y695960D01*
Y693421D01*
X623568Y692151D01*
X626107D01*
X627377Y693421D01*
Y694690D01*
X626107Y695960D01*
X622298D01*
X710309Y689093D02*
X702691D01*
Y692902D01*
X703961Y694172D01*
X706500D01*
X707770Y692902D01*
Y689093D01*
Y691633D02*
X710309Y694172D01*
Y701789D02*
Y696711D01*
X705230Y701789D01*
X703961D01*
X702691Y700520D01*
Y697980D01*
X703961Y696711D01*
X702691Y709407D02*
Y704328D01*
X706500D01*
X705230Y706868D01*
Y708137D01*
X706500Y709407D01*
X709039D01*
X710309Y708137D01*
Y705598D01*
X709039Y704328D01*
X677675Y747015D02*
Y754633D01*
X681484D01*
X682754Y753363D01*
Y750824D01*
X681484Y749554D01*
X677675D01*
X680214D02*
X682754Y747015D01*
X690371D02*
X685293D01*
X690371Y752094D01*
Y753363D01*
X689102Y754633D01*
X686562D01*
X685293Y753363D01*
X696719Y747015D02*
Y754633D01*
X692910Y750824D01*
X697989D01*
X231809Y676093D02*
X224191D01*
Y679902D01*
X225461Y681172D01*
X228000D01*
X229270Y679902D01*
Y676093D01*
Y678633D02*
X231809Y681172D01*
Y688789D02*
Y683711D01*
X226730Y688789D01*
X225461D01*
X224191Y687520D01*
Y684980D01*
X225461Y683711D01*
Y691328D02*
X224191Y692598D01*
Y695137D01*
X225461Y696407D01*
X226730D01*
X228000Y695137D01*
Y693868D01*
Y695137D01*
X229270Y696407D01*
X230539D01*
X231809Y695137D01*
Y692598D01*
X230539Y691328D01*
X181578Y814071D02*
Y821689D01*
X185387D01*
X186656Y820419D01*
Y817880D01*
X185387Y816610D01*
X181578D01*
X184117D02*
X186656Y814071D01*
X194274D02*
X189195D01*
X194274Y819150D01*
Y820419D01*
X193004Y821689D01*
X190465D01*
X189195Y820419D01*
X201891Y814071D02*
X196813D01*
X201891Y819150D01*
Y820419D01*
X200622Y821689D01*
X198083D01*
X196813Y820419D01*
X199389Y669673D02*
X191771D01*
Y673482D01*
X193041Y674751D01*
X195580D01*
X196849Y673482D01*
Y669673D01*
Y672212D02*
X199389Y674751D01*
Y682369D02*
Y677290D01*
X194310Y682369D01*
X193041D01*
X191771Y681099D01*
Y678560D01*
X193041Y677290D01*
X199389Y684908D02*
Y687447D01*
Y686178D01*
X191771D01*
X193041Y684908D01*
X243335Y835407D02*
Y843025D01*
X247144D01*
X248414Y841755D01*
Y839216D01*
X247144Y837946D01*
X243335D01*
X245875D02*
X248414Y835407D01*
X256031D02*
X250953D01*
X256031Y840486D01*
Y841755D01*
X254762Y843025D01*
X252222D01*
X250953Y841755D01*
X258570D02*
X259840Y843025D01*
X262379D01*
X263649Y841755D01*
Y836677D01*
X262379Y835407D01*
X259840D01*
X258570Y836677D01*
Y841755D01*
X238890Y793243D02*
Y800861D01*
X242699D01*
X243968Y799591D01*
Y797052D01*
X242699Y795782D01*
X238890D01*
X241429D02*
X243968Y793243D01*
X246508D02*
X249047D01*
X247777D01*
Y800861D01*
X246508Y799591D01*
X252856Y794513D02*
X254125Y793243D01*
X256664D01*
X257934Y794513D01*
Y799591D01*
X256664Y800861D01*
X254125D01*
X252856Y799591D01*
Y798322D01*
X254125Y797052D01*
X257934D01*
X246638Y735331D02*
Y742949D01*
X250447D01*
X251716Y741679D01*
Y739140D01*
X250447Y737870D01*
X246638D01*
X249177D02*
X251716Y735331D01*
X254256D02*
X256795D01*
X255525D01*
Y742949D01*
X254256Y741679D01*
X260604D02*
X261873Y742949D01*
X264412D01*
X265682Y741679D01*
Y740410D01*
X264412Y739140D01*
X265682Y737870D01*
Y736601D01*
X264412Y735331D01*
X261873D01*
X260604Y736601D01*
Y737870D01*
X261873Y739140D01*
X260604Y740410D01*
Y741679D01*
X261873Y739140D02*
X264412D01*
X16001Y590300D02*
X8383D01*
Y594109D01*
X9653Y595378D01*
X12192D01*
X13462Y594109D01*
Y590300D01*
Y592839D02*
X16001Y595378D01*
Y597918D02*
Y600457D01*
Y599187D01*
X8383D01*
X9653Y597918D01*
X8383Y604266D02*
Y609344D01*
X9653D01*
X14731Y604266D01*
X16001D01*
X214629Y666118D02*
X207011D01*
Y669927D01*
X208281Y671196D01*
X210820D01*
X212090Y669927D01*
Y666118D01*
Y668657D02*
X214629Y671196D01*
Y673736D02*
Y676275D01*
Y675005D01*
X207011D01*
X208281Y673736D01*
X207011Y685162D02*
X208281Y682623D01*
X210820Y680084D01*
X213359D01*
X214629Y681353D01*
Y683892D01*
X213359Y685162D01*
X212090D01*
X210820Y683892D01*
Y680084D01*
X206124Y842519D02*
Y850137D01*
X209933D01*
X211202Y848867D01*
Y846328D01*
X209933Y845058D01*
X206124D01*
X208663D02*
X211202Y842519D01*
X213742D02*
X216281D01*
X215011D01*
Y850137D01*
X213742Y848867D01*
X225168Y850137D02*
X220090D01*
Y846328D01*
X222629Y847598D01*
X223898D01*
X225168Y846328D01*
Y843789D01*
X223898Y842519D01*
X221359D01*
X220090Y843789D01*
X250951Y676278D02*
X243333D01*
Y680087D01*
X244603Y681356D01*
X247142D01*
X248412Y680087D01*
Y676278D01*
Y678817D02*
X250951Y681356D01*
Y683896D02*
Y686435D01*
Y685165D01*
X243333D01*
X244603Y683896D01*
X250951Y694052D02*
X243333D01*
X247142Y690244D01*
Y695322D01*
X237620Y770129D02*
Y777747D01*
X241429D01*
X242698Y776477D01*
Y773938D01*
X241429Y772668D01*
X237620D01*
X240159D02*
X242698Y770129D01*
X245238D02*
X247777D01*
X246507D01*
Y777747D01*
X245238Y776477D01*
X251586D02*
X252855Y777747D01*
X255394D01*
X256664Y776477D01*
Y775208D01*
X255394Y773938D01*
X254125D01*
X255394D01*
X256664Y772668D01*
Y771399D01*
X255394Y770129D01*
X252855D01*
X251586Y771399D01*
X208538Y735331D02*
Y742949D01*
X212347D01*
X213617Y741679D01*
Y739140D01*
X212347Y737870D01*
X208538D01*
X211077D02*
X213617Y735331D01*
X216156D02*
X218695D01*
X217425D01*
Y742949D01*
X216156Y741679D01*
X227582Y735331D02*
X222504D01*
X227582Y740410D01*
Y741679D01*
X226312Y742949D01*
X223773D01*
X222504Y741679D01*
X83057Y543944D02*
X75439D01*
Y547752D01*
X76709Y549022D01*
X79248D01*
X80518Y547752D01*
Y543944D01*
Y546483D02*
X83057Y549022D01*
Y551561D02*
Y554100D01*
Y552831D01*
X75439D01*
X76709Y551561D01*
X83057Y557909D02*
Y560448D01*
Y559179D01*
X75439D01*
X76709Y557909D01*
X167516Y733807D02*
Y741425D01*
X171325D01*
X172594Y740155D01*
Y737616D01*
X171325Y736346D01*
X167516D01*
X170055D02*
X172594Y733807D01*
X175134D02*
X177673D01*
X176403D01*
Y741425D01*
X175134Y740155D01*
X181482D02*
X182751Y741425D01*
X185290D01*
X186560Y740155D01*
Y735077D01*
X185290Y733807D01*
X182751D01*
X181482Y735077D01*
Y740155D01*
X154942Y576327D02*
Y583945D01*
X158751D01*
X160020Y582675D01*
Y580136D01*
X158751Y578866D01*
X154942D01*
X157481D02*
X160020Y576327D01*
X162560Y577597D02*
X163829Y576327D01*
X166368D01*
X167638Y577597D01*
Y582675D01*
X166368Y583945D01*
X163829D01*
X162560Y582675D01*
Y581406D01*
X163829Y580136D01*
X167638D01*
X579373Y606046D02*
X571755D01*
Y609855D01*
X573025Y611124D01*
X575564D01*
X576833Y609855D01*
Y606046D01*
Y608585D02*
X579373Y611124D01*
X573025Y613664D02*
X571755Y614933D01*
Y617472D01*
X573025Y618742D01*
X574294D01*
X575564Y617472D01*
X576833Y618742D01*
X578103D01*
X579373Y617472D01*
Y614933D01*
X578103Y613664D01*
X576833D01*
X575564Y614933D01*
X574294Y613664D01*
X573025D01*
X575564Y614933D02*
Y617472D01*
X549909Y613412D02*
X542291D01*
Y617221D01*
X543561Y618490D01*
X546100D01*
X547370Y617221D01*
Y613412D01*
Y615951D02*
X549909Y618490D01*
X542291Y621030D02*
Y626108D01*
X543561D01*
X548639Y621030D01*
X549909D01*
X251781Y327248D02*
X244163D01*
Y331057D01*
X245433Y332326D01*
X247972D01*
X249242Y331057D01*
Y327248D01*
Y329787D02*
X251781Y332326D01*
X244163Y339944D02*
X245433Y337405D01*
X247972Y334866D01*
X250511D01*
X251781Y336135D01*
Y338674D01*
X250511Y339944D01*
X249242D01*
X247972Y338674D01*
Y334866D01*
X206061Y322548D02*
X198443D01*
Y326357D01*
X199713Y327626D01*
X202252D01*
X203521Y326357D01*
Y322548D01*
Y325087D02*
X206061Y327626D01*
X198443Y335244D02*
Y330166D01*
X202252D01*
X200982Y332705D01*
Y333974D01*
X202252Y335244D01*
X204791D01*
X206061Y333974D01*
Y331435D01*
X204791Y330166D01*
X340474Y523819D02*
Y531436D01*
X344282D01*
X345552Y530167D01*
Y527628D01*
X344282Y526358D01*
X340474D01*
X343013D02*
X345552Y523819D01*
X348091Y530167D02*
X349361Y531436D01*
X351900D01*
X353170Y530167D01*
Y528897D01*
X351900Y527628D01*
X350630D01*
X351900D01*
X353170Y526358D01*
Y525089D01*
X351900Y523819D01*
X349361D01*
X348091Y525089D01*
X659637Y803404D02*
X652019D01*
Y807212D01*
X653289Y808482D01*
X655828D01*
X657098Y807212D01*
Y803404D01*
Y805943D02*
X659637Y808482D01*
Y811021D02*
Y813560D01*
Y812291D01*
X652019D01*
X653289Y811021D01*
X274578Y672845D02*
Y665227D01*
X279657D01*
X287274Y672845D02*
X282196D01*
Y665227D01*
X287274D01*
X282196Y669036D02*
X284735D01*
X289814Y672845D02*
Y665227D01*
X293622D01*
X294892Y666497D01*
Y671575D01*
X293622Y672845D01*
X289814D01*
X297431Y671575D02*
X298701Y672845D01*
X301240D01*
X302509Y671575D01*
Y670306D01*
X301240Y669036D01*
X299970D01*
X301240D01*
X302509Y667766D01*
Y666497D01*
X301240Y665227D01*
X298701D01*
X297431Y666497D01*
X614171Y688336D02*
X606553D01*
Y683258D01*
X614171Y675640D02*
Y680718D01*
X606553D01*
Y675640D01*
X610362Y680718D02*
Y678179D01*
X614171Y673101D02*
X606553D01*
Y669292D01*
X607823Y668023D01*
X612901D01*
X614171Y669292D01*
Y673101D01*
X606553Y665483D02*
Y662944D01*
Y664214D01*
X614171D01*
X612901Y665483D01*
X188691Y888054D02*
X196309D01*
Y893132D01*
X189961Y900750D02*
X188691Y899480D01*
Y896941D01*
X189961Y895672D01*
X195039D01*
X196309Y896941D01*
Y899480D01*
X195039Y900750D01*
X188691Y903289D02*
X196309D01*
Y907098D01*
X195039Y908367D01*
X189961D01*
X188691Y907098D01*
Y903289D01*
X196309Y910907D02*
Y913446D01*
Y912176D01*
X188691D01*
X189961Y910907D01*
X101856Y898905D02*
Y891287D01*
X106934D01*
X114552Y898905D02*
X109474D01*
Y895096D01*
X112013Y896366D01*
X113282D01*
X114552Y895096D01*
Y892557D01*
X113282Y891287D01*
X110743D01*
X109474Y892557D01*
X23312Y794092D02*
X30929D01*
Y799171D01*
Y805519D02*
X23312D01*
X27120Y801710D01*
Y806788D01*
X459995Y710440D02*
X467613D01*
Y715518D01*
Y718057D02*
Y720596D01*
Y719327D01*
X459995D01*
X461265Y718057D01*
X337566Y988313D02*
X335027D01*
X336297D01*
Y981965D01*
X335027Y980695D01*
X333758D01*
X332488Y981965D01*
X340106D02*
X341375Y980695D01*
X343914D01*
X345184Y981965D01*
Y987043D01*
X343914Y988313D01*
X341375D01*
X340106Y987043D01*
Y985774D01*
X341375Y984504D01*
X345184D01*
X356870Y599439D02*
X354331D01*
X355601D01*
Y593091D01*
X354331Y591821D01*
X353062D01*
X351792Y593091D01*
X359410Y598169D02*
X360679Y599439D01*
X363218D01*
X364488Y598169D01*
Y596900D01*
X363218Y595630D01*
X364488Y594360D01*
Y593091D01*
X363218Y591821D01*
X360679D01*
X359410Y593091D01*
Y594360D01*
X360679Y595630D01*
X359410Y596900D01*
Y598169D01*
X360679Y595630D02*
X363218D01*
X297688Y403351D02*
X295149D01*
X296419D01*
Y397003D01*
X295149Y395733D01*
X293880D01*
X292610Y397003D01*
X300228Y403351D02*
X305306D01*
Y402081D01*
X300228Y397003D01*
Y395733D01*
X205487Y550672D02*
Y548133D01*
Y549403D01*
X211835D01*
X213105Y548133D01*
Y546864D01*
X211835Y545594D01*
X205487Y558290D02*
X206757Y555751D01*
X209296Y553212D01*
X211835D01*
X213105Y554481D01*
Y557020D01*
X211835Y558290D01*
X210566D01*
X209296Y557020D01*
Y553212D01*
X96730Y622309D02*
X94191D01*
X95461D01*
Y615961D01*
X94191Y614691D01*
X92922D01*
X91652Y615961D01*
X104348Y622309D02*
X99270D01*
Y618500D01*
X101809Y619770D01*
X103078D01*
X104348Y618500D01*
Y615961D01*
X103078Y614691D01*
X100539D01*
X99270Y615961D01*
X313730Y701809D02*
X311191D01*
X312461D01*
Y695461D01*
X311191Y694191D01*
X309922D01*
X308652Y695461D01*
X320078Y694191D02*
Y701809D01*
X316270Y698000D01*
X321348D01*
X24130Y987297D02*
X21591D01*
X22861D01*
Y980949D01*
X21591Y979679D01*
X20322D01*
X19052Y980949D01*
X31748Y979679D02*
X26670D01*
X31748Y984758D01*
Y986027D01*
X30478Y987297D01*
X27939D01*
X26670Y986027D01*
X20574Y695197D02*
X18035D01*
X19304D01*
Y688849D01*
X18035Y687579D01*
X16765D01*
X15496Y688849D01*
X23113Y687579D02*
X25652D01*
X24383D01*
Y695197D01*
X23113Y693927D01*
X609093Y564644D02*
X616711D01*
X612902D01*
Y569722D01*
X609093D01*
X616711D01*
Y577340D02*
Y572262D01*
X611632Y577340D01*
X610363D01*
X609093Y576070D01*
Y573531D01*
X610363Y572262D01*
X7190Y555591D02*
Y547973D01*
Y551782D01*
X12268D01*
Y555591D01*
Y547973D01*
X14807D02*
X17346D01*
X16077D01*
Y555591D01*
X14807Y554321D01*
X448203Y852852D02*
X443125D01*
Y849043D01*
X445664D01*
X443125D01*
Y845234D01*
X450742Y852852D02*
Y845234D01*
X454551D01*
X455820Y846504D01*
Y847773D01*
X454551Y849043D01*
X450742D01*
X454551D01*
X455820Y850313D01*
Y851582D01*
X454551Y852852D01*
X450742D01*
X463438Y845234D02*
X458359D01*
X463438Y850313D01*
Y851582D01*
X462168Y852852D01*
X459629D01*
X458359Y851582D01*
X614691Y734059D02*
X609613D01*
Y730250D01*
X612152D01*
X609613D01*
Y726441D01*
X617230Y734059D02*
Y726441D01*
X621039D01*
X622309Y727711D01*
Y728980D01*
X621039Y730250D01*
X617230D01*
X621039D01*
X622309Y731520D01*
Y732789D01*
X621039Y734059D01*
X617230D01*
X624848Y726441D02*
X627387D01*
X626118D01*
Y734059D01*
X624848Y732789D01*
X68328Y460755D02*
Y453137D01*
X72137D01*
X73406Y454407D01*
Y459485D01*
X72137Y460755D01*
X68328D01*
X81024Y453137D02*
X75946D01*
X81024Y458216D01*
Y459485D01*
X79754Y460755D01*
X77215D01*
X75946Y459485D01*
X68578Y626111D02*
Y633729D01*
X64770D01*
X63500Y632459D01*
Y627381D01*
X64770Y626111D01*
X68578D01*
X60961Y633729D02*
X58422D01*
X59691D01*
Y626111D01*
X60961Y627381D01*
X243080Y515111D02*
X241810Y516381D01*
X239271D01*
X238001Y515111D01*
Y510033D01*
X239271Y508763D01*
X241810D01*
X243080Y510033D01*
X245619Y515111D02*
X246888Y516381D01*
X249428D01*
X250697Y515111D01*
Y513842D01*
X249428Y512572D01*
X248158D01*
X249428D01*
X250697Y511302D01*
Y510033D01*
X249428Y508763D01*
X246888D01*
X245619Y510033D01*
X253236Y515111D02*
X254506Y516381D01*
X257045D01*
X258315Y515111D01*
Y513842D01*
X257045Y512572D01*
X255776D01*
X257045D01*
X258315Y511302D01*
Y510033D01*
X257045Y508763D01*
X254506D01*
X253236Y510033D01*
X310539Y941328D02*
X311809Y942598D01*
Y945137D01*
X310539Y946407D01*
X305461D01*
X304191Y945137D01*
Y942598D01*
X305461Y941328D01*
X310539Y938789D02*
X311809Y937520D01*
Y934980D01*
X310539Y933711D01*
X309270D01*
X308000Y934980D01*
Y936250D01*
Y934980D01*
X306730Y933711D01*
X305461D01*
X304191Y934980D01*
Y937520D01*
X305461Y938789D01*
X304191Y926093D02*
Y931172D01*
X309270Y926093D01*
X310539D01*
X311809Y927363D01*
Y929902D01*
X310539Y931172D01*
X474727Y540003D02*
X473458Y541273D01*
X470919D01*
X469649Y540003D01*
Y534925D01*
X470919Y533655D01*
X473458D01*
X474727Y534925D01*
X477266Y540003D02*
X478536Y541273D01*
X481075D01*
X482345Y540003D01*
Y538734D01*
X481075Y537464D01*
X479806D01*
X481075D01*
X482345Y536194D01*
Y534925D01*
X481075Y533655D01*
X478536D01*
X477266Y534925D01*
X484884Y533655D02*
X487423D01*
X486153D01*
Y541273D01*
X484884Y540003D01*
X105734Y397095D02*
X104464Y398365D01*
X101925D01*
X100655Y397095D01*
Y392017D01*
X101925Y390747D01*
X104464D01*
X105734Y392017D01*
X108273Y397095D02*
X109543Y398365D01*
X112082D01*
X113351Y397095D01*
Y395826D01*
X112082Y394556D01*
X110812D01*
X112082D01*
X113351Y393286D01*
Y392017D01*
X112082Y390747D01*
X109543D01*
X108273Y392017D01*
X115890Y397095D02*
X117160Y398365D01*
X119699D01*
X120969Y397095D01*
Y392017D01*
X119699Y390747D01*
X117160D01*
X115890Y392017D01*
Y397095D01*
X651003Y771400D02*
X649733Y770130D01*
Y767591D01*
X651003Y766321D01*
X656081D01*
X657351Y767591D01*
Y770130D01*
X656081Y771400D01*
X657351Y779017D02*
Y773939D01*
X652272Y779017D01*
X651003D01*
X649733Y777748D01*
Y775208D01*
X651003Y773939D01*
X656081Y781556D02*
X657351Y782826D01*
Y785365D01*
X656081Y786635D01*
X651003D01*
X649733Y785365D01*
Y782826D01*
X651003Y781556D01*
X652272D01*
X653542Y782826D01*
Y786635D01*
X179961Y663672D02*
X178691Y662402D01*
Y659863D01*
X179961Y658593D01*
X185039D01*
X186309Y659863D01*
Y662402D01*
X185039Y663672D01*
X186309Y671289D02*
Y666211D01*
X181230Y671289D01*
X179961D01*
X178691Y670020D01*
Y667480D01*
X179961Y666211D01*
Y673828D02*
X178691Y675098D01*
Y677637D01*
X179961Y678907D01*
X181230D01*
X182500Y677637D01*
X183770Y678907D01*
X185039D01*
X186309Y677637D01*
Y675098D01*
X185039Y673828D01*
X183770D01*
X182500Y675098D01*
X181230Y673828D01*
X179961D01*
X182500Y675098D02*
Y677637D01*
X60199Y575820D02*
X58929Y574550D01*
Y572011D01*
X60199Y570741D01*
X65277D01*
X66547Y572011D01*
Y574550D01*
X65277Y575820D01*
X66547Y583437D02*
Y578359D01*
X61468Y583437D01*
X60199D01*
X58929Y582168D01*
Y579628D01*
X60199Y578359D01*
X58929Y585976D02*
Y591055D01*
X60199D01*
X65277Y585976D01*
X66547D01*
X111762Y571499D02*
X110492Y572769D01*
X107953D01*
X106683Y571499D01*
Y566421D01*
X107953Y565151D01*
X110492D01*
X111762Y566421D01*
X119379Y565151D02*
X114301D01*
X119379Y570230D01*
Y571499D01*
X118110Y572769D01*
X115570D01*
X114301Y571499D01*
X126997Y572769D02*
X124458Y571499D01*
X121918Y568960D01*
Y566421D01*
X123188Y565151D01*
X125727D01*
X126997Y566421D01*
Y567690D01*
X125727Y568960D01*
X121918D01*
X153672Y785289D02*
X152402Y786559D01*
X149863D01*
X148593Y785289D01*
Y780211D01*
X149863Y778941D01*
X152402D01*
X153672Y780211D01*
X161289Y778941D02*
X156211D01*
X161289Y784020D01*
Y785289D01*
X160020Y786559D01*
X157480D01*
X156211Y785289D01*
X167637Y778941D02*
Y786559D01*
X163828Y782750D01*
X168907D01*
X160672Y878539D02*
X159402Y879809D01*
X156863D01*
X155593Y878539D01*
Y873461D01*
X156863Y872191D01*
X159402D01*
X160672Y873461D01*
X168289Y872191D02*
X163211D01*
X168289Y877270D01*
Y878539D01*
X167020Y879809D01*
X164480D01*
X163211Y878539D01*
X170828D02*
X172098Y879809D01*
X174637D01*
X175907Y878539D01*
Y877270D01*
X174637Y876000D01*
X173368D01*
X174637D01*
X175907Y874730D01*
Y873461D01*
X174637Y872191D01*
X172098D01*
X170828Y873461D01*
X27941Y754382D02*
X26671Y753112D01*
Y750573D01*
X27941Y749303D01*
X33019D01*
X34289Y750573D01*
Y753112D01*
X33019Y754382D01*
X34289Y761999D02*
Y756921D01*
X29210Y761999D01*
X27941D01*
X26671Y760730D01*
Y758190D01*
X27941Y756921D01*
X34289Y769617D02*
Y764538D01*
X29210Y769617D01*
X27941D01*
X26671Y768347D01*
Y765808D01*
X27941Y764538D01*
X131827Y741427D02*
X130557Y740158D01*
Y737618D01*
X131827Y736349D01*
X136905D01*
X138175Y737618D01*
Y740158D01*
X136905Y741427D01*
X138175Y749045D02*
Y743966D01*
X133096Y749045D01*
X131827D01*
X130557Y747775D01*
Y745236D01*
X131827Y743966D01*
X138175Y751584D02*
Y754123D01*
Y752853D01*
X130557D01*
X131827Y751584D01*
X58548Y955039D02*
X57279Y956309D01*
X54740D01*
X53470Y955039D01*
Y949961D01*
X54740Y948691D01*
X57279D01*
X58548Y949961D01*
X61088Y948691D02*
X63627D01*
X62357D01*
Y956309D01*
X61088Y955039D01*
X67436Y949961D02*
X68705Y948691D01*
X71244D01*
X72514Y949961D01*
Y955039D01*
X71244Y956309D01*
X68705D01*
X67436Y955039D01*
Y953770D01*
X68705Y952500D01*
X72514D01*
X195211Y114806D02*
X193941Y113537D01*
Y110998D01*
X195211Y109728D01*
X200289D01*
X201559Y110998D01*
Y113537D01*
X200289Y114806D01*
X201559Y117346D02*
Y119885D01*
Y118615D01*
X193941D01*
X195211Y117346D01*
X193941Y123694D02*
Y128772D01*
X195211D01*
X200289Y123694D01*
X201559D01*
X113353Y232632D02*
X112083Y231363D01*
Y228824D01*
X113353Y227554D01*
X118431D01*
X119701Y228824D01*
Y231363D01*
X118431Y232632D01*
X119701Y235172D02*
Y237711D01*
Y236441D01*
X112083D01*
X113353Y235172D01*
X112083Y246598D02*
X113353Y244059D01*
X115892Y241520D01*
X118431D01*
X119701Y242789D01*
Y245328D01*
X118431Y246598D01*
X117162D01*
X115892Y245328D01*
Y241520D01*
X501524Y648715D02*
X500255Y649985D01*
X497716D01*
X496446Y648715D01*
Y643637D01*
X497716Y642367D01*
X500255D01*
X501524Y643637D01*
X504064Y642367D02*
X506603D01*
X505333D01*
Y649985D01*
X504064Y648715D01*
X514220Y642367D02*
Y649985D01*
X510412Y646176D01*
X515490D01*
X423557Y691789D02*
X422287Y693059D01*
X419748D01*
X418478Y691789D01*
Y686711D01*
X419748Y685441D01*
X422287D01*
X423557Y686711D01*
X426096Y685441D02*
X428635D01*
X427365D01*
Y693059D01*
X426096Y691789D01*
X432444D02*
X433713Y693059D01*
X436252D01*
X437522Y691789D01*
Y690520D01*
X436252Y689250D01*
X434983D01*
X436252D01*
X437522Y687980D01*
Y686711D01*
X436252Y685441D01*
X433713D01*
X432444Y686711D01*
X384176Y488949D02*
X382907Y490219D01*
X380368D01*
X379098Y488949D01*
Y483871D01*
X380368Y482601D01*
X382907D01*
X384176Y483871D01*
X386716Y482601D02*
X389255D01*
X387985D01*
Y490219D01*
X386716Y488949D01*
X398142Y482601D02*
X393064D01*
X398142Y487680D01*
Y488949D01*
X396872Y490219D01*
X394333D01*
X393064Y488949D01*
X357666Y561339D02*
X356396Y562609D01*
X353857D01*
X352588Y561339D01*
Y556261D01*
X353857Y554991D01*
X356396D01*
X357666Y556261D01*
X360205Y554991D02*
X362744D01*
X361475D01*
Y562609D01*
X360205Y561339D01*
X366553Y554991D02*
X369092D01*
X367823D01*
Y562609D01*
X366553Y561339D01*
X417719Y570289D02*
X416450Y569019D01*
Y566480D01*
X417719Y565210D01*
X422798D01*
X424067Y566480D01*
Y569019D01*
X422798Y570289D01*
X424067Y572828D02*
Y575367D01*
Y574098D01*
X416450D01*
X417719Y572828D01*
Y579176D02*
X416450Y580446D01*
Y582985D01*
X417719Y584254D01*
X422798D01*
X424067Y582985D01*
Y580446D01*
X422798Y579176D01*
X417719D01*
X569300Y644111D02*
X568031Y645381D01*
X565492D01*
X564222Y644111D01*
Y639033D01*
X565492Y637763D01*
X568031D01*
X569300Y639033D01*
X571840D02*
X573109Y637763D01*
X575648D01*
X576918Y639033D01*
Y644111D01*
X575648Y645381D01*
X573109D01*
X571840Y644111D01*
Y642842D01*
X573109Y641572D01*
X576918D01*
X547480Y647777D02*
X546211Y649047D01*
X543672D01*
X542402Y647777D01*
Y642699D01*
X543672Y641429D01*
X546211D01*
X547480Y642699D01*
X550020Y649047D02*
X555098D01*
Y647777D01*
X550020Y642699D01*
Y641429D01*
X479553Y673862D02*
X478283Y672593D01*
Y670054D01*
X479553Y668784D01*
X484631D01*
X485901Y670054D01*
Y672593D01*
X484631Y673862D01*
X478283Y681480D02*
X479553Y678941D01*
X482092Y676402D01*
X484631D01*
X485901Y677671D01*
Y680210D01*
X484631Y681480D01*
X483362D01*
X482092Y680210D01*
Y676402D01*
X530606Y648461D02*
X529337Y649731D01*
X526798D01*
X525528Y648461D01*
Y643383D01*
X526798Y642113D01*
X529337D01*
X530606Y643383D01*
X538224Y649731D02*
X533146D01*
Y645922D01*
X535685Y647192D01*
X536954D01*
X538224Y645922D01*
Y643383D01*
X536954Y642113D01*
X534415D01*
X533146Y643383D01*
X455751Y809518D02*
X454482Y810788D01*
X451943D01*
X450673Y809518D01*
Y804440D01*
X451943Y803170D01*
X454482D01*
X455751Y804440D01*
X462099Y803170D02*
Y810788D01*
X458291Y806979D01*
X463369D01*
X444480Y832039D02*
X443211Y833309D01*
X440672D01*
X439402Y832039D01*
Y826961D01*
X440672Y825691D01*
X443211D01*
X444480Y826961D01*
X447020Y832039D02*
X448289Y833309D01*
X450828D01*
X452098Y832039D01*
Y830770D01*
X450828Y829500D01*
X449559D01*
X450828D01*
X452098Y828230D01*
Y826961D01*
X450828Y825691D01*
X448289D01*
X447020Y826961D01*
X584954Y725727D02*
X583684Y726997D01*
X581145D01*
X579875Y725727D01*
Y720649D01*
X581145Y719379D01*
X583684D01*
X584954Y720649D01*
X592571Y719379D02*
X587493D01*
X592571Y724458D01*
Y725727D01*
X591302Y726997D01*
X588763D01*
X587493Y725727D01*
X602000Y727039D02*
X600730Y728309D01*
X598191D01*
X596922Y727039D01*
Y721961D01*
X598191Y720691D01*
X600730D01*
X602000Y721961D01*
X604539Y720691D02*
X607078D01*
X605809D01*
Y728309D01*
X604539Y727039D01*
X504443Y931930D02*
X499364D01*
X496825Y934469D01*
X499364Y937009D01*
X504443D01*
X500634D01*
Y931930D01*
X504443Y939548D02*
X496825D01*
X504443Y944626D01*
X496825D01*
Y947165D02*
Y952243D01*
Y949704D01*
X504443D01*
Y954783D02*
Y957322D01*
Y956052D01*
X496825D01*
X498095Y954783D01*
D11*
X220156Y916808D02*
G03*
X220156Y916808I-250J0D01*
G01*
X653748Y639064D02*
G03*
X653748Y639064I-1984J0D01*
G01*
X711070Y842116D02*
G03*
X711070Y842116I-1984J0D01*
G01*
X406209Y500704D02*
G03*
X406209Y500704I-1984J0D01*
G01*
X195757Y134626D02*
G03*
X195757Y134626I-1275J0D01*
G01*
X134132Y337660D02*
G03*
X134132Y337660I-1984J0D01*
G01*
X361950Y984250D02*
X374650D01*
Y958850D02*
Y984250D01*
X349250Y958850D02*
X374650D01*
X349250D02*
Y984250D01*
X361950D01*
X374650Y831850D02*
Y958850D01*
X349250Y831850D02*
Y958850D01*
Y831850D02*
X374650D01*
X25400Y922020D02*
X38100D01*
Y947420D01*
X12700D02*
Y972820D01*
X38100D01*
Y947420D02*
Y972820D01*
X12700Y922020D02*
Y947420D01*
Y922020D02*
X25400D01*
X173736Y386334D02*
Y399034D01*
Y386334D02*
X199136D01*
Y411734D01*
X276606D01*
Y386334D02*
Y411734D01*
X199136Y386334D02*
X276606D01*
X173736Y411734D02*
X199136D01*
X173736Y399034D02*
Y411734D01*
X255016Y620268D02*
X267716D01*
Y645668D01*
X242316D02*
Y671068D01*
X267716D01*
Y645668D02*
Y671068D01*
X242316Y620268D02*
Y645668D01*
Y620268D02*
X255016D01*
X164592Y554736D02*
X177292D01*
Y529336D02*
Y554736D01*
X151892Y451866D02*
Y529336D01*
Y451866D02*
X177292D01*
Y529336D01*
X151892D02*
X177292D01*
X151892D02*
Y554736D01*
X164592D01*
X217100Y552054D02*
Y564754D01*
X242500D01*
Y539354D02*
X319970D01*
Y564754D01*
X242500D02*
X319970D01*
X242500Y539354D02*
Y564754D01*
X217100Y539354D02*
X242500D01*
X217100D02*
Y552054D01*
X370840Y594360D02*
Y607060D01*
Y594360D02*
X396240D01*
Y619760D01*
X473710D01*
Y594360D02*
Y619760D01*
X396240Y594360D02*
X473710D01*
X370840Y619760D02*
X396240D01*
X370840Y607060D02*
Y619760D01*
X304800Y708660D02*
Y721360D01*
X279400D02*
X304800D01*
X254000Y695960D02*
X279400D01*
X254000D02*
Y721360D01*
X279400D01*
Y695960D02*
X304800D01*
Y708660D01*
X25400Y632460D02*
X38100D01*
Y657860D01*
X12700D02*
Y683260D01*
X38100D01*
Y657860D02*
Y683260D01*
X12700Y632460D02*
Y657860D01*
Y632460D02*
X25400D01*
X10668Y456687D02*
Y443991D01*
X13207Y441452D01*
X18285D01*
X20825Y443991D01*
Y456687D01*
X36060Y454148D02*
X33521Y456687D01*
X28442D01*
X25903Y454148D01*
Y451609D01*
X28442Y449070D01*
X33521D01*
X36060Y446530D01*
Y443991D01*
X33521Y441452D01*
X28442D01*
X25903Y443991D01*
X41138Y456687D02*
Y441452D01*
X48756D01*
X51295Y443991D01*
Y446530D01*
X48756Y449070D01*
X41138D01*
X48756D01*
X51295Y451609D01*
Y454148D01*
X48756Y456687D01*
X41138D01*
X48790Y986525D02*
Y971290D01*
X56407D01*
X58947Y973829D01*
Y976368D01*
X56407Y978907D01*
X48790D01*
X56407D01*
X58947Y981447D01*
Y983986D01*
X56407Y986525D01*
X48790D01*
X64025Y971290D02*
Y981447D01*
X69103Y986525D01*
X74182Y981447D01*
Y971290D01*
Y978907D01*
X64025D01*
X79260Y986525D02*
X89417D01*
X84339D01*
Y971290D01*
X94495Y986525D02*
X104652D01*
X99574D01*
Y971290D01*
X119887Y986525D02*
X109730D01*
Y971290D01*
X119887D01*
X109730Y978907D02*
X114809D01*
X124965Y971290D02*
Y986525D01*
X132583D01*
X135122Y983986D01*
Y978907D01*
X132583Y976368D01*
X124965D01*
X130044D02*
X135122Y971290D01*
X140200Y986525D02*
Y983986D01*
X145279Y978907D01*
X150357Y983986D01*
Y986525D01*
X145279Y978907D02*
Y971290D01*
X35447Y34736D02*
X32908Y37275D01*
X27829D01*
X25290Y34736D01*
Y32197D01*
X27829Y29657D01*
X32908D01*
X35447Y27118D01*
Y24579D01*
X32908Y22040D01*
X27829D01*
X25290Y24579D01*
X40525Y22040D02*
Y32197D01*
X45603Y37275D01*
X50682Y32197D01*
Y22040D01*
Y29657D01*
X40525D01*
X55760Y22040D02*
Y37275D01*
X60838Y32197D01*
X65917Y37275D01*
Y22040D01*
X70995Y29657D02*
X81152D01*
X86230Y22040D02*
Y37275D01*
X91309Y32197D01*
X96387Y37275D01*
Y22040D01*
X101465Y34736D02*
X104004Y37275D01*
X109083D01*
X111622Y34736D01*
Y32197D01*
X109083Y29657D01*
X111622Y27118D01*
Y24579D01*
X109083Y22040D01*
X104004D01*
X101465Y24579D01*
Y27118D01*
X104004Y29657D01*
X101465Y32197D01*
Y34736D01*
X104004Y29657D02*
X109083D01*
X126857Y24579D02*
Y34736D01*
X124318Y37275D01*
X119240D01*
X116700Y34736D01*
Y24579D01*
X119240Y22040D01*
X124318D01*
X121779Y27118D02*
X126857Y22040D01*
X124318D02*
X126857Y24579D01*
D12*
X557500Y718750D02*
G03*
X557500Y718750I-1250J0D01*
G01*
X104920Y784010D02*
G03*
X104920Y784010I-1250J0D01*
G01*
X11200Y894580D02*
G03*
X11200Y894580I-1250J0D01*
G01*
X79490Y630230D02*
G03*
X79490Y630230I-1250J0D01*
G01*
X93190Y530550D02*
G03*
X93190Y530550I-1250J0D01*
G01*
D13*
X618340Y664640D02*
G03*
X618340Y664640I-500J0D01*
G01*
X238960Y487216D02*
G03*
X238960Y487216I-269J0D01*
G01*
X311600Y676260D02*
G03*
X311600Y676260I-500J0D01*
G01*
D14*
X26670Y911860D02*
G03*
X26670Y911860I-1270J0D01*
G01*
X256286Y610108D02*
G03*
X256286Y610108I-1270J0D01*
G01*
X316230Y708660D02*
G03*
X316230Y708660I-1270J0D01*
G01*
X26670Y622300D02*
G03*
X26670Y622300I-1270J0D01*
G01*
D15*
X229690Y607720D02*
G03*
X229690Y607720I-1000J0D01*
G01*
X299250Y925250D02*
Y927250D01*
X288750Y925250D02*
Y927250D01*
X260750Y945500D02*
Y947500D01*
X271250Y945500D02*
Y947500D01*
X244000Y945500D02*
Y947500D01*
X254500Y945500D02*
Y947500D01*
X545550Y791250D02*
X549750D01*
Y787050D02*
Y791250D01*
X475750D02*
X479950D01*
X475750Y787050D02*
Y791250D01*
Y717250D02*
Y721450D01*
Y717250D02*
X479950D01*
X545550D02*
X549750D01*
Y721450D01*
X141670Y790510D02*
Y795060D01*
X137120Y790510D02*
X141670D01*
Y825460D02*
Y830010D01*
X137120D02*
X141670D01*
X102170D02*
X106720D01*
X102170Y825460D02*
Y830010D01*
Y790510D02*
Y795060D01*
Y790510D02*
X106720D01*
X551750Y674250D02*
Y676250D01*
X541250Y674250D02*
Y676250D01*
X624840Y674140D02*
Y676140D01*
X592000Y746000D02*
Y748000D01*
X581500Y746000D02*
Y748000D01*
X15240Y431800D02*
X15240Y9710D01*
X15240Y431800D02*
X436314D01*
X15240Y9710D02*
X436314Y9710D01*
X480500Y825250D02*
X482500D01*
X480500Y835750D02*
X482500D01*
X480750Y809000D02*
X482750D01*
X480750Y819500D02*
X482750D01*
X118990Y841060D02*
X119990D01*
X118990Y881060D02*
X119990D01*
X490050Y674640D02*
Y676640D01*
X500550Y674640D02*
Y676640D01*
X436314Y431800D02*
X436314Y9710D01*
X254200Y505166D02*
X256200D01*
X254200Y494666D02*
X256200D01*
X241160Y487806D02*
Y488556D01*
Y465556D02*
Y466306D01*
X264160Y487806D02*
Y488556D01*
Y465556D02*
Y466306D01*
X241160Y488556D02*
X245560D01*
X259760D02*
X264160D01*
X241160Y465556D02*
X245560D01*
X259760D02*
X264160D01*
X370000Y548810D02*
X372000D01*
X370000Y538310D02*
X372000D01*
X409110Y573040D02*
Y575040D01*
X398610Y573040D02*
Y575040D01*
X230022Y124476D02*
Y126476D01*
X240522Y124476D02*
Y126476D01*
X209702Y124316D02*
Y126316D01*
X220202Y124316D02*
Y126316D01*
X62180Y780440D02*
X63180D01*
X62180Y820440D02*
X63180D01*
X127170Y758460D02*
Y760460D01*
X116670Y758460D02*
Y760460D01*
X156480Y774870D02*
X158480D01*
X156480Y764370D02*
X158480D01*
X110608Y693160D02*
X136008D01*
Y613160D02*
Y693160D01*
X110608Y613160D02*
X136008D01*
X110608D02*
Y693160D01*
X53510Y588280D02*
Y590280D01*
X43010Y588280D02*
Y590280D01*
X100600Y586910D02*
X102600D01*
X100600Y576410D02*
X102600D01*
X164930Y651620D02*
Y653620D01*
X175430Y651620D02*
Y653620D01*
X299600Y683260D02*
X301600D01*
X485522Y517298D02*
X487522D01*
X485522Y527798D02*
X487522D01*
X114892Y387106D02*
X116892D01*
X114892Y376606D02*
X116892D01*
X383922Y496978D02*
X385922D01*
X383922Y507478D02*
X385922D01*
X596500Y746000D02*
Y748000D01*
X607000Y746000D02*
Y748000D01*
X526880Y674640D02*
Y676640D01*
X537380Y674640D02*
Y676640D01*
X562000Y669500D02*
Y671500D01*
X572500Y669500D02*
Y671500D01*
X460000Y752000D02*
Y754000D01*
X449500Y752000D02*
Y754000D01*
X662770Y776240D02*
Y778240D01*
X673270Y776240D02*
Y778240D01*
D16*
X398232Y561248D02*
G03*
X398232Y561248I-1000J0D01*
G01*
D17*
X207070Y902620D02*
X277320D01*
X207070Y890870D02*
X277320D01*
X207070D02*
Y902620D01*
X277320Y890870D02*
Y902620D01*
D18*
X430500Y750250D02*
Y754000D01*
X444372Y750095D02*
Y753845D01*
X61595Y927848D02*
X65345D01*
X61750Y941720D02*
X65500D01*
X524936Y835406D02*
Y835914D01*
X516300Y835406D02*
Y835914D01*
X524764Y851662D02*
X525272D01*
X524764Y860298D02*
X525272D01*
X524936Y874186D02*
Y874694D01*
X516300Y874186D02*
Y874694D01*
X503668Y674795D02*
Y678545D01*
X517540Y674640D02*
Y678390D01*
X467404Y687742D02*
X472904D01*
X467154Y706742D02*
X472654D01*
X129212Y230246D02*
Y233996D01*
X143084Y230091D02*
Y233841D01*
X94600Y757710D02*
Y761460D01*
X108472Y757555D02*
Y761305D01*
X162940Y854060D02*
X166690D01*
X163095Y867932D02*
X166845D01*
X52720Y757460D02*
Y761210D01*
X38848Y757615D02*
Y761365D01*
X456580Y676180D02*
Y679930D01*
X442708Y676335D02*
Y680085D01*
X19450Y873830D02*
Y880580D01*
Y873830D02*
X26995Y873828D01*
X70700Y907580D02*
Y914330D01*
X63155Y914332D02*
X70700Y914330D01*
X63950Y873830D02*
X70700D01*
X70702Y881375D01*
X19450Y914330D02*
X27450D01*
X19450Y906580D02*
Y914330D01*
X58490Y639730D02*
X66240D01*
X58490D02*
Y647730D01*
X91445Y690982D02*
X98990Y690980D01*
Y684230D02*
Y690980D01*
X58488Y683435D02*
X58490Y690980D01*
X65240D01*
X98990Y639730D02*
X98992Y647275D01*
X92240Y639730D02*
X98990D01*
X103940Y521050D02*
X111690D01*
Y513050D02*
Y521050D01*
X71190Y469800D02*
X78735Y469798D01*
X71190Y469800D02*
Y476550D01*
X111690Y469800D02*
X111692Y477345D01*
X104940Y469800D02*
X111690D01*
X71188Y513505D02*
X71190Y521050D01*
X77940D01*
X446982Y548498D02*
Y554748D01*
X440482D02*
X446982D01*
X440732Y515748D02*
X446982D01*
Y522248D01*
X393982Y515748D02*
Y521998D01*
Y515748D02*
X400482D01*
X393982Y554748D02*
X400232D01*
X393982Y548248D02*
Y554748D01*
D19*
X680590Y677069D02*
Y699929D01*
X644906Y676656D02*
Y699516D01*
X680260Y781251D02*
Y804111D01*
X715944Y781664D02*
Y804524D01*
X441818Y507562D02*
X464678D01*
X442230Y471878D02*
X465090D01*
X71696Y330802D02*
X94556D01*
X71283Y366486D02*
X94143D01*
D20*
X438912Y711962D02*
Y720762D01*
X455168Y711962D02*
Y720762D01*
X164690Y632220D02*
X208690D01*
X164690Y602220D02*
X208690D01*
X4826Y436372D02*
X741426D01*
X14884Y833270D02*
X9805D01*
Y835809D01*
X10652Y836656D01*
X12344D01*
X13191Y835809D01*
Y833270D01*
X14884Y838348D02*
X9805D01*
X11498Y840041D01*
X9805Y841734D01*
X14884D01*
X9805Y843427D02*
Y845119D01*
Y844273D01*
X14884D01*
Y843427D01*
Y845119D01*
X10652Y851044D02*
X9805Y850198D01*
Y848505D01*
X10652Y847659D01*
X14037D01*
X14884Y848505D01*
Y850198D01*
X14037Y851044D01*
X15730Y852737D02*
Y856123D01*
X9805Y857815D02*
X13191D01*
X14884Y859508D01*
X13191Y861201D01*
X9805D01*
Y862894D02*
X14884D01*
Y865433D01*
X14037Y866279D01*
X13191D01*
X12344Y865433D01*
Y862894D01*
Y865433D01*
X11498Y866279D01*
X10652D01*
X9805Y865433D01*
Y862894D01*
X14884Y867972D02*
X11498D01*
X9805Y869665D01*
X11498Y871358D01*
X14884D01*
X12344D01*
Y867972D01*
X9805Y873051D02*
Y876436D01*
Y874743D01*
X14884D01*
X115406Y703002D02*
X114559Y703848D01*
X112866D01*
X112020Y703002D01*
Y702156D01*
X112866Y701309D01*
X114559D01*
X115406Y700463D01*
Y699616D01*
X114559Y698770D01*
X112866D01*
X112020Y699616D01*
X119637Y703848D02*
X117945D01*
X117098Y703002D01*
Y699616D01*
X117945Y698770D01*
X119637D01*
X120484Y699616D01*
Y703002D01*
X119637Y703848D01*
X122177D02*
Y698770D01*
X125562D01*
X127255D02*
Y702156D01*
X128948Y703848D01*
X130641Y702156D01*
Y698770D01*
Y701309D01*
X127255D01*
X132333Y698770D02*
Y703848D01*
X134873D01*
X135719Y703002D01*
Y701309D01*
X134873Y700463D01*
X132333D01*
X134026D02*
X135719Y698770D01*
X114770Y609598D02*
Y605366D01*
X115616Y604520D01*
X117309D01*
X118156Y605366D01*
Y609598D01*
X123234Y608752D02*
X122388Y609598D01*
X120695D01*
X119848Y608752D01*
Y607906D01*
X120695Y607059D01*
X122388D01*
X123234Y606213D01*
Y605366D01*
X122388Y604520D01*
X120695D01*
X119848Y605366D01*
X124927Y609598D02*
Y604520D01*
X127466D01*
X128312Y605366D01*
Y606213D01*
X127466Y607059D01*
X124927D01*
X127466D01*
X128312Y607906D01*
Y608752D01*
X127466Y609598D01*
X124927D01*
X108270Y919616D02*
Y924695D01*
X110809D01*
X111656Y923848D01*
Y922156D01*
X110809Y921309D01*
X108270D01*
X113348Y919616D02*
Y924695D01*
X115041Y923002D01*
X116734Y924695D01*
Y919616D01*
X118427Y924695D02*
X120119D01*
X119273D01*
Y919616D01*
X118427D01*
X120119D01*
X126044Y923848D02*
X125198Y924695D01*
X123505D01*
X122659Y923848D01*
Y920463D01*
X123505Y919616D01*
X125198D01*
X126044Y920463D01*
X127737Y918770D02*
X131123D01*
X132815Y924695D02*
Y921309D01*
X134508Y919616D01*
X136201Y921309D01*
Y924695D01*
X140433D02*
X138740D01*
X137894Y923848D01*
Y920463D01*
X138740Y919616D01*
X140433D01*
X141279Y920463D01*
Y923848D01*
X140433Y924695D01*
X142972D02*
Y920463D01*
X143819Y919616D01*
X145511D01*
X146358Y920463D01*
Y924695D01*
X148050D02*
X151436D01*
X149743D01*
Y919616D01*
X153129Y918770D02*
X156514D01*
X158207Y924695D02*
X161593D01*
X159900D01*
Y919616D01*
X163285D02*
Y924695D01*
X165825D01*
X166671Y923848D01*
Y922156D01*
X165825Y921309D01*
X163285D01*
X148770Y834445D02*
Y831059D01*
X150463Y829366D01*
X152156Y831059D01*
Y834445D01*
X153848D02*
Y829366D01*
X156388D01*
X157234Y830213D01*
Y831059D01*
X156388Y831906D01*
X153848D01*
X156388D01*
X157234Y832752D01*
Y833598D01*
X156388Y834445D01*
X153848D01*
X158927Y829366D02*
Y832752D01*
X160620Y834445D01*
X162312Y832752D01*
Y829366D01*
Y831906D01*
X158927D01*
X164005Y834445D02*
X167391D01*
X165698D01*
Y829366D01*
X169083Y828520D02*
X172469D01*
X176701Y834445D02*
X175008D01*
X174162Y833598D01*
Y830213D01*
X175008Y829366D01*
X176701D01*
X177547Y830213D01*
Y833598D01*
X176701Y834445D01*
X179240D02*
Y829366D01*
Y831059D01*
X182626Y834445D01*
X180086Y831906D01*
X182626Y829366D01*
X184319Y828520D02*
X187704D01*
X189397Y834445D02*
X192782D01*
X191090D01*
Y829366D01*
X194475D02*
Y834445D01*
X197014D01*
X197861Y833598D01*
Y831906D01*
X197014Y831059D01*
X194475D01*
X138430Y718395D02*
Y715009D01*
X140123Y713316D01*
X141816Y715009D01*
Y718395D01*
X146894Y717548D02*
X146047Y718395D01*
X144355D01*
X143508Y717548D01*
Y716702D01*
X144355Y715856D01*
X146047D01*
X146894Y715009D01*
Y714163D01*
X146047Y713316D01*
X144355D01*
X143508Y714163D01*
X148587Y718395D02*
X151972D01*
X150280D01*
Y713316D01*
X156204Y718395D02*
X154511D01*
X153665Y717548D01*
Y714163D01*
X154511Y713316D01*
X156204D01*
X157051Y714163D01*
Y717548D01*
X156204Y718395D01*
X158743Y713316D02*
Y718395D01*
X161283D01*
X162129Y717548D01*
Y715856D01*
X161283Y715009D01*
X158743D01*
X160436D02*
X162129Y713316D01*
X163822Y712470D02*
X167207D01*
X168900Y718395D02*
X172286D01*
X170593D01*
Y713316D01*
X173978D02*
Y718395D01*
X176518D01*
X177364Y717548D01*
Y715856D01*
X176518Y715009D01*
X173978D01*
X728480Y771270D02*
X720863D01*
Y775079D01*
X722132Y776348D01*
X724671D01*
X725941Y775079D01*
Y771270D01*
Y773809D02*
X728480Y776348D01*
X720863Y783966D02*
Y778887D01*
X728480D01*
Y783966D01*
X724671Y778887D02*
Y781427D01*
X722132Y791583D02*
X720863Y790314D01*
Y787775D01*
X722132Y786505D01*
X723402D01*
X724671Y787775D01*
Y790314D01*
X725941Y791583D01*
X727210D01*
X728480Y790314D01*
Y787775D01*
X727210Y786505D01*
X720863Y799201D02*
Y794123D01*
X728480D01*
Y799201D01*
X724671Y794123D02*
Y796662D01*
X720863Y801740D02*
Y806818D01*
Y804279D01*
X728480D01*
X404864Y734539D02*
X401479D01*
Y732000D01*
X403172D01*
X401479D01*
Y729461D01*
X406557Y734539D02*
Y729461D01*
X409096D01*
X409943Y730307D01*
Y731154D01*
X409096Y732000D01*
X406557D01*
X409096D01*
X409943Y732846D01*
Y733693D01*
X409096Y734539D01*
X406557D01*
X411636Y733693D02*
X412482Y734539D01*
X414175D01*
X415021Y733693D01*
Y732846D01*
X414175Y732000D01*
X413328D01*
X414175D01*
X415021Y731154D01*
Y730307D01*
X414175Y729461D01*
X412482D01*
X411636Y730307D01*
X409229Y797789D02*
X412614D01*
X410922D01*
Y792711D01*
X414307D02*
Y797789D01*
X416846D01*
X417693Y796943D01*
Y795250D01*
X416846Y794404D01*
X414307D01*
X422771Y792711D02*
X419386D01*
X422771Y796096D01*
Y796943D01*
X421925Y797789D01*
X420232D01*
X419386Y796943D01*
X433325Y798039D02*
X436711D01*
X435018D01*
Y792961D01*
X438404D02*
Y798039D01*
X440943D01*
X441789Y797193D01*
Y795500D01*
X440943Y794654D01*
X438404D01*
X443482Y792961D02*
X445175D01*
X444328D01*
Y798039D01*
X443482Y797193D01*
X529255Y869700D02*
X534333D01*
Y873086D01*
X530101Y874778D02*
X529255Y875625D01*
Y877318D01*
X530101Y878164D01*
X530948D01*
X531794Y877318D01*
Y876471D01*
Y877318D01*
X532640Y878164D01*
X533487D01*
X534333Y877318D01*
Y875625D01*
X533487Y874778D01*
X527985Y831854D02*
X533063D01*
Y835240D01*
Y840318D02*
Y836932D01*
X529678Y840318D01*
X528831D01*
X527985Y839472D01*
Y837779D01*
X528831Y836932D01*
X539557Y852788D02*
X538711Y851941D01*
Y850248D01*
X539557Y849402D01*
X542943D01*
X543789Y850248D01*
Y851941D01*
X542943Y852788D01*
X543789Y854480D02*
Y856173D01*
Y855327D01*
X538711D01*
X539557Y854480D01*
Y858712D02*
X538711Y859559D01*
Y861252D01*
X539557Y862098D01*
X540404D01*
X541250Y861252D01*
X542096Y862098D01*
X542943D01*
X543789Y861252D01*
Y859559D01*
X542943Y858712D01*
X542096D01*
X541250Y859559D01*
X540404Y858712D01*
X539557D01*
X541250Y859559D02*
Y861252D01*
X430057Y726538D02*
X429211Y725691D01*
Y723998D01*
X430057Y723152D01*
X433443D01*
X434289Y723998D01*
Y725691D01*
X433443Y726538D01*
X434289Y728230D02*
Y729923D01*
Y729077D01*
X429211D01*
X430057Y728230D01*
X429211Y735848D02*
Y732462D01*
X431750D01*
X430904Y734155D01*
Y735002D01*
X431750Y735848D01*
X433443D01*
X434289Y735002D01*
Y733309D01*
X433443Y732462D01*
X463807Y742154D02*
X462961Y741307D01*
Y739614D01*
X463807Y738768D01*
X467193D01*
X468039Y739614D01*
Y741307D01*
X467193Y742154D01*
X463807Y743846D02*
X462961Y744693D01*
Y746386D01*
X463807Y747232D01*
X464654D01*
X465500Y746386D01*
X466346Y747232D01*
X467193D01*
X468039Y746386D01*
Y744693D01*
X467193Y743846D01*
X466346D01*
X465500Y744693D01*
X464654Y743846D01*
X463807D01*
X465500Y744693D02*
Y746386D01*
D21*
X620840Y677140D02*
X628840D01*
X620840D02*
X624840Y674140D01*
X628840Y677140D01*
X298600Y687260D02*
X301600Y683260D01*
X298600Y679260D02*
X301600Y683260D01*
X298600Y679260D02*
Y687260D01*
D22*
X188930Y343256D02*
Y350027D01*
X185544Y346641D02*
X192315D01*
X185544Y353413D02*
X183851Y355105D01*
Y358491D01*
X185544Y360184D01*
X187237D01*
X188930Y358491D01*
Y356798D01*
Y358491D01*
X190622Y360184D01*
X192315D01*
X194008Y358491D01*
Y355105D01*
X192315Y353413D01*
X194008Y363569D02*
X192315D01*
Y365262D01*
X194008D01*
Y363569D01*
X185544Y372033D02*
X183851Y373726D01*
Y377112D01*
X185544Y378804D01*
X187237D01*
X188930Y377112D01*
Y375419D01*
Y377112D01*
X190622Y378804D01*
X192315D01*
X194008Y377112D01*
Y373726D01*
X192315Y372033D01*
X216106Y361876D02*
X205949D01*
Y366955D01*
X207642Y368647D01*
X211028D01*
X212720Y366955D01*
Y361876D01*
Y365262D02*
X216106Y368647D01*
X205949Y372033D02*
X216106Y378804D01*
X205949D02*
X216106Y372033D01*
X231603Y361876D02*
Y368647D01*
Y365262D01*
X241760D01*
X231603Y372033D02*
X241760Y378804D01*
X231603D02*
X241760Y372033D01*
X261236Y358491D02*
X259543Y356798D01*
Y353413D01*
X261236Y351720D01*
X268007D01*
X269700Y353413D01*
Y356798D01*
X268007Y358491D01*
X264622D01*
Y355105D01*
X269700Y361876D02*
X259543D01*
X269700Y368647D01*
X259543D01*
Y372033D02*
X269700D01*
Y377112D01*
X268007Y378804D01*
X261236D01*
X259543Y377112D01*
Y372033D01*
X13629Y708488D02*
X11936Y710181D01*
X8551D01*
X6858Y708488D01*
Y706795D01*
X8551Y705102D01*
X11936D01*
X13629Y703410D01*
Y701717D01*
X11936Y700024D01*
X8551D01*
X6858Y701717D01*
X22093Y710181D02*
X18707D01*
X17015Y708488D01*
Y701717D01*
X18707Y700024D01*
X22093D01*
X23786Y701717D01*
Y708488D01*
X22093Y710181D01*
X27171D02*
Y700024D01*
X33943D01*
X37328D02*
Y706795D01*
X40714Y710181D01*
X44099Y706795D01*
Y700024D01*
Y705102D01*
X37328D01*
X47485Y700024D02*
Y710181D01*
X52563D01*
X54256Y708488D01*
Y705102D01*
X52563Y703410D01*
X47485D01*
X50870D02*
X54256Y700024D01*
X124376Y468204D02*
X122684Y469897D01*
X119298D01*
X117605Y468204D01*
Y461433D01*
X119298Y459740D01*
X122684D01*
X124376Y461433D01*
Y464818D01*
X120991D01*
X127762Y459740D02*
Y469897D01*
X134533Y459740D01*
Y469897D01*
X137919D02*
Y459740D01*
X142997D01*
X144690Y461433D01*
Y468204D01*
X142997Y469897D01*
X137919D01*
X127762Y497837D02*
X134533D01*
X131148D01*
Y487680D01*
X137919Y497837D02*
X144690Y487680D01*
Y497837D02*
X137919Y487680D01*
X127762Y513334D02*
Y523491D01*
X132840D01*
X134533Y521798D01*
Y518412D01*
X132840Y516720D01*
X127762D01*
X131148D02*
X134533Y513334D01*
X137919Y523491D02*
X144690Y513334D01*
Y523491D02*
X137919Y513334D01*
X109141Y540510D02*
X115913D01*
X112527Y543896D02*
Y537125D01*
X119298Y543896D02*
X120991Y545589D01*
X124376D01*
X126069Y543896D01*
Y542203D01*
X124376Y540510D01*
X122684D01*
X124376D01*
X126069Y538818D01*
Y537125D01*
X124376Y535432D01*
X120991D01*
X119298Y537125D01*
X129455Y535432D02*
Y537125D01*
X131148D01*
Y535432D01*
X129455D01*
X137919Y543896D02*
X139612Y545589D01*
X142997D01*
X144690Y543896D01*
Y542203D01*
X142997Y540510D01*
X141304D01*
X142997D01*
X144690Y538818D01*
Y537125D01*
X142997Y535432D01*
X139612D01*
X137919Y537125D01*
X405556Y636824D02*
X403863Y635132D01*
Y631746D01*
X405556Y630053D01*
X412327D01*
X414020Y631746D01*
Y635132D01*
X412327Y636824D01*
X408942D01*
Y633439D01*
X414020Y640210D02*
X403863D01*
X414020Y646981D01*
X403863D01*
Y650367D02*
X414020D01*
Y655445D01*
X412327Y657138D01*
X405556D01*
X403863Y655445D01*
Y650367D01*
X384558Y630053D02*
Y636824D01*
X381172Y633439D02*
X387943D01*
X381172Y640210D02*
X379479Y641903D01*
Y645288D01*
X381172Y646981D01*
X382865D01*
X384558Y645288D01*
Y643596D01*
Y645288D01*
X386250Y646981D01*
X387943D01*
X389636Y645288D01*
Y641903D01*
X387943Y640210D01*
X389636Y650367D02*
X387943D01*
Y652059D01*
X389636D01*
Y650367D01*
X381172Y658831D02*
X379479Y660523D01*
Y663909D01*
X381172Y665602D01*
X382865D01*
X384558Y663909D01*
Y662216D01*
Y663909D01*
X386250Y665602D01*
X387943D01*
X389636Y663909D01*
Y660523D01*
X387943Y658831D01*
X379479Y668987D02*
X386250D01*
X389636Y672373D01*
X386250Y675759D01*
X379479D01*
X430956Y636824D02*
X429263Y635132D01*
Y631746D01*
X430956Y630053D01*
X432649D01*
X434342Y631746D01*
Y635132D01*
X436034Y636824D01*
X437727D01*
X439420Y635132D01*
Y631746D01*
X437727Y630053D01*
X429263Y640210D02*
X439420D01*
Y645288D01*
X437727Y646981D01*
X430956D01*
X429263Y645288D01*
Y640210D01*
X439420Y650367D02*
X432649D01*
X429263Y653752D01*
X432649Y657138D01*
X439420D01*
X434342D01*
Y650367D01*
X455721Y636824D02*
X454028Y635132D01*
Y631746D01*
X455721Y630053D01*
X457414D01*
X459107Y631746D01*
Y635132D01*
X460799Y636824D01*
X462492D01*
X464185Y635132D01*
Y631746D01*
X462492Y630053D01*
X455721Y646981D02*
X454028Y645288D01*
Y641903D01*
X455721Y640210D01*
X462492D01*
X464185Y641903D01*
Y645288D01*
X462492Y646981D01*
X454028Y650367D02*
X464185D01*
Y657138D01*
X231058Y581065D02*
X229365Y579372D01*
Y575987D01*
X231058Y574294D01*
X232751D01*
X234444Y575987D01*
Y579372D01*
X236136Y581065D01*
X237829D01*
X239522Y579372D01*
Y575987D01*
X237829Y574294D01*
X231058Y591222D02*
X229365Y589529D01*
Y586143D01*
X231058Y584451D01*
X237829D01*
X239522Y586143D01*
Y589529D01*
X237829Y591222D01*
X229365Y594607D02*
X239522D01*
Y601379D01*
X257982Y581065D02*
X256289Y579372D01*
Y575987D01*
X257982Y574294D01*
X259675D01*
X261368Y575987D01*
Y579372D01*
X263060Y581065D01*
X264753D01*
X266446Y579372D01*
Y575987D01*
X264753Y574294D01*
X256289Y584451D02*
X266446D01*
Y589529D01*
X264753Y591222D01*
X257982D01*
X256289Y589529D01*
Y584451D01*
X266446Y594607D02*
X259675D01*
X256289Y597993D01*
X259675Y601379D01*
X266446D01*
X261368D01*
Y594607D01*
X280926Y574294D02*
Y581065D01*
X277540Y577680D02*
X284311D01*
X277540Y584451D02*
X275847Y586143D01*
Y589529D01*
X277540Y591222D01*
X279233D01*
X280926Y589529D01*
Y587836D01*
Y589529D01*
X282618Y591222D01*
X284311D01*
X286004Y589529D01*
Y586143D01*
X284311Y584451D01*
X286004Y594607D02*
X284311D01*
Y596300D01*
X286004D01*
Y594607D01*
X277540Y603071D02*
X275847Y604764D01*
Y608150D01*
X277540Y609842D01*
X279233D01*
X280926Y608150D01*
Y606457D01*
Y608150D01*
X282618Y609842D01*
X284311D01*
X286004Y608150D01*
Y604764D01*
X284311Y603071D01*
X275847Y613228D02*
X282618D01*
X286004Y616614D01*
X282618Y619999D01*
X275847D01*
X302686Y581065D02*
X300993Y579372D01*
Y575987D01*
X302686Y574294D01*
X309457D01*
X311150Y575987D01*
Y579372D01*
X309457Y581065D01*
X306072D01*
Y577680D01*
X311150Y584451D02*
X300993D01*
X311150Y591222D01*
X300993D01*
Y594607D02*
X311150D01*
Y599686D01*
X309457Y601379D01*
X302686D01*
X300993Y599686D01*
Y594607D01*
X563880Y452625D02*
X570651D01*
X567266D01*
Y442468D01*
X575729Y449239D02*
X579115D01*
X580808Y447546D01*
Y442468D01*
X575729D01*
X574037Y444161D01*
X575729Y445854D01*
X580808D01*
X584193Y452625D02*
Y442468D01*
Y447546D01*
X585886Y449239D01*
X589272D01*
X590965Y447546D01*
Y442468D01*
X599428D02*
X596043D01*
X594350Y444161D01*
Y447546D01*
X596043Y449239D01*
X599428D01*
X601121Y447546D01*
Y445854D01*
X594350D01*
X604507Y449239D02*
Y442468D01*
Y445854D01*
X606200Y447546D01*
X607892Y449239D01*
X609585D01*
X563118Y474469D02*
X566504D01*
X564811D01*
Y464312D01*
X563118D01*
X566504D01*
X571582D02*
X576660D01*
X578353Y466005D01*
X576660Y467698D01*
X573275D01*
X571582Y469390D01*
X573275Y471083D01*
X578353D01*
X581739Y474469D02*
Y464312D01*
Y469390D01*
X583431Y471083D01*
X586817D01*
X588510Y469390D01*
Y464312D01*
X593588Y471083D02*
X596974D01*
X598666Y469390D01*
Y464312D01*
X593588D01*
X591895Y466005D01*
X593588Y467698D01*
X598666D01*
X603745Y471083D02*
X607131D01*
X608823Y469390D01*
Y464312D01*
X603745D01*
X602052Y466005D01*
X603745Y467698D01*
X608823D01*
X612209Y464312D02*
Y471083D01*
X617287D01*
X618980Y469390D01*
Y464312D01*
X563118Y495634D02*
Y485478D01*
X568196D01*
X569889Y487170D01*
Y493941D01*
X568196Y495634D01*
X563118D01*
X578353Y485478D02*
X574967D01*
X573275Y487170D01*
Y490556D01*
X574967Y492249D01*
X578353D01*
X580046Y490556D01*
Y488863D01*
X573275D01*
X583431Y485478D02*
X588510D01*
X590203Y487170D01*
X588510Y488863D01*
X585124D01*
X583431Y490556D01*
X585124Y492249D01*
X590203D01*
X593588Y485478D02*
X596974D01*
X595281D01*
Y492249D01*
X593588D01*
X605438Y482092D02*
X607131D01*
X608823Y483785D01*
Y492249D01*
X603745D01*
X602052Y490556D01*
Y487170D01*
X603745Y485478D01*
X608823D01*
X612209D02*
Y492249D01*
X617287D01*
X618980Y490556D01*
Y485478D01*
X627444D02*
X624058D01*
X622366Y487170D01*
Y490556D01*
X624058Y492249D01*
X627444D01*
X629137Y490556D01*
Y488863D01*
X622366D01*
X639293Y495634D02*
Y485478D01*
X634215D01*
X632522Y487170D01*
Y490556D01*
X634215Y492249D01*
X639293D01*
X652836Y495634D02*
Y485478D01*
X657914D01*
X659607Y487170D01*
Y488863D01*
Y490556D01*
X657914Y492249D01*
X652836D01*
X662992D02*
Y487170D01*
X664685Y485478D01*
X669764D01*
Y483785D01*
X668071Y482092D01*
X666378D01*
X669764Y485478D02*
Y492249D01*
X673149D02*
X674842D01*
Y490556D01*
X673149D01*
Y492249D01*
Y487170D02*
X674842D01*
Y485478D01*
X673149D01*
Y487170D01*
X570021Y724922D02*
Y733386D01*
X568328Y735078D01*
X564943D01*
X563250Y733386D01*
Y724922D01*
X559864Y735078D02*
X556479D01*
X558172D01*
Y724922D01*
X559864Y726614D01*
D23*
X318362Y511504D02*
X320478Y513620D01*
Y517852D01*
X318362Y519968D01*
X316246D01*
X314130Y517852D01*
Y513620D01*
X312014Y511504D01*
X309898D01*
X307782Y513620D01*
Y517852D01*
X309898Y519968D01*
X320478Y507272D02*
X307782D01*
X314130D01*
Y498808D01*
X320478D01*
X307782D01*
X320478Y494576D02*
Y486112D01*
Y490344D01*
X307782D01*
X318362Y473416D02*
X320478Y475532D01*
Y479764D01*
X318362Y481880D01*
X309898D01*
X307782Y479764D01*
Y475532D01*
X309898Y473416D01*
X318362Y469184D02*
X320478Y467068D01*
Y462836D01*
X318362Y460720D01*
X316246D01*
X314130Y462836D01*
Y464953D01*
Y462836D01*
X312014Y460720D01*
X309898D01*
X307782Y462836D01*
Y467068D01*
X309898Y469184D01*
X511772Y543032D02*
X524468D01*
Y549380D01*
X522352Y551496D01*
X520236D01*
X518120Y549380D01*
Y543032D01*
Y549380D01*
X516004Y551496D01*
X513888D01*
X511772Y549380D01*
Y543032D01*
X524468Y555728D02*
X511772D01*
X524468Y564192D01*
X511772D01*
Y574772D02*
Y570540D01*
X513888Y568424D01*
X522352D01*
X524468Y570540D01*
Y574772D01*
X522352Y576888D01*
X513888D01*
X511772Y574772D01*
X513888Y581120D02*
X511772Y583236D01*
Y587468D01*
X513888Y589584D01*
X522352D01*
X524468Y587468D01*
Y583236D01*
X522352Y581120D01*
X513888D01*
X511772Y602280D02*
Y593816D01*
X518120D01*
X516004Y598047D01*
Y600163D01*
X518120Y602280D01*
X522352D01*
X524468Y600163D01*
Y595932D01*
X522352Y593816D01*
X511772Y614975D02*
Y606511D01*
X518120D01*
X516004Y610743D01*
Y612859D01*
X518120Y614975D01*
X522352D01*
X524468Y612859D01*
Y608627D01*
X522352Y606511D01*
M02*
