M48
;Layer_Color=9474304
;FILE_FORMAT=4:4
METRIC,LZ
;TYPE=PLATED
T1F00S00C0.2000
T2F00S00C0.3048
T3F00S00C0.3302
T6F00S00C1.0200
T7F00S00C1.1000
%
T01
X0012192Y0080326
Y0081726
X0011492Y0081026
X0012892
X0049275Y0077425
Y0076125
X0050575
Y0077425
X0051975
Y0076125
X0053275
Y0077425
Y0074725
X0051975
Y0073425
X0053275
X0050575
Y0074725
X0049275
Y0073425
T02
X0002794Y00032664
X0004064
X0005334
X0006604
X0007874
X0009144
X0010414
X0011684
X0012954
X0014224
X0013589Y00045364
X0012319
X0011049
X0009779
X0008509
X0007239
X0005969
X0004699
X0003429
X0002794Y00058064
X0004064
X0005334
X0006604
X0007874
X0009144
X0010414
X0011684
X0012954
X0014224
X0013589Y00070764
X0012319
X0011049
X0009779
X0008509
X0007239
X0005969
X0004699
X0003429
X0004064Y00083464
X0005334
X0006604
X0007874
X0009144
X0010414
X0011684
X0012954
X0014224
X0013589Y00096164
X0012319
X0011049
X0009779
X0008509
X0007239
X0005969
X0004699
X0003429
X0002794Y00108864
X0004064
X0005334
X0006604
X0007874
X0009144
X0010414
X0011684
X0012954
X0014224
X0013589Y00146964
X0012319
X0011049
X0009779
X0008509
X0007239
X0006604Y00159664
X0007874
X0009144
X0010414
X0011684
X0012954
X0014224
X0013589Y00172364
X0012319
X0011049
X0009779
X0008509
X0007239
X0005969
X0004699
X0005334Y00185064
X0006604
X0007874
X0009144
X0010414
X0011684
X0012954
X0014224
X0013589Y00197764
X0012319
X0011049
X0009779
X0008509
X0007239
X0005969
X0004699
X0005334Y00210464
X0006604
X0007874
X0009144
X0009779Y00223164
X0008509
X0007239
X0005969
X0004699
X0005334Y00235864
X0006604
X0007874
X0009144
X0011684
X0002794
Y00210464
Y00185064
Y00159664
X0003429Y00146964
X0004064Y00134264
X0005334
X0004699Y00121564
X0003429
X0002794Y00134264
X0005969Y00121564
X0005334Y00159664
X0002794Y00083464
X0015494
X0016764
X0018034
X0019304
X0020574
X0021844
X0023114
X0024384
X0025654
X0026924
X0028194
X0029464
X0030734
X0032004
X0033274
X0034544
X0035814
X0037084
X0038354
X0039624
X0040894
X0042164
X0042799Y00070764
X0041529
X0040259
X0038989
X0037719
X0036449
X0035179
X0033909
X0032639
X0031369
X0030099
X0028829
X0027559
X0026289
X0025019
X0023749
X0022479
X0021209
X0019939
X0018669
X0017399
X0016129
X0014859
X0015494Y00058064
X0016764
X0018034
X0019304
X0020574
X0021844
X0023114
X0024384
X0025654
X0026924
X0028194
X0029464
X0030734
X0032004
X0033274
X0034544
X0035814
X0037084
X0038354
X0039624
X0040894
X0042164
X0042799Y00045364
X0041529
X0040259
X0038989
X0037719
X0036449
X0035179
X0033909
X0032639
X0031369
X0030099
X0028829
X0027559
X0026289
X0025019
X0023749
X0022479
X0021209
X0019939
X0018669
X0017399
X0016129
X0014859
X0015494Y00032664
X0016764
X0018034
X0019304
X0020574
X0021844
X0023114
X0024384
X0025654
X0026924
X0028194
X0029464
X0030734
X0032004
X0033274
X0034544
X0035814
X0037084
X0038354
X0039624
X0040894
X0042164
X0041529Y00096164
X0040259
X0038989
X0037719
X0036449
X0035179
X0033909
X0032639
X0031369
X0030099
X0028829
X0027559
X0026289
X0025019
X0023749
X0022479
X0021209
X0019939
X0018669
X0017399
X0016129
X0014859
X0015494Y00108864
X0016764
X0018034
X0019304
X0020574
X0019939Y00121564
X0018669
X0017399
X0016129
X0014859
Y00146964
X0016129
X0017399
X0018034Y00159664
X0016764
X0015494
X0014859Y00172364
X0016129
X0017399
X0018669
X0019939
X0019304Y00185064
X0020574
X0021844
X0023114
X0024384
X0025654
X0026924
X0028194
X0027559Y00197764
X0026289
X0025019
X0023749
X0022479
X0021209
X0019939
X0018669
X0019304Y00210464
X0020574
X0021844
X0023114
X0024384
X0025654
X0026924
X0028194
X0027559Y00223164
X0026289
X0025019
X0023749
X0022479
X0021209
X0019939
X0018669
X0019304Y00235864
X0020574
X0021844
X0023114
X0024384
X0025654
X0026924
X0028194
X0032004
X0033274
X0034544
X0035814
X0037084
X0038354
X0039624
X0040894
X0042164
X0041529Y00223164
X0042799
X0042164Y00210464
X0040894
X0039624
X0038354
X0037084
X0035814
X0034544
X0033274
X0032004
X0032639Y00197764
X0033909
X0035179
X0036449
X0037719
X0038989
X0040259
X0041529
X0042799
X0042164Y00185064
X0040894
X0039624
X0038354
X0037084
X0035814
X0034544
X0033274
X0032639Y00172364
X0033909
X0035179
X0036449
X0037719
X0038989
X0040259
X0041529
X0042799
X0042164Y00159664
X0040894
X0039624
X0038354
X0037084
X0035814
X0034544
X0033274
X0032004
X0030734
X0029464
X0030099Y00172364
X0028829
X0027559
X0026289
X0025019
X0025654Y00134264
X0025019Y00121564
X0026289
X0027559
X0028829
X0030099
X0031369
X0032639
X0033909
X0035179
X0036449
X0037719
X0038989
X0040259
X0041529
X0042799
X0042164Y00108864
X0040894
X0039624
X0038354
X0037084
X0035814
X0034544
X0033274
X0032004
X0030734
X0029464
X0028194
X0026924
X0025654
X0022479Y00121564
X0028194Y00134264
X0029464
X0030734
X0032004
X0033274
X0034544
X0035814
X0037084
X0038354
X0039624
X0040894
X0042164
X0042799Y00146964
X0041529
X0040259
X0038989
X0037719
X0036449
X0035179
X0033909
X0032639
X0031369
X0030099
X0028829
X0031369Y00172364
Y00197764
Y00223164
X0032639
X0033909
X0035179
X0036449
X0037719
X0038989
X0040259
X0042799Y00096164
X0018034Y00185064
X0014859Y00197764
Y00273964
X0016129
X0017399
X0018669
X0019939
X0021209
X0022479
X0023749
X0025019
X0026289
X0027559
X0028829
X0030099
X0031369
X0032639
X0033909
X0035179
X0036449
X0037719
X0038989
X0040259
X0041529
X0042799
X0042164Y00286664
X0040894
X0039624
X0038354
X0037084
X0035814
X0034544
X0033274
X0032004
X0030734
X0029464
X0030099Y00299364
X0028829
X0029464Y00312064
X0030734
X0032004
X0033274
X0034544
X0035814
X0037084
X0038354
X0039624
X0040894
X0042164
X0041529Y00324764
X0042799
X0042164Y00337464
X0040894
X0039624
X0038354
X0037084
X0035814
X0034544
X0033274
X0032004
X0030734
X0029464
X0028194
X0026924
X0025654
X0024384
X0025019Y00324764
X0026289
X0027559
X0028829
X0030099
X0031369
X0032639
X0033909
X0035179
X0036449
X0037719
X0038989
X0040259
Y00299364
X0038989
X0037719
X0036449
X0035179
X0033909
X0032639
X0031369
X0028194Y00312064
X0026924
X0025654
X0024384
X0025019Y00350164
X0026289
X0027559
X0028829
X0030099
X0031369
X0032639
X0033909
X0035179
X0036449
X0037719
X0038989
X0040259
X0041529
X0042799
X0042164Y00362864
X0040894
X0039624
X0038354
X0037084
X0035814
X0034544
X0033274
X0032004
X0030734
X0029464
X0028194
X0026924
X0025654
X0024384
X0025019Y00375564
X0026289
X0027559
X0028829
X0030099
X0031369
X0032639
X0033909
X0035179
X0036449
X0037719
X0038989
X0040259
X0041529
X0042799
X0042164Y00388264
X0040894
X0039624
X0038354
X0037084
X0035814
X0034544
X0033274
X0032004
X0030734
X0029464
X0028194
X0026924
X0025654
X0025019Y00400964
X0025654Y00413664
X0026924
X0028194
X0029464
X0030734
X0032004
X0033274
X0034544
X0035814
X0037084
X0038354
X0039624
X0040894
X0042164
X0041529Y00426364
X0042799
Y00400964
X0041529
X0040259
X0038989
X0037719
X0036449
X0035179
X0033909
X0032639
X0031369
X0030099
X0028829
X0027559
Y00426364
X0028829
X0030099
X0031369
X0032639
X0033909
X0035179
X0036449
X0037719
X0038989
X0040259
X0026289
X0025019
X0023749
X0022479
X0020574Y00413664
X0018034
X0016764
X0015494
X0016129Y00426364
X0017399
X0014859
X0017399Y00375564
X0018669
X0019939
X0019304Y00362864
X0018034
X0018669Y00350164
X0017399
X0016764Y00337464
X0018034
X0019304
X0020574
X0019939Y00324764
X0018669
X0017399
X0016129
X0014859
X0015494Y00312064
X0016764
X0018034
X0017399Y00299364
X0016129
X0014859
X0015494Y00286664
X0016764
X0018034
Y00261264
X0019304
X0020574
X0021844
X0023114
X0024384
X0025654
X0026924
X0028194
X0027559Y00248564
X0026289
X0025019
X0023749
X0022479
X0021209
X0019939
X0018669
X0019939Y00350164
X0020574Y00362864
X0022479Y00375564
Y00350164
X0024384Y00413664
X0031369Y00248564
X0032639
X0033909
X0035179
X0036449
X0037719
X0038989
X0040259
X0041529
X0042799
X0042164Y00261264
X0040894
X0039624
X0038354
X0037084
X0035814
X0034544
X0033274
X0041529Y00299364
X0042799
X0012319
X0011684Y00312064
X0012319Y00324764
X0012954Y00337464
X0013589Y00350164
X0014224Y00362864
X0013589Y00375564
X0014224Y00413664
X0012954
X0011684
X0010414
X0009144
X0007874
X0006604
X0005334
X0004064
X0002794
X0003429Y00426364
X0004699
X0005969
X0007239
X0008509
X0009779
X0011049
X0012319
X0013589
X0007874Y00388264
X0006604
X0005334
X0004699Y00375564
X0005969
X0007239
X0008509
Y00350164
X0009779
X0011049
X0007239
X0005969
X0004699
Y00324764
X0005969
X0007239
X0008509
X0009779
X0009144Y00312064
X0007874
X0006604
X0005334
X0005969Y00299364
X0007239
X0008509
X0009779
X0009144Y00286664
X0007874
X0006604
X0005334
X0004699Y00273964
X0005969
X0007239
X0008509
X0009779
X0009144Y00261264
X0007874
X0006604
X0005334
X0004699Y00248564
X0005969
X0007239
X0008509
X0009779
X0012319
X0011684Y00261264
X0012319Y00273964
X0011684Y00286664
X0004699Y00299364
X0002794Y00312064
Y00337464
Y00362864
Y00388264
Y00286664
Y00261264
X0040219Y00860114
X0041489
X0042759
X0044029
X0045299
X0046569
X0047839
X0049109
X0050144Y00854714
Y00866314
Y00880114
X0049149Y00883564
X0047879
X0046609
X0045339
X0044069
X0042799
X0041529
X0040259
X0040894Y00896264
X00408486Y0090614
Y0091884
Y0093154
Y0094424
Y0095694
Y0096964
Y0098234
X00399118Y0098836
Y0097566
Y0096296
Y0095026
Y0093756
Y0092486
Y0091216
X00421186Y0091249
Y0092519
Y0093789
Y0095059
Y0096329
Y0097599
Y0098869
X00433886Y0098234
Y0096964
Y0095694
Y0094424
Y0093154
Y0091884
Y0090614
X0043434Y00896264
X0044704
X0045974
X00459286Y0090614
Y0091884
Y0093154
Y0094424
Y0095694
Y0096964
Y0098234
X00471986Y0097599
Y0096329
Y0095059
Y0093789
Y0092519
Y0091249
X00471266Y00900514
X0048074Y00896314
X0048774
X0050074Y00896064
X0051219Y00894814
Y00882814
Y00870864
Y00857064
Y00845464
Y00831814
Y00820064
Y00808064
X0052869Y00811064
Y00799064
X00535391Y00804546
X0053594Y00820064
X0052869Y00824564
Y00836564
Y00847364
X0053594Y00845464
Y00870864
X0052919Y00864636
X0052959Y00883564
X0053594Y00896264
X0048514Y00870864
X0047244
X0045974
X0044704
X0043434
X0042164
X0040894
X0042164Y00896264
X00446586Y0091249
Y0092519
Y0093789
Y0095059
Y0096329
Y0097599
Y0098869
X00471986
X0050144Y00841064
Y00829314
X00501468Y00817419
X0054194Y00811814
X0055464
X00560454Y00805306
X00548091Y00804546
X00553905Y00798037
X00540841Y00798546
X0054864Y00820064
X0056134
X00567154Y00813556
X0057404Y00820064
X0056769Y00832764
X0058039
X0059309
X0060579
X0061849
X0063119
X0064389
X0065659
X0066929
X0068199
X0069469
X0070739
X0072009
X0073279
X0073854Y00844564
X0072644Y00845464
X0071374
X0070104
X0068834
X0067564
X0066294
X0065024
X0063754
X0062484
X0061214
X0059944
X0058674
X0057404
X0056134
X0054864
X0055499Y00858164
X0054229
X0054864Y00870864
X0056134
X0057404
X0058674
X0059944
X0061214
X0062484
X0063754
X0065024
X0066294
X0067564
X0068834
X0070104
X0071374
X0072644
X0073854Y00870814
X0073279Y00858164
X0072009
X0070739
X0069469
X0068199
X0066929
X0065659
X0064389
X0063119
X0061849
X0060579
X0059309
X0058039
X0056769
Y00883564
X0055499
X0054229
X0054864Y00896264
X0056134
X0057404
X0058674
X0059944
X0061214
X0062484
X0063754
X0065024
X0066294
X0067564
X0068834
X0070104
X0071374
X0072644
X0073854Y00896064
X0073279Y00883564
X0072009
X0070739
X0069469
X0068199
X0066929
X0065659
X0064389
X0063119
X0061849
X0060579
X0059309
X0058039
X0055499Y00832764
X0054229
T03
X00118432Y00221836
X00151452Y00186276
X00194632Y00143096
X00214122Y00105156
X00236982
X00270002Y00140716
X00315722Y00186436
X00587675Y00507111
X0059625Y00525
X005765
X0058674Y00548756
X00609346Y00590042
X00610616Y00608838
X00616712Y00620776
X00668255Y00556943
X00681482Y00551389
X00668528Y00538226
X0070104Y0054102
Y0056388
X00715645Y00550926
X00509524Y0052197
X00522859Y0047879
X0052324Y0045974
X00492468Y00478828
X0045375Y005325
X004575Y00538
X0041818Y0056042
X00388874Y0055626
X00390002Y00526469
X00382382Y00514928
X00374762Y00492068
X0034544Y0054356
X00356321Y00609135
X00345118Y00630741
X00367976Y0063048
X003937Y005842
X0046101Y0062738
X00264668Y00512572
X00273558Y00482346
X00270732Y00304006
X00194632Y00305656
X00151452Y00262476
X00312922Y00262376
X00147574Y0059055
X00143002Y00629158
X0012192Y0058166
X00074168Y00600964
X00073914Y00616712
X0004826Y0056642
X0006096Y0049022
X00092202Y00455168
X00090492Y00381856
X00104902Y00369316
X0007874Y0070104
X00076962Y00716661
X0007747Y00732155
X001016Y0073914
X0012192
X0004572Y00739394
X0008128Y0089408
X0008636Y0093472
X0018542Y00860044
X00177546Y0076962
X00264414Y00765048
X00261937Y00816547
X00240284Y00816356
X0027031Y00909211
X00323797Y00917453
X0032375Y00933
X00294Y00948
X002665Y0096875
X00249Y00969
X00340487Y00857737
X00383461Y00846074
X00397431Y00848992
X00383461Y00871382
X00390414Y00819277
X0039116Y0080264
X00390652Y007874
X0039112Y00772755
X00366141Y0077089
X00372618Y00787654
X00372872Y00802894
X00373126Y0082042
X00379028Y00753491
Y00736914
X0039625Y0074575
X00352679Y00749554
X0034225Y00756793
X0034275Y0074125
X00329Y0073525
X00324601Y00751399
X00319571Y00683729
X00371485Y00678185
X00391033Y00667263
X00408043Y00666739
X00408043Y00689598
X00391033Y00690123
X0042799Y0067818
X00433578Y00667766
X00470154Y00675386
X00483826Y00663492
X00474315Y00653723
X004572Y0064643
X005105Y00657
X0053175Y0065375
X00473456Y00715518
X0044625Y0077078
X0042575Y0077
X004615Y00815
X0045925Y0083075
X003556Y00651204
X0022606Y0067056
X0017018Y0067564
X0054675Y0065375
X0056725Y006495
X00611124Y00654112
X00622554Y0065532
X00634492Y00654112
X00635Y00639826
X00610616Y00640842
X0061525Y0073025
X0063525Y0073275
X00648153Y00744219
X00670091Y00757172
X0061214Y0077216
X005745Y0074925
X00576116Y00798532
X00655066Y00820166
X0069342Y0068326
X00700024Y00650494
X00711708Y0065024
T06
X00123308Y0062776
Y0065316
Y0067856
T07
X00186436Y00399034
X00211836
X00237236
X00262636
X002552Y00552054
X002298
X002806
X00306
X00255016Y00632968
X0038354Y0060706
X0040894
X0043434
X0045974
X00164592Y00542036
Y00516636
Y00491236
Y00465836
X000254Y0064516
Y0067056
Y0093472
Y0096012
X0036195Y0097155
Y0094615
Y0092075
Y0089535
Y0086995
Y0084455
X002921Y0070866
X002667
X00255016Y00658368
M30
